<svg xmlns="http://www.w3.org/2000/svg" xmlns:xlink="http://www.w3.org/1999/xlink" viewbox="0 0 550 625">
<circle cx="275" cy="275" r="240" fill="none" stroke="black" stroke-width="1.0" />
<line x1="275" y1="15" x2="275" y2="55" fill="none" stroke="grey" stroke-width="1.0" stroke-linejoin="round" stroke-miterlimit="10" />
<line x1="495" y1="275" x2="535" y2="275" fill="none" stroke="grey" stroke-width="1.0" stroke-linejoin="round" stroke-miterlimit="10" />
<line x1="275" y1="495" x2="275" y2="535" fill="none" stroke="grey" stroke-width="1.0" stroke-linejoin="round" stroke-miterlimit="10" />
<line x1="15" y1="275" x2="55" y2="275" fill="none" stroke="grey" stroke-width="1.0" stroke-linejoin="round" stroke-miterlimit="10" />
<text x="275" y="10" style="text-anchor:middle" font-size="15">PHRX1-2021_chr</text><text x="285" y="25" style="text-anchor:start">2,098,201</text><text x="525" y="265" style="text-anchor:start">0.52 Mbp</text><text x="285" y="530" style="text-anchor:start">1.04 Mbp</text><text x="25" y="265" style="text-anchor:end">1.57 Mbp</text><circle cx="345.800072" cy="45.680682" r="2.500000" fill="grey" stroke="black" stroke-width="1.0" />
<circle cx="410.298536" cy="76.772085" r="2.500000" fill="grey" stroke="black" stroke-width="1.0" />
<circle cx="462.754661" cy="125.506900" r="2.500000" fill="grey" stroke="black" stroke-width="1.0" />
<circle cx="498.499555" cy="187.547449" r="2.500000" fill="grey" stroke="black" stroke-width="1.0" />
<circle cx="514.351719" cy="257.371772" r="2.500000" fill="grey" stroke="black" stroke-width="1.0" />
<circle cx="508.900221" cy="328.765108" r="2.500000" fill="grey" stroke="black" stroke-width="1.0" />
<circle cx="482.630273" cy="395.373043" r="2.500000" fill="grey" stroke="black" stroke-width="1.0" />
<circle cx="437.880053" cy="451.267094" r="2.500000" fill="grey" stroke="black" stroke-width="1.0" />
<circle cx="378.632582" cy="491.472372" r="2.500000" fill="grey" stroke="black" stroke-width="1.0" />
<circle cx="310.161222" cy="512.410380" r="3.000000" fill="black" stroke="black" stroke-width="1.0" />
<circle cx="238.560314" cy="512.217515" r="2.500000" fill="grey" stroke="black" stroke-width="1.0" />
<circle cx="170.202746" cy="490.910943" r="2.500000" fill="grey" stroke="black" stroke-width="1.0" />
<circle cx="111.172728" cy="450.387071" r="2.500000" fill="grey" stroke="black" stroke-width="1.0" />
<circle cx="66.724268" cy="394.252754" r="2.500000" fill="grey" stroke="black" stroke-width="1.0" />
<circle cx="40.813531" cy="327.504264" r="2.500000" fill="grey" stroke="black" stroke-width="1.0" />
<circle cx="35.746720" cy="256.082596" r="2.500000" fill="grey" stroke="black" stroke-width="1.0" />
<circle cx="51.974811" cy="186.344685" r="2.500000" fill="grey" stroke="black" stroke-width="1.0" />
<circle cx="88.053410" cy="124.497600" r="2.500000" fill="grey" stroke="black" stroke-width="1.0" />
<circle cx="140.771318" cy="76.046084" r="2.500000" fill="grey" stroke="black" stroke-width="1.0" />
<circle cx="205.436340" cy="45.302596" r="3.000000" fill="black" stroke="black" stroke-width="1.0" />

<circle cx="275" cy="275" r="140" fill="white" stroke="grey" stroke-width="0.5" />
<circle cx="275" cy="275" r="120" fill="none" stroke="black" stroke-width="0.5" />

<g style="fill:none;stroke-linejoin:round;stroke-miterlimit:10">
<path style="stroke:black;stroke-width:1.0" d="M273.187459,130.928068L272.361254,132.913389L271.438030,129.988185L270.489007,127.374461L269.550154,125.905126L268.612436,124.885838L267.780860,126.314041L266.836020,125.361429L265.981952,126.106181L264.953820,124.111847L263.792868,120.628498L262.899007,121.086079L261.961020,120.967562L261.083899,121.546373L260.194521,121.936606L259.323516,122.470137L258.178869,120.440428L256.822284,116.790856L255.524809,114.007004L254.753515,115.642125L254.290716,119.455904L253.382507,119.747797L252.345196,119.137850L250.991960,116.502413L249.104712,110.694760L248.107673,110.770558L247.962091,115.863921L247.288872,117.615411L247.193477,122.429893L246.352239,122.981327L245.293690,122.392179L243.707340,119.223081L242.256636,116.910846L242.261050,121.565048L241.569150,122.794855L241.876367,128.389683L241.935171,132.622293L241.211965,133.363266L240.919314,135.834529L240.201522,136.499124L239.344933,136.602421L237.339589,132.360109L235.514248,128.995076L233.662110,125.700461L231.640395,121.968583L231.010752,123.218168L229.818396,122.525554L229.034846,123.224250L227.420576,121.220109L225.537970,118.461819L224.089676,117.174675L222.111742,114.342613L220.867501,113.819611L221.046312,117.484129L222.750713,125.388980L223.206352,129.499126L224.665968,136.235720L224.971926,139.614244L222.890059,136.536602L220.978309,134.023872L219.004347,131.451540L216.987426,128.872082L215.280974,127.161680L215.325740,129.782981L213.471611,127.785080L212.243351,127.338147L211.426225,127.869645L210.010006,127.032261L210.427082,130.341165L209.332380,130.224549L209.222152,132.260251L209.110373,134.241706L210.033735,138.351709L210.967669,142.370424L209.636518,141.658839L208.381195,141.132561L205.939938,138.285935L203.246816,135.043650L203.268872,137.126922L202.872367,138.369643L200.979955,136.796149L200.060740,137.071084L197.439454,134.262421L194.537955,131.043874L193.663535,131.504184L194.051375,134.161377L193.922624,135.872705L194.814642,139.278492L194.417137,140.452251L192.704618,139.441364L191.835995,139.842037L188.882047,136.901265L187.551971,136.621124L186.485102,136.773057L185.749554,137.445474L186.422692,140.257197L185.509512,140.628272L182.142959,137.367181L178.389412,133.637191L176.769800,133.099208L176.862576,135.031971L178.181160,138.657110L180.074770,143.005527L180.970305,145.889177L179.737095,145.828684L179.713121,147.403083L179.151687,148.241932L177.212210,147.274336L176.414968,147.818377L176.478194,149.459990L175.935448,150.313284L175.590888,151.406663L175.869721,153.253592L174.347305,152.884901L174.543131,154.599005L175.472770,157.155216L172.747182,155.388627L173.504914,157.704628L170.644662,155.848821L170.964803,157.639989L173.343176,161.697330L174.160341,163.953329L174.455721,165.602309L171.740163,163.989482L170.848678,164.367200L167.524544,162.197529L166.985857,162.983203L166.995944,164.327918L161.650382,160.233514L157.783795,157.731746L152.895549,154.295877L152.373546,155.223431L155.276095,159.451530L158.043837,163.467909L159.803991,166.456302L157.732834,165.823206L156.222436,165.737638L155.076843,166.002571L156.203599,168.318889L154.714901,168.276424L154.328541,169.218465L151.891382,168.379131L149.313269,167.456896L149.053289,168.534359L147.309230,168.364703L147.787084,170.050579L148.711164,172.077844L147.750822,172.557336L147.248273,173.407726L147.384831,174.758064L147.489060,176.069046L145.487745,175.753152L143.898956,175.776229L140.614897,174.550875L141.289567,176.297854L145.728912,180.765730L152.561414,186.864493L160.979025,193.956071L163.656156,196.858432L166.089860,199.535893L164.447667,199.373974L159.208523,196.803880L153.518769,194.016604L147.234748,190.928343L142.749952,189.107843L143.196733,190.516032L146.660444,193.816532L148.250149,195.881004L147.778572,196.641538L145.436231,196.265263L140.916876,194.614510L137.377441,193.609041L136.988427,194.490721L134.414021,194.113534L133.448915,194.682799L136.315722,197.403750L141.252977,201.214525L144.302953,203.914776L141.970041,203.675003L134.816032,200.916808L123.978253,196.342810L120.272486,195.587133L125.030009,199.160224L130.172677,202.846800L133.633284,205.624555L134.870961,207.270272L133.790632,207.788402L133.617003,208.741411L135.316202,210.555210L134.603945,211.243632L132.474756,211.303580L130.900723,211.632774L127.668434,211.261650L127.084863,212.058163L124.814334,212.151655L122.077296,212.079863L120.930669,212.684395L119.579321,213.218327L119.030975,214.079518L121.755079,216.198904L124.186944,218.165885L123.771110,219.041216L125.292403,220.621275L124.917079,221.500207L122.999907,221.840646L122.605433,222.724901L120.741708,223.116072L124.047934,225.232437L125.206374,226.607062L127.117343,228.200676L128.139828,229.490085L120.586494,228.161155L118.364782,228.509813L116.782012,229.069283L121.373234,231.398024L129.840990,234.739144L135.366891,237.170919L139.815481,239.243784L140.195479,240.206780L135.706463,239.936616L129.887628,239.394666L122.679653,238.591867L114.050252,237.546813L113.314078,238.394888L119.147379,240.695471L122.720471,242.436898L128.674920,244.625453L129.394262,245.683284L128.158011,246.348389L131.564695,247.903822L134.629384,249.352492L135.627199,250.396459L134.167950,251.007694L130.545625,251.279957L127.909373,251.750891L126.399638,252.423630L127.036731,253.426231L125.864773,254.166746L123.540022,254.766044L121.933602,255.483796L116.718041,255.781461L113.846297,256.411472L113.213205,257.319633L113.082586,258.286052L113.289512,259.285641L115.992275,260.509046L113.528053,261.259058L111.676407,262.086244L111.989850,263.092965L112.143186,264.084321L111.858922,265.046346L110.193556,265.935107L108.533040,266.843462L106.239253,267.743941L106.948309,268.782522L109.635001,269.873460L110.995719,270.898658L110.807460,271.877798L112.402680,272.882199L111.309606,273.848425L113.833421,274.831444L115.779723,275.787075L116.176158,276.736392L117.522549,277.665009L115.764023,278.648833L116.899379,279.570338L121.315804,280.364042L125.069799,281.132258L125.358940,282.018380L123.794796,282.999584L116.108833,284.360808L108.877539,285.785572L108.390951,286.819613L111.511273,287.582762L113.776491,288.380187L120.638263,288.742050L124.705381,289.287736L125.291110,290.137307L128.256896,290.725827L125.593570,291.916925L124.428785,292.962791L122.444355,294.126880L121.707878,295.152445L120.675540,296.229154L120.200550,297.239940L118.083876,298.504066L115.153487,299.922711L115.662078,300.821830L114.066436,302.070551L115.599693,302.795323L118.174570,303.315159L117.937378,304.330379L120.788779,304.754778L121.732544,305.525904L119.387611,306.963058L118.141516,308.199304L115.846207,309.682275L115.758622,310.701684L117.464040,311.311602L118.333063,312.100820L118.234176,313.117200L117.360260,314.331101L117.302626,315.350255L118.809962,315.962796L120.050670,316.630817L118.776162,317.978056L120.881295,318.393465L122.959042,318.792908L123.330633,319.671316L123.973273,320.466769L125.469592,320.994797L124.475704,322.289149L124.073912,323.410390L127.481650,323.293629L129.907629,323.463435L127.465935,325.263165L127.113622,326.373739L125.250639,328.028120L121.442606,330.413800L123.889037,330.556069L126.331588,330.671050L127.576095,331.214049L125.455368,333.050925L126.219074,333.782206L125.697514,335.024506L126.676733,335.665237L129.171419,335.666899L131.839807,335.565126L131.975448,336.520221L131.837440,337.598275L133.027203,338.093579L129.306430,340.794821L128.062033,342.419175L126.303205,344.307203L125.842230,345.612514L127.519553,345.902777L128.046690,346.736035L129.001626,347.355834L128.842039,348.528539L127.924362,350.097333L129.511275,350.388956L130.555466,350.948689L132.826544,350.844908L137.363095,349.487128L138.323024,350.029402L140.182468,350.062891L139.449221,351.538209L136.028982,354.570848L135.691252,355.875911L135.555711,357.075136L135.119456,358.463905L137.428238,358.207597L137.692223,359.175213L138.623520,359.732179L142.236269,358.593751L142.411458,359.596560L143.853586,359.785882L142.597744,361.726568L139.647775,364.821894L139.934574,365.801394L140.825204,366.374150L144.301623,365.157180L148.122875,363.647367L147.885124,364.951203L146.868227,366.827382L146.408843,368.327345L144.687044,370.773747L146.733717,370.457935L149.481774,369.586131L150.006342,370.369873L152.118528,369.928036L153.170630,370.285793L153.525715,371.186168L155.100952,371.112760L155.484606,371.986652L154.565125,373.934963L156.078212,373.890779L154.249959,376.640487L153.782523,378.280616L154.277040,379.113594L153.940130,380.675032L155.803385,380.313041L157.720036,379.877012L159.462383,379.570965L159.250939,381.030342L159.439895,382.137150L157.126139,385.602365L158.878356,385.273421L158.719743,386.756089L158.972993,387.857224L160.324036,387.887541L160.667650,388.905607L164.129521,386.787700L166.181418,386.041110L168.297639,385.194181L168.133774,386.694300L166.705537,389.552733L165.724934,391.985613L165.655108,393.474889L168.818549,391.438853L170.949532,390.483659L171.753858,390.980267L171.606445,392.556007L169.397160,396.527940L168.245113,399.350159L169.494861,399.394133L172.061470,397.852046L175.349682,395.385040L178.006704,393.614291L180.446868,392.053812L180.058124,393.985903L179.757949,395.839535L180.056779,396.955748L179.383506,399.349887L180.785166,399.057572L181.596515,399.530720L183.435253,398.614690L184.226433,399.093602L183.588713,401.549024L184.041790,402.523902L183.639576,404.724262L184.576726,405.041038L186.017468,404.618425L185.875911,406.505701L185.908261,408.168399L185.528752,410.484413L187.524904,409.202711L188.901310,408.836473L190.329724,408.364790L191.911602,407.621899L190.574836,411.566753L190.323875,413.824808L192.030491,412.877606L193.921207,411.580589L194.965234,411.680197L195.701903,412.301406L195.728243,414.173811L195.162045,417.140625L196.431967,416.862934L198.414547,415.258633L199.598258,415.078850L200.737997,414.963556L201.976617,414.642731L202.305280,416.065249L202.447161,417.885087L202.633113,419.658550L203.770916,419.541202L204.201207,420.864835L204.908361,421.637105L206.686852,420.144138L207.849317,419.920578L210.113256,417.262109L211.683106,416.051645L212.360656,416.809465L213.033947,417.589691L213.823528,418.111506L214.757089,418.296082L216.337984,416.908691L217.335348,416.897201L217.186772,419.742242L218.135873,419.879035L219.624202,418.610102L221.223170,416.990893L222.248817,416.841780L223.556540,415.902699L223.473698,418.797089L222.981474,422.955288L223.451936,424.472140L223.298004,427.883214L223.926107,429.060218L225.201604,428.280182L226.558583,427.199269L229.628389,420.565090L232.008895,415.892482L234.371489,411.063676L236.456578,406.958389L236.431351,410.044812L236.628446,412.467293L236.619345,415.749754L237.169961,417.077639L238.084430,417.059694L239.700316,414.262498L241.681172,409.833153L242.034146,411.920708L242.258780,414.657872L242.187594,418.832511L241.581730,425.643366L242.057249,427.823055L242.546312,430.056759L243.154935,431.827235L244.008924,432.451222L245.144914,431.624406L246.395824,430.106739L247.481253,429.400172L248.255736,430.438231L248.996211,431.746553L249.839043,432.502940L250.723747,433.035187L251.844948,431.996084L252.898389,431.334321L254.095736,429.536991L255.206696,428.226875L256.372473,426.330082L257.453471,424.949095L258.195622,426.459520L258.929163,428.215020L259.601168,430.796399L260.503722,431.217737L261.480398,430.831300L262.360284,431.573980L263.374808,430.621950L264.230915,431.797283L265.119797,432.662946L266.138080,431.415827L267.062380,431.715776L267.920573,433.564263L268.790971,435.657841L269.678944,437.968710L270.698003,436.387117L271.759330,431.827632L272.820495,423.539567L273.749221,419.050125L274.614590,418.082814L275.471074,417.943668L276.390095,424.715769L277.302428,425.732416L278.248248,427.743243L279.259108,431.247517L280.229892,432.274179L281.282850,435.071190L282.328058,436.945398L283.208255,435.150899L283.911603,430.633958L284.876874,431.104519L285.765539,430.377494L286.687571,430.199434L287.898339,433.587448L288.485263,429.356498L289.365559,428.802790L290.324923,429.100975L291.110597,427.708079L292.237392,429.513702L293.009961,428.111079L294.182398,430.068043L295.378913,432.016382L296.558301,433.653104L298.023554,437.151400L298.831495,435.911480L299.828652,435.985491L300.713190,435.340210L300.929314,430.717055L302.017430,431.462268L302.240000,427.305445L303.085977,426.784487L304.411935,428.796223L305.284077,428.372050L306.773132,430.991472L307.495649,429.792530L308.246040,428.780618L309.431865,429.771802L309.912185,427.613175L311.168826,428.861544L312.480770,430.262295L313.009176,428.417278L314.823541,431.713685L315.873437,431.902458L316.461402,430.339776L316.665930,427.435983L316.290836,422.582619L317.135758,422.199152L318.211694,422.610631L320.026724,425.462758L321.398180,426.731078L321.270843,423.136169L321.802710,421.744890L322.087416,419.639432L322.602552,418.300373L323.433192,417.933782L325.431442,420.949226L327.449049,423.893343L329.531847,426.896844L331.041755,428.211027L331.279459,426.050559L331.296238,423.373381L331.963642,422.463500L333.465821,423.696624L335.015750,424.994358L334.394366,420.901714L335.022691,419.953096L335.965216,419.770218L335.398823,416.057363L334.779109,412.331136L332.891932,405.848632L332.968321,403.928808L334.558959,405.373214L339.185884,413.303835L343.791359,420.932153L345.755625,422.797514L346.433073,421.946402L345.369453,417.580294L344.592120,413.902886L344.201422,411.081866L345.308190,411.232712L348.378047,415.115512L351.223138,418.451144L353.781226,421.146302L354.974941,421.256783L353.922860,417.301454L353.657031,414.840950L354.410563,414.222586L355.535000,414.249456L357.168421,415.130468L358.872030,416.092372L359.457479,415.159267L360.179558,414.461284L360.984034,413.901398L361.504385,412.889798L362.179642,412.134824L362.472898,410.792913L364.180355,411.639033L364.859206,410.893942L364.991245,409.337892L365.809789,408.819503L366.499471,408.112996L365.898328,405.556505L365.862196,403.852005L367.536325,404.571388L365.038619,399.490784L364.436690,397.111689L365.199517,396.618477L360.438345,388.768428L360.529712,387.480791L360.540960,386.108127L358.916539,382.658091L359.921174,382.611498L363.546319,385.833768L367.213001,389.016342L371.149633,392.438247L374.953190,395.603074L376.566354,396.066322L377.415470,395.604075L378.099728,394.946407L379.964899,395.647048L380.134849,394.390831L381.587296,394.588496L382.003911,393.617981L382.487653,392.728833L383.699813,392.633804L384.212645,391.777802L384.279947,390.455882L383.912617,388.696064L384.823621,388.281064L382.971049,385.043690L383.001848,383.764323L385.305298,384.761373L385.445699,383.592428L387.548511,384.342000L389.403702,384.820156L388.386587,382.546389L390.042065,382.815124L391.093347,382.501658L392.063008,382.104450L392.084182,380.842598L392.405221,379.861914L392.718725,378.881191L393.234079,378.083028L396.395952,379.566645L396.025765,377.991608L395.556053,376.353284L394.729196,374.440351L395.472928,373.844835L396.688571,373.628764L398.144452,373.592629L400.170715,373.990567L399.710585,372.418337L399.697995,371.211538L400.603385,370.715534L399.842724,368.959335L400.737624,368.458517L400.869637,367.391488L402.162916,367.173968L403.571017,367.025089L403.847644,366.061034L405.415807,366.003029L406.049992,365.283362L407.805704,365.324826L407.906107,364.233628L407.789831,363.006368L408.965408,362.635284L409.207823,361.650578L410.427161,361.293053L411.623490,360.909228L412.135557,360.089438L409.728755,357.482639L408.199280,355.453524L408.631009,354.625902L407.740496,353.021830L412.386837,354.649617L412.017401,353.342791L408.709501,350.392435L410.105465,350.116711L404.974913,346.248502L401.733648,343.487850L402.533815,342.936559L403.454881,342.442695L406.718330,343.152911L412.271513,344.987179L415.691685,345.672504L414.294993,343.929278L416.378285,343.909214L419.167454,344.203220L422.341834,344.644304L424.267355,344.463807L422.938174,342.770336L423.164142,341.803185L418.584978,338.706576L414.661576,335.967350L417.448981,336.171069L418.145443,335.457331L421.660325,335.909389L424.799891,336.163963L424.725275,335.089820L424.513978,333.967813L422.093029,331.997397L424.300936,331.826870L425.263068,331.165089L425.388132,330.187587L427.885097,330.067206L423.576507,327.512175L417.353317,324.355624L413.859287,322.214505L410.977305,320.327882L412.355321,319.875003L418.230188,320.846824L418.316659,319.930017L422.247775,320.195674L426.107273,320.391840L425.923355,319.352887L431.232054,319.898263L431.337695,318.916698L432.615825,318.258966L431.611035,316.976220L429.414152,315.397728L430.864501,314.781333L429.590445,313.471476L431.707752,313.003195L433.419418,312.415144L431.637347,311.005198L432.283913,310.163408L432.654555,309.256180L431.905618,308.110620L430.223403,306.785800L431.746039,306.120648L432.284225,305.249525L434.838437,304.749192L438.103020,304.347229L435.785394,302.937137L432.087033,301.326311L433.366217,300.566543L434.202716,299.724187L430.309290,298.167812L429.565328,297.111358L422.044172,295.137490L419.159955,293.863627L421.172266,293.237196L418.796293,292.066782L420.414109,291.376242L425.564298,291.043667L425.547130,290.130526L432.244517,289.852930L435.402003,289.182478L432.632616,287.986644L436.446682,287.327851L437.542864,286.432825L437.968787,285.482317L435.144653,284.337932L428.540140,283.030442L424.673005,281.929593L422.352627,280.937995L422.579877,280.062047L427.438946,279.314843L431.294433,278.487306L434.589857,277.604673L436.519159,276.668629L437.804021,275.706795L433.360896,274.739060L429.801041,273.817781L426.847013,272.930806L426.581946,272.026323L430.337957,271.021823L429.839359,270.106479L430.445712,269.155216L425.384913,268.443343L424.344176,267.592334L427.930408,266.495997L431.591910,265.351319L432.612180,264.340551L430.163076,263.572256L425.163027,263.035877L425.365443,262.113034L428.024065,260.961482L431.365337,259.710050L432.707680,258.624659L429.100111,258.065780L425.905523,257.501519L423.068266,256.931160L425.988180,255.656407L428.898026,254.346045L432.347651,252.922957L431.250642,252.121836L427.733225,251.701676L422.762470,251.553529L417.192617,251.563445L416.036627,250.885478L417.941067,249.677824L422.458976,247.965628L428.298640,245.944977L430.956963,244.472430L429.328251,243.830398L425.358761,243.693718L419.546414,243.999536L415.587810,243.966658L415.020190,243.211321L417.343049,241.786283L421.733759,239.833813L427.131020,237.575447L429.489756,236.012483L429.038348,235.143596L429.682933,233.986832L428.469479,233.323231L428.324172,232.375077L428.627212,231.297963L428.469409,230.347620L429.157723,229.144166L429.278978,228.100538L426.024185,228.100066L421.795332,228.447550L417.946184,228.724186L414.343125,228.966795L411.801143,228.896013L414.333405,227.111449L418.605499,224.679477L421.126772,222.811296L424.257191,220.683163L422.496693,220.321273L416.969095,221.401134L415.115780,221.139867L417.506835,219.238877L418.176791,217.985606L420.922148,215.877418L421.721130,214.528216L420.869584,213.854609L419.453076,213.428645L417.781859,213.127885L417.968004,212.027526L417.841828,211.058917L419.529697,209.261508L420.621123,207.709618L421.673945,206.154125L422.788530,204.547771L421.388843,204.135941L421.560113,202.966413L420.728380,202.288373L419.100808,202.019318L421.082253,199.913132L420.482159,199.116658L418.527444,199.039325L418.388086,198.010264L416.899868,197.710926L417.261108,196.405754L419.065761,194.278818L417.951796,193.774239L418.425514,192.364855L417.640210,191.675484L414.437814,192.422163L408.772742,194.691091L408.194448,193.949115L407.139214,193.502818L408.815808,191.358366L411.738562,188.388310L408.529038,189.296400L406.383292,189.558292L404.825419,189.460697L405.003897,188.222045L406.874969,185.826778L406.980221,184.599042L406.345144,183.873560L406.910674,182.305993L406.579471,181.356566L405.520512,180.927525L403.159808,181.457631L397.191370,184.687302L393.668239,186.187409L389.215585,188.447805L385.257206,190.403150L387.117719,187.903910L387.292774,186.684486L391.607814,182.155095L394.423455,178.738951L396.384401,175.953185L397.994924,173.405902L397.299022,172.742370L397.702146,171.150369L396.909220,170.561935L394.119926,171.708079L393.394780,171.088130L392.458813,170.657638L391.811136,169.974612L391.364937,169.108644L391.443789,167.754987L391.104191,166.775415L390.029628,166.482293L388.674461,166.466697L385.944937,167.795272L384.208605,168.200922L383.567018,167.548778L383.255173,166.566302L385.783549,162.696537L387.765232,159.309897L386.916178,158.796672L388.267178,155.975372L386.334488,156.594298L385.169588,156.418041L385.434211,154.696261L383.983918,154.839461L385.004890,152.244341L384.820139,150.963790L383.654661,150.789163L383.308398,149.678284L380.427503,151.524610L379.739839,150.831712L380.167977,148.798237L379.357294,148.234978L379.525095,146.470046L378.005389,146.777530L376.113277,147.577280L375.382591,146.930265L373.100349,148.286212L369.859376,150.944663L370.068901,149.115265L367.054660,151.576401L365.621919,151.966648L365.014153,151.246402L360.009547,156.643154L357.724390,158.356632L357.534183,157.135158L357.806195,155.226339L360.970945,149.042679L362.388095,145.304952L362.102050,144.043777L361.697301,142.943947L360.270421,143.406165L360.273942,141.657547L360.051996,140.233084L359.904130,138.665053L359.260599,137.875000L359.517890,135.591311L358.595895,135.230662L357.235044,135.617701L355.490641,136.688227L354.232181,136.955481L352.706164,137.716299L352.099175,136.865285L353.480261,132.390556L352.969164,131.288277L352.762069,129.599153L352.200732,128.546291L348.402515,133.706735L345.314537,137.646185L345.266246,135.689835L344.022739,136.092411L344.716022,132.562821L345.031714,129.720681L343.255066,131.211009L343.121883,129.244576L342.897905,127.426046L341.909723,127.249783L341.034943,126.826332L338.673849,129.791511L335.536498,134.666967L332.481612,139.523463L329.241132,145.000953L326.996161,148.250644L327.784004,144.102961L330.703823,134.440959L331.393041,130.175399L333.730109,121.460164L333.962166,118.042764L332.175179,119.985866L332.087367,117.321659L328.575291,124.206838L324.416409,133.226573L321.176297,139.924791L318.468498,145.313261L317.916433,144.369109L318.699472,139.249180L320.182813,131.704585L320.938102,126.207859L320.986286,122.824348L320.522998,121.033305L319.113937,122.444551L318.146585,122.370197L317.357433,121.659350L315.910104,123.366195L315.262993,122.130017L314.484997,121.353549L313.969244,119.503154L313.445910,117.599515L312.431814,117.669340L311.758375,116.284336L310.495788,117.449059L309.587223,117.076490L308.791071,116.165763L307.665056,116.809554L306.166165,119.367696L305.281132,118.938408L304.233113,119.360459L303.697581,117.001722L303.936487,110.074800L303.323766,107.686018L302.240700,108.012862L301.257344,107.742943L300.056265,108.907101L298.977513,109.337334L298.049759,108.728952L296.914856,109.640294L295.359630,113.976465L294.404839,113.774681L293.643917,111.867477L292.681512,111.620661L291.917275,109.417516L290.699375,111.669446L289.459222,114.483255L288.572059,113.513771L287.548487,114.155417L286.343598,117.435582L285.758150,111.937837L284.934329,109.325356L284.006263,108.076120L283.110153,105.860994L281.719816,114.807547L280.410002,124.513881L279.426294,127.232946L278.470694,130.152686L277.651539,127.440488L276.771405,127.121720Z" />
<line x1="50" y1="550" x2="100" y2="550" fill="none" stroke="black" stroke-width="1.0" stroke-linejoin="round" stroke-miterlimit="10" />
<text x="125" y="553" style="text-anchor:start;fill:black">GC-content</text>
<path style="stroke:blue;stroke-width:1.0" d="M273.386916,146.782096L272.701001,151.207487L271.817703,145.445108L271.067089,146.292598L270.349305,147.768009L269.661672,149.543934L269.205545,155.656969L268.656500,158.729234L268.047887,160.216108L267.187596,157.661948L266.242986,154.377395L264.834883,145.708709L264.157186,146.911376L263.930300,152.933794L263.638140,157.537753L263.726922,165.314624L262.726928,162.229893L261.672348,159.003228L260.637874,156.274506L259.852889,155.778737L259.516278,158.704257L257.988841,152.829500L257.159027,152.256392L256.029256,149.757908L254.742854,146.468694L254.383232,149.094931L253.218971,146.804158L252.312676,146.147967L251.693051,147.118360L250.456368,144.759793L250.415917,148.706182L249.518487,148.151351L248.018050,144.727689L247.664845,146.890574L246.300109,144.334129L246.242689,147.715699L246.994665,154.408560L247.801181,160.984730L248.236256,165.712612L247.783717,166.676898L247.399449,167.866577L245.188557,162.088303L243.910192,160.040428L241.422046,153.726927L239.186572,148.601717L236.734561,142.967772L234.325521,137.735757L234.481041,141.207447L234.986615,145.674053L236.403059,152.847816L236.453853,155.504429L234.931500,153.284884L233.167411,150.442792L230.936852,146.359207L230.354192,147.160840L230.344129,149.550867L230.181086,151.440172L232.191282,159.151233L233.015007,163.440006L232.702741,164.620192L230.362911,160.569950L227.302750,154.855358L226.117741,153.988800L224.663129,152.505471L224.761814,154.798403L224.512231,156.205934L224.259666,157.570395L223.872956,158.595111L223.144566,158.831381L221.534056,157.125223L217.776411,150.823229L216.208892,149.406088L215.408992,149.657881L215.816295,152.413338L218.783851,160.319352L220.299665,165.082180L221.030905,168.160618L222.216947,172.045356L221.585731,172.333419L220.749784,172.234580L218.690168,169.863133L216.775007,167.834408L215.002355,166.131203L212.697513,163.533474L211.591984,163.134000L210.207116,162.269975L207.890033,159.840523L205.039349,156.584802L202.157480,153.376162L201.598278,154.091183L202.648631,157.414711L204.448702,161.863949L206.533452,166.657661L205.730210,166.826669L204.585769,166.476215L202.479190,164.682161L203.962084,168.335171L205.080432,171.365131L206.380296,174.594090L208.062037,178.303160L206.169670,176.831073L207.026730,179.278216L204.130667,176.455489L204.871176,178.707119L203.422659,177.945019L199.888626,174.419734L200.411662,176.357954L198.779996,175.445131L199.264590,177.295996L199.182420,178.390528L199.664521,180.179670L199.104698,180.640907L197.379094,179.670232L197.053134,180.432346L195.970112,180.279975L193.877963,178.947805L192.325115,178.290133L191.375161,178.356832L186.904534,174.414071L183.974974,172.316500L181.624126,170.926949L178.734195,168.990149L182.370971,174.214535L182.819676,175.900624L185.210535,179.622815L185.452475,181.014057L184.462373,181.107341L187.567221,185.407368L189.153716,188.080639L192.371907,192.335216L192.422459,193.369481L192.188078,194.112658L190.499861,193.446849L188.079286,192.110405L186.375256,191.493136L183.455702,189.771429L181.747521,189.217923L181.576900,190.088311L182.492876,191.927090L182.967003,193.343248L184.654774,195.802675L182.251296,194.672989L178.216913,192.188126L177.065954,192.214106L174.396540,190.985472L173.879778,191.576798L175.971560,194.294367L176.971985,196.081997L179.559648,199.102768L179.874193,200.278514L176.978844,198.949063L174.228584,197.777614L170.385759,195.822755L167.423920,194.589874L165.763252,194.363798L160.915247,191.836056L154.078947,187.956866L149.153314,185.550582L142.929965,182.312706L139.346141,181.005103L141.875816,183.933148L151.178544,191.381087L161.868175,199.582594L170.121362,205.988115L173.573584,209.126802L174.563085,210.621405L174.376950,211.349100L170.869160,210.000101L171.813205,211.444995L168.980088,210.572653L168.148498,210.940407L169.420253,212.559388L168.503317,212.874984L167.792481,213.317907L165.899574,213.095558L165.569200,213.771576L166.299473,215.032160L162.602883,213.867982L165.538435,216.311371L167.655256,218.271393L167.938544,219.238804L169.427714,220.815727L168.863866,221.326991L166.637197,221.013481L162.943454,220.008465L160.291018,219.556759L157.990786,219.306979L157.263536,219.823266L156.587177,220.368829L156.897177,221.367388L155.479998,221.584928L154.311913,221.927775L153.222712,222.316901L154.080267,223.545427L154.401220,224.532908L153.945109,225.191894L156.117305,226.916147L155.994098,227.693658L156.076023,228.549072L155.073933,228.983570L156.463096,230.329199L158.931805,232.051625L159.741484,233.134314L164.265765,235.526763L165.728681,236.784282L162.631958,236.454987L161.117175,236.696138L161.022375,237.422583L159.176878,237.581711L156.595149,237.529298L155.406071,237.939513L149.268304,236.861320L144.619298,236.302296L143.704589,236.884913L145.773384,238.323216L151.574692,240.767136L157.797784,243.247845L161.659315,245.021463L162.795044,246.039756L160.617054,246.207184L157.212877,246.099295L158.710669,247.204124L154.104027,246.867371L152.995868,247.378703L153.308590,248.214654L157.698831,249.916590L162.321623,251.609925L164.972268,252.846672L161.188451,252.793244L148.244900,251.054858L144.635286,251.180699L139.893348,251.149565L142.664562,252.455186L148.733949,254.266560L144.350728,254.349607L145.538233,255.331294L149.963155,256.769016L149.951053,257.531448L156.225124,259.132537L159.479915,260.271010L158.189193,260.816873L155.790411,261.249582L153.754787,261.750094L146.569999,261.742795L143.731527,262.243871L145.166763,263.167823L142.871708,263.756145L143.757575,264.622855L146.388478,265.605604L146.908919,266.414537L150.038481,267.375778L152.823803,268.279910L147.123108,268.734296L148.779487,269.573006L147.771247,270.292865L145.188947,270.975681L146.559906,271.788031L143.726140,272.503763L142.045460,273.268291L142.699338,274.069254L143.348457,274.862312L146.235686,275.636522L148.843240,276.379249L148.978337,277.132679L148.800799,277.891808L146.420649,278.716944L147.032547,279.466450L148.977143,280.154430L147.910046,280.960700L149.043537,281.663787L148.020169,282.480805L147.224617,283.295872L148.564296,283.969628L148.734014,284.717947L149.466657,285.418205L152.907838,285.869252L152.023700,286.690724L151.744670,287.462545L154.188045,287.946897L151.834285,288.945753L153.629444,289.479222L148.775984,290.825514L146.903663,291.840098L146.694225,292.649976L145.724195,293.572974L148.702691,293.917752L148.096249,294.786390L146.562534,295.814194L150.068797,296.014613L154.241206,296.057235L155.638359,296.550994L155.565090,297.303659L151.394512,298.849457L150.249542,299.846243L152.097080,300.244475L153.883947,300.634372L152.300376,301.738302L150.615982,302.886715L146.434941,304.633890L146.201996,305.501085L149.941758,305.407585L151.490285,305.815663L152.668850,306.301048L154.941831,306.486761L155.343804,307.148479L154.699479,308.095349L154.309000,308.981603L151.704166,310.513346L151.216281,311.458130L151.003716,312.329223L152.831604,312.578381L158.608678,311.565835L157.668370,312.634779L158.419802,313.165292L154.452885,315.264883L151.871824,316.948358L152.490007,317.558324L153.390575,318.063417L155.680362,318.058523L155.298358,319.008406L155.508971,319.745154L153.063819,321.495353L153.654977,322.104271L152.017346,323.589506L152.012561,324.444993L155.963296,323.686831L155.799741,324.589113L160.014288,323.645674L162.188154,323.524604L163.856691,323.597758L166.204094,323.349565L163.770393,325.230988L163.211402,326.291679L160.241158,328.488808L160.476017,329.216595L160.907907,329.850974L162.589011,329.874019L164.307985,329.858234L162.509112,331.591448L161.245956,333.083211L160.149735,334.512802L158.211075,336.407418L161.148005,335.736331L161.615230,336.362219L163.504788,336.205767L165.599825,335.911169L164.686856,337.287879L166.221456,337.283497L162.783928,340.147216L164.687676,339.928432L164.925937,340.678978L165.070797,341.488535L166.948774,341.239766L165.143791,343.254849L166.642959,343.226250L168.634112,342.865504L171.185975,342.115550L171.612786,342.721038L170.685665,344.224655L168.737079,346.438129L167.474610,348.225683L167.966391,348.832962L168.932562,349.107914L169.144851,349.907031L169.719467,350.450730L171.287785,350.271006L172.349113,350.443458L175.030876,349.398711L176.795318,349.003603L175.031741,351.275551L174.455023,352.672712L173.090069,354.706302L169.898292,358.221980L171.082015,358.302116L168.962842,361.049074L168.499294,362.488308L168.683242,363.408922L172.098445,361.616651L177.826080,357.794846L179.793626,357.107643L184.270750,354.198965L182.827660,356.436452L180.005327,359.948504L184.024317,357.340412L184.757269,357.665617L187.002297,356.583719L187.437092,357.161259L184.047772,361.371610L183.194340,363.233736L181.582852,365.865053L182.773135,365.788546L185.634583,364.031862L187.840912,362.880147L191.531695,360.173075L192.185686,360.524401L190.973689,362.822508L190.605978,364.271100L189.054029,367.010395L187.557167,369.744068L187.785068,370.640120L187.588980,372.015848L188.525736,372.139786L190.408393,371.178640L191.030858,371.631841L191.170590,372.646120L190.901946,374.154454L192.008444,374.046319L193.350161,373.639115L194.272104,373.723133L196.812083,371.794189L197.993129,371.508858L198.671908,371.842214L200.259041,371.005691L200.773489,371.532071L199.969393,373.796701L198.986921,376.344864L198.883929,377.758592L198.090540,380.140430L199.139219,380.021032L199.757586,380.490272L197.618428,384.875446L197.342817,386.681653L198.659763,386.202740L200.360293,385.133492L203.060610,382.530210L204.161483,382.269264L203.934675,384.027138L205.184164,383.525521L207.828708,380.802009L210.771586,377.518455L212.983755,375.317925L213.621822,375.628291L214.290429,375.886342L212.825686,379.735210L212.077816,382.456009L211.633908,384.715792L211.894797,385.790929L211.814711,387.492817L212.404007,388.023719L214.407359,385.969390L213.917821,388.476442L216.283347,385.664825L218.232498,383.556584L218.217752,385.186847L219.489180,384.322647L219.626659,385.689123L219.273288,388.083104L220.059745,388.191918L220.815596,388.357944L220.257936,391.309816L220.666606,392.259072L220.258828,395.018268L219.436082,398.780265L222.341589,394.213591L224.332456,391.590763L225.156166,391.600809L226.281461,390.883772L226.463142,392.415021L226.230101,395.009606L226.403040,396.668225L227.078608,397.094638L227.812418,397.375003L228.197829,398.575191L228.986702,398.724392L230.587929,396.643852L230.858438,398.188118L231.358444,399.128834L232.604661,397.932299L232.946381,399.352884L233.452849,400.323579L233.502861,402.728793L234.221872,403.121794L235.752807,400.916210L236.884113,399.915189L238.625258,396.817930L241.062330,391.190001L242.381230,389.211822L244.022694,385.977165L245.508055,383.153027L245.698024,385.048938L245.720956,387.672567L246.467013,387.566875L247.710293,385.434773L247.627744,388.688200L247.557820,392.054784L247.559638,395.284266L247.731877,397.919642L248.515707,397.861948L249.463441,397.008198L250.496447,395.672528L251.531822,394.230882L252.706807,391.953544L253.753485,390.209667L254.188804,391.765931L254.244209,395.633102L254.215827,400.283570L254.295008,404.609427L254.571579,407.986308L255.613678,406.443309L256.486019,405.957452L257.624616,403.449371L258.627270,401.747019L259.374099,401.944861L260.391098,399.844724L261.175891,399.598064L262.055802,398.406490L262.767102,398.765322L263.324206,400.823068L264.036792,401.365475L264.893929,400.188548L265.583726,401.052014L266.516839,398.514353L267.229368,398.999561L267.815950,401.800872L268.465088,404.021525L269.082958,407.529283L269.686777,412.478987L270.433892,414.846814L271.307818,413.510222L272.221613,409.456088L273.134267,402.155072L273.958985,394.892007L274.690261,389.990223L275.387533,392.593760L276.141578,397.950027L276.949594,402.633567L277.897727,411.260583L278.924480,418.971519L279.879680,421.742542L280.960142,426.849408L281.870924,426.843035L282.806458,427.311466L283.830733,429.221627L284.457468,424.475782L285.340023,424.236078L286.099892,422.395643L286.914821,421.494920L288.016165,423.987057L288.909106,423.915833L289.549179,421.300420L290.441073,421.361846L291.522666,423.106996L292.420463,423.099484L293.462595,424.249253L294.799323,427.550732L296.048054,429.898061L297.292753,432.004481L298.693091,434.976965L299.678988,435.015088L299.789866,429.582621L300.764745,429.728746L301.486435,428.387188L302.276560,427.509860L303.808032,430.686676L304.620957,429.889208L305.369161,428.802951L306.028167,427.334034L306.661163,425.817468L307.910493,427.228536L308.846763,427.141759L309.140864,424.241467L309.679490,422.525935L309.938596,419.731461L311.244284,421.293604L313.048349,424.727945L314.808091,427.812873L315.926135,428.334339L316.502880,426.839457L317.511565,426.945772L318.295766,426.251580L319.197800,425.979156L319.882113,424.979522L320.161886,422.688156L321.359528,423.420097L321.836238,421.850013L322.774361,421.749537L323.941044,422.329702L323.161107,417.130818L322.745480,413.176019L322.939292,411.090960L323.820002,410.986667L325.131427,412.052945L327.311840,415.401718L328.687766,416.498536L329.173219,415.239848L330.761734,416.819296L332.234499,418.043316L333.220927,418.019173L334.937673,419.747780L334.795036,416.991467L333.555090,411.751449L335.225985,413.357750L335.906042,412.661190L336.077610,410.844257L337.763276,412.387392L336.043351,406.532496L335.583299,403.519794L337.860363,406.305538L339.668777,408.031433L342.417678,411.599504L344.445473,413.610186L345.393348,413.425741L345.866217,412.313972L346.493704,411.517355L347.601839,411.635897L349.011403,412.297849L349.852792,411.889485L350.100405,410.409396L350.416762,409.080216L348.861575,404.494101L348.901338,402.779489L349.740313,402.462533L348.504526,398.651804L350.706836,400.637360L352.528109,401.933853L355.188045,404.538370L356.736922,405.290362L357.113233,404.165291L358.977121,405.366070L359.591710,404.608472L361.018141,405.085104L363.112008,406.532588L363.603877,405.568818L361.619828,401.014115L364.684649,403.813308L364.143896,401.415277L364.943069,400.940254L367.110746,402.355784L366.984550,400.590390L368.210001,400.677596L364.343690,393.968728L364.599694,392.833256L358.948398,384.039567L352.851063,374.876579L350.726142,370.959620L352.658884,372.205923L358.275226,377.965270L363.575310,383.186884L370.934318,390.753921L374.406395,393.491666L376.140215,394.102339L378.697149,395.641447L378.455947,393.912653L379.056740,393.166533L380.376985,393.230555L379.232154,390.545381L378.526614,388.390395L377.283320,385.689942L376.632337,383.672406L379.971271,385.903702L382.260724,386.971619L382.890106,386.286679L383.452019,385.533893L382.676084,383.436259L382.413152,381.883488L382.997574,381.185382L384.317471,381.203012L383.355325,379.014105L384.940312,379.277620L385.065992,378.151647L384.963061,376.825055L388.882954,379.194923L392.014139,380.779280L392.739033,380.160061L395.226571,381.094245L394.709892,379.369724L389.492715,373.620414L390.423333,373.223999L392.462718,373.752672L390.285416,370.749597L393.704869,372.394190L393.828744,371.310870L391.674032,368.412244L393.106374,368.403772L394.049324,367.996013L396.035091,368.385401L394.194969,365.832028L394.751629,365.127667L397.114159,365.765261L396.859325,364.447818L400.802159,366.187624L400.995589,365.181718L398.584853,362.341639L395.775703,359.276247L392.283116,355.799044L392.966512,355.232282L392.682196,354.012240L393.097529,353.269056L397.630639,355.220491L401.964461,356.973939L402.572228,356.287955L404.024469,356.130942L402.806911,354.301229L402.733629,353.200135L406.242247,354.271459L408.924703,354.800904L407.741364,353.022340L404.919478,350.320437L405.211749,349.451506L407.550074,349.738690L410.693914,350.443880L411.683835,349.926140L413.771168,349.993019L412.655897,348.328535L415.609638,348.824310L416.531139,348.230196L413.938776,345.837224L411.464889,343.549292L411.180953,342.388314L410.791074,341.185950L409.245297,339.440389L412.712715,340.092893L411.713277,338.621578L413.978865,338.666085L415.644045,338.412577L416.519926,337.790342L418.836149,337.789703L420.589542,337.519702L419.194350,335.900336L417.797269,334.305026L416.753326,332.878515L412.660635,330.247872L416.267201,330.715312L415.452463,329.424229L413.195296,327.599845L415.046139,327.346221L413.398663,325.787840L414.980073,325.418986L417.667786,325.423825L422.080855,325.994719L424.048313,325.678946L427.638183,325.881767L425.864365,324.288508L419.588887,321.281732L421.411784,320.900344L417.945034,318.875007L420.733388,318.777553L420.452461,317.745118L417.230556,315.874486L417.639056,315.068624L417.108718,314.002912L421.467552,314.257478L425.054880,314.257258L428.951263,314.293017L433.951167,314.556688L432.295357,313.145695L433.288247,312.384164L430.858800,310.826239L426.433260,308.855398L424.883954,307.567734L420.659472,305.737429L422.120793,305.126591L422.828467,304.350137L425.549960,303.954365L428.064679,303.488458L422.951138,301.620941L419.317802,300.075824L420.106029,299.318408L415.567456,297.693123L422.231095,297.864994L429.967716,298.116859L430.691846,297.272512L439.405611,297.515114L439.931442,296.581619L432.435660,294.642475L431.028920,293.518638L427.332118,292.155335L422.378390,290.704187L426.683887,290.244775L426.552483,289.315275L428.270002,288.551878L431.396087,287.884772L429.559520,286.801956L429.031733,285.834175L429.077995,284.910452L428.780274,283.966829L430.804502,283.148873L435.327001,282.422854L433.864816,281.401911L434.840180,280.482580L432.301339,279.452475L427.414416,278.400733L427.390401,277.487170L425.346800,276.553210L424.581554,275.649392L423.402986,274.755468L416.418443,273.919984L411.460939,273.140470L409.690897,272.357685L412.043484,271.490341L415.317414,270.565429L413.278356,269.800712L408.204522,269.192394L409.736182,268.316909L410.834977,267.446622L418.683731,266.146679L422.437859,265.028649L412.874992,264.845522L407.647940,264.431378L407.335731,263.658258L410.847180,262.537300L416.508126,261.162840L422.632561,259.670794L416.341977,259.467785L407.199952,259.670552L407.191236,258.868641L410.073805,257.695250L413.246104,256.446619L423.422726,254.175190L419.656249,253.819483L411.004074,254.253584L406.200954,254.181457L397.590200,254.794366L401.335854,253.399025L410.176193,251.053381L417.245812,248.921383L420.276812,247.465371L423.818270,245.869784L415.508730,246.621520L409.020962,247.095420L404.180716,247.294974L401.352772,247.108899L408.189337,244.762124L417.965322,241.641085L422.476942,239.655702L421.271948,239.016791L423.846853,237.436543L420.790003,237.277800L421.597641,236.130594L424.500696,234.401009L422.102077,234.104852L422.521342,233.034888L425.458154,231.223753L421.080991,231.546675L421.953941,230.327285L425.227526,228.347465L425.374249,227.312586L429.112661,225.109274L430.652913,223.578716L428.455623,223.283209L425.526443,223.264430L427.101976,221.702243L429.886942,219.682630L428.770292,219.040780L428.776059,217.993439L425.839402,218.052248L423.214020,218.026925L417.467542,219.254252L411.527017,220.633611L409.793499,220.386360L408.822082,219.844618L412.685527,217.285189L416.970632,214.486756L420.543180,211.931313L419.422632,211.386813L420.453741,209.889732L420.214677,208.949949L417.625649,209.093803L416.096412,208.772109L413.431856,209.008189L409.794969,209.748315L410.818522,208.245853L411.663331,206.811407L413.627281,204.791417L416.820476,202.103703L416.480548,201.203894L415.614274,200.581095L411.242416,201.847007L405.770527,203.772782L402.216293,204.717484L400.323926,204.780016L401.880296,202.906128L402.649044,201.454527L401.962505,200.833752L402.096316,199.731043L405.343882,196.749567L408.012602,194.059772L407.993660,192.975836L409.858960,190.706344L406.361776,191.794025L405.248861,191.401732L409.261911,187.686257L406.943536,188.065113L406.277722,187.371763L407.724048,185.252635L405.028861,185.935642L402.838274,186.306604L401.361871,186.205153L398.251057,187.283793L396.543242,187.397879L397.745619,185.409386L398.631042,183.623228L397.775198,183.113717L402.328796,178.510657L404.898133,175.333292L407.051542,172.418775L407.988114,170.408109L400.860102,174.788284L395.943136,177.514015L392.624852,179.020888L390.468703,179.622578L391.599479,177.507917L392.357916,175.673488L391.479323,175.213658L392.749783,172.896166L392.500278,171.873210L392.534558,170.590352L391.317825,170.418149L389.571048,170.741072L385.199707,173.505802L384.285141,173.131679L384.955381,171.269282L385.665222,169.339837L389.526549,164.334404L388.386310,164.115391L385.146194,165.985832L383.159915,166.661717L381.718844,166.817009L382.260488,164.957422L382.733996,163.139060L379.673060,165.006336L375.373153,168.251824L372.486260,170.069848L373.785701,167.385801L376.625904,162.952061L379.303517,158.606566L380.845540,155.452895L377.804093,157.477360L373.577396,160.937854L371.542233,161.930928L370.220201,162.117171L369.895353,161.125405L371.463846,157.823318L372.120227,155.575490L370.711443,155.857131L370.910708,154.133546L371.007771,152.511731L371.300705,150.610767L373.185386,146.594968L370.398786,148.678451L370.438546,147.039407L368.418901,148.169310L367.112548,148.361478L371.125509,141.166655L369.576687,141.644610L366.350576,144.544705L365.211967,144.514383L364.062796,144.512762L363.353407,143.872306L363.533065,141.892274L361.211819,143.683425L358.302056,146.443851L356.007288,148.329294L355.115451,148.055156L352.765325,150.128202L350.696640,151.811915L352.046503,147.915049L350.887235,148.119265L351.891204,144.675114L352.100990,142.512862L351.185428,142.263773L351.743939,139.416264L350.609253,139.534704L349.078951,140.388343L347.923047,140.589212L345.936928,142.360919L345.000571,142.205362L342.451767,145.161392L337.590450,152.734570L336.918894,152.239330L336.610334,151.009805L339.142325,143.950472L341.780440,136.465380L341.404509,135.109469L340.277335,135.330848L340.036164,133.645950L337.715530,136.511411L336.156627,137.772626L335.070513,138.008933L333.249450,139.968701L335.226589,133.053916L337.251946,125.801534L339.444423,117.905920L337.193008,120.769931L334.056603,125.980795L331.002088,131.179415L328.314456,135.618462L327.529251,135.167177L327.039241,133.910492L326.908818,131.625087L327.026575,128.565859L327.245730,125.109381L326.369412,124.733858L326.670425,120.843099L325.907914,120.044294L323.718419,123.658002L321.522071,127.457186L319.722524,130.145082L319.054213,129.217874L318.887664,126.564289L318.707149,123.851313L317.283574,125.423074L314.124087,133.364578L312.539790,135.858306L311.577369,136.123545L310.883202,135.369074L310.461174,133.501215L310.059091,131.465410L309.343244,130.650990L308.765153,129.208498L308.776443,125.080510L308.094756,123.891017L306.786381,125.588768L305.987717,124.932578L305.096687,124.708273L303.492020,128.159053L302.700560,127.519904L301.484493,129.186167L300.206851,131.332080L299.673670,129.247843L299.365406,125.638589L298.914661,122.665639L297.996938,122.557965L297.219437,121.484029L296.058481,123.093169L295.038037,123.801930L294.884169,117.736867L293.840576,118.462870L293.257444,115.249080L292.493335,113.359440L291.359507,114.876822L290.364337,115.155059L289.281456,116.456702L288.442856,115.051086L287.690336,112.337224L287.044352,107.701991L286.086632,106.959019L284.975895,108.632157L283.955773,109.011918L282.899078,110.263017L281.858961,111.490497L280.933752,109.945116L279.860391,112.741088L278.869557,113.506392L277.884811,114.458791L276.847625,120.758839Z" />
<line x1="50" y1="575" x2="100" y2="575" fill="none" stroke="blue" stroke-width="1.0" stroke-linejoin="round" stroke-miterlimit="10" />
<text x="125" y="578" style="text-anchor:start;fill:black">GC-skew</text>
</g>
<g style="fill:pink;stroke:black">
<a xlink:title="1347577..1347584;m4C;97;163;CAGTGATC"><path fill="blue" stroke="blue" d="M73.767592,439.637536L73.194126,438.934100L72.623119,438.228668L72.054577,437.521246L71.488509,436.811844L80.133290,431.610872Z" />
</a><a xlink:title="877948..877955;m4C;99;194;CAGTGATC"><path fill="blue" stroke="blue" d="M406.959060,504.808195L406.156076,505.267418L405.351494,505.723835L404.545323,506.177441L403.737574,506.628230L400.044997,497.235795Z" />
</a><a xlink:title="1900687..1900694;m4C;104;176;CAGGGATC"><path fill="blue" stroke="blue" d="M147.921211,89.322911L148.570119,88.880455L149.220568,88.440266L149.872549,88.002350L150.526055,87.566713L143.970552,79.919802Z" />
</a><a xlink:title="1995511..1995518;m4C;100;180;CGGGGATC"><path fill="blue" stroke="blue" d="M206.583486,65.908679L207.313768,65.671134L208.044875,65.436141L208.776797,65.203700L209.509526,64.973816L205.383839,55.788709Z" />
</a><a xlink:title="634613..634620;m4C;130;174;CAGTGATC"><path fill="blue" stroke="blue" d="M479.026551,342.809781L478.788608,343.521554L478.548181,344.232491L478.305275,344.942585L478.059891,345.651827L487.888797,347.824172Z" />
</a><a xlink:title="1122551..1122558;m6A;288;173;CGGGGATC"><path fill="blue" stroke="blue" d="M221.534847,524.332063L220.664842,524.143915L219.795498,523.952732L218.926827,523.758516L218.058840,523.561269L221.543117,514.096971Z" />
</a><a xlink:title="1347577..1347584;m6A;251;160;CAGTGATC"><path fill="blue" stroke="blue" d="M73.767592,439.637536L73.194126,438.934100L72.623119,438.228668L72.054577,437.521246L71.488509,436.811844L80.133290,431.610872Z" />
</a><a xlink:title="138836..138843;m6A;337;192;CAGTGATC"><path fill="blue" stroke="blue" d="M379.910487,31.650889L380.759295,32.018578L381.606814,32.389227L382.453034,32.762832L383.297945,33.139389L377.991099,41.723697Z" />
</a><a xlink:title="1448154..1448161;m6A;235;133;CAGTGATC"><path fill="blue" stroke="blue" d="M38.620889,370.655192L38.288430,369.829492L37.958855,369.002637L37.632169,368.174636L37.308375,367.345500L47.097347,364.918746Z" />
</a><a xlink:title="146139..146146;m6A;279;165;CAGTGATC"><path fill="blue" stroke="blue" d="M383.127467,38.550321L383.952172,38.929196L384.775549,39.310949L385.597588,39.695573L386.418280,40.083064L380.948671,48.560429Z" />
</a><a xlink:title="1672541..1672548;m6A;293;170;CAGTGATC"><path fill="blue" stroke="blue" d="M20.870372,199.879216L21.134141,198.992596L21.401003,198.106902L21.670955,197.222144L21.943994,196.338335L31.100250,200.582852Z" />
</a><a xlink:title="172390..172397;m6A;236;150;CGGGGATC"><path fill="blue" stroke="blue" d="M398.931723,52.141462L399.708889,52.575422L400.484536,53.012092L401.258654,53.451467L402.031234,53.893542L395.935531,61.928187Z" />
</a><a xlink:title="1988929..1988936;m6A;259;168;CGGTGATC"><path fill="blue" stroke="blue" d="M189.289599,29.533654L190.146958,29.235964L191.005352,28.941269L191.864769,28.649572L192.725199,28.360877L194.648855,38.264507Z" />
</a><a xlink:title="254814..254821;m6A;205;147;CAGTGATC"><path fill="blue" stroke="blue" d="M456.473741,81.887905L457.146723,82.522543L457.817485,83.159526L458.486019,83.798847L459.152318,84.440498L451.240541,90.706018Z" />
</a><a xlink:title="409340..409347;m6A;329;222;CAGTGATC"><path fill="blue" stroke="blue" d="M514.213026,186.670344L514.519897,187.505892L514.823849,188.342505L515.124879,189.180174L515.422983,190.018890L505.563914,192.143006Z" />
</a><a xlink:title="415656..415663;m6A;291;222;CAGGGATC"><path fill="blue" stroke="blue" d="M520.563144,189.567323L520.859864,190.425019L521.153588,191.283746L521.444312,192.143492L521.732034,193.004248L511.826234,194.916700Z" />
</a><a xlink:title="575284..575291;m6A;270;152;CAGGGATC"><path fill="blue" stroke="blue" d="M537.287260,312.820540L537.153644,313.735863L537.016833,314.650714L536.876830,315.565082L536.733636,316.478955L527.062449,313.594324Z" />
</a><a xlink:title="768537..768544;m6A;244;145;CAGGGATC"><path fill="blue" stroke="blue" d="M466.388048,443.509985L465.798673,444.177027L465.206972,444.842008L464.612954,445.504919L464.016626,446.165753L457.462874,438.500152Z" />
</a><a xlink:title="877948..877955;m6A;288;190;CAGTGATC"><path fill="blue" stroke="blue" d="M404.469267,500.472191L403.681433,500.922750L402.892032,501.370555L402.101072,501.815603L401.308563,502.257886L397.593135,492.878231Z" />
</a><a xlink:title="987907..987914;m6A;277;143;CAGTGATC"><path fill="blue" stroke="blue" d="M325.558777,535.132293L324.650438,535.307192L323.741494,535.478918L322.831956,535.647471L321.921835,535.812847L321.464781,525.730980Z" />
</a><a xlink:title="1022319..1022326;m6A;317;171;CAGTGATC"><path fill="blue" stroke="blue" d="M294.979732,499.111156L294.197316,499.179533L293.414667,499.245178L292.631793,499.308091L291.848704,499.368271L293.824409,509.244833Z" />
</a><a xlink:title="1121241..1121248;m6A;249;162;CAGTGATC"><path fill="blue" stroke="blue" d="M229.717403,490.289309L228.966179,490.129931L228.215516,489.967933L227.465423,489.803315L226.715909,489.636079L225.696893,499.653519Z" />
</a><a xlink:title="1161693..1161700;m6A;188;139;CAGGGATC"><path fill="blue" stroke="blue" d="M205.646579,478.507010L204.936630,478.263681L204.227534,478.017876L203.519300,477.769597L202.811938,477.518848L200.565197,487.331016Z" />
</a><a xlink:title="1173184..1173191;m6A;235;129;CAGGGATC"><path fill="blue" stroke="blue" d="M195.136768,485.349386L194.402998,485.069330L193.670211,484.786714L192.938414,484.501542L192.207617,484.213817L189.673373,493.962021Z" />
</a><a xlink:title="1234891..1234898;m6A;294;179;CAGTGATC"><path fill="blue" stroke="blue" d="M160.451134,462.825870L159.796198,462.424875L159.142664,462.021597L158.490543,461.616040L157.839841,461.208209L153.535454,470.310942Z" />
</a><a xlink:title="1363003..1363010;m6A;239;176;CAGGGATC"><path fill="blue" stroke="blue" d="M102.487049,403.313217L102.040203,402.710253L101.595465,402.105733L101.152840,401.499663L100.712333,400.892053L93.298322,407.700791Z" />
</a><a xlink:title="1374652..1374659;m6A;207;144;CAGGGATC"><path fill="blue" stroke="blue" d="M89.889759,402.903082L89.444421,402.256148L89.001345,401.607663L88.560535,400.957635L88.121996,400.306072L80.504307,406.895510Z" />
</a><a xlink:title="1375671..1375678;m6A;219;173;CAGTGATC"><path fill="blue" stroke="blue" d="M93.622545,399.507907L93.189037,398.874023L92.757743,398.238630L92.328670,397.601735L91.901823,396.963346L84.249490,403.507755Z" />
</a><a xlink:title="1377539..1377546;m6A;264;170;CAGTGATC"><path fill="blue" stroke="blue" d="M97.066889,395.684747L96.646705,395.062909L96.228694,394.439609L95.812861,393.814853L95.399211,393.188649L87.695940,399.668316Z" />
</a><a xlink:title="1444605..1444612;m6A;207;146;CAGTGATC"><path fill="blue" stroke="blue" d="M67.338952,361.613447L67.037880,360.888047L66.739342,360.161600L66.443341,359.434116L66.149881,358.705603L57.328447,363.566896Z" />
</a><a xlink:title="1458831..1458838;m6A;244;165;CGGGGATC"><path fill="blue" stroke="blue" d="M68.531162,350.964590L68.267254,350.243417L68.005865,349.521326L67.746998,348.798328L67.490656,348.074430L58.461433,352.530955Z" />
</a><a xlink:title="1481167..1481174;m6A;317;217;CGGTGATC"><path fill="blue" stroke="blue" d="M68.712998,335.586076L68.502769,334.865631L68.295057,334.144456L68.089864,333.422561L67.887192,332.699954L58.573207,336.517828Z" />
</a><a xlink:title="1497730..1497737;m6A;250;150;CAGGGATC"><path fill="blue" stroke="blue" d="M56.240259,327.622960L56.057904,326.859025L55.878216,326.094458L55.701198,325.329269L55.526852,324.563467L46.046705,327.965920Z" />
</a><a xlink:title="1501624..1501631;m6A;197;136;CGGTGATC"><path fill="blue" stroke="blue" d="M60.516153,323.955890L60.346571,323.206903L60.179606,322.457329L60.015257,321.707177L59.853529,320.956456L50.328815,324.222544Z" />
</a><a xlink:title="1617225..1617232;m6A;294;185;CAGGGATC"><path fill="blue" stroke="blue" d="M61.591994,248.884428L61.684455,248.139654L61.779514,247.395208L61.877172,246.651098L61.977427,245.907333L51.913028,245.721972Z" />
</a><a xlink:title="1626481..1626488;m6A;281;173;CGGGGATC"><path fill="blue" stroke="blue" d="M52.509258,241.490752L52.627582,240.714319L52.748617,239.938303L52.872359,239.162715L52.998808,238.387563L42.935026,237.975036Z" />
</a><a xlink:title="1674491..1674498;m6A;213;159;CAGGGATC"><path fill="blue" stroke="blue" d="M64.392225,211.404678L64.615497,210.669907L64.841333,209.935920L65.069729,209.202725L65.300683,208.470333L55.407686,206.595207Z" />
</a><a xlink:title="181100..181107;m6A;315;210;CAGGGATC"><path fill="blue" stroke="blue" d="M384.356286,89.888675L385.001779,90.271527L385.645931,90.656630L386.288736,91.043980L386.930184,91.433571L391.128685,82.284851Z" />
</a><a xlink:title="1860868..1860875;m6A;230;178;CAGTGATC"><path fill="blue" stroke="blue" d="M126.735793,105.758383L127.327460,105.241875L127.920926,104.727436L128.516184,104.215072L129.113228,103.704788L121.694612,96.892004Z" />
</a><a xlink:title="1900687..1900694;m6A;275;182;CAGGGATC"><path fill="blue" stroke="blue" d="M150.745184,93.449069L151.379672,93.016445L152.015666,92.586038L152.653159,92.157854L153.292143,91.731897L146.758413,84.070444Z" />
</a><a xlink:title="1995511..1995518;m6A;232;181;CGGGGATC"><path fill="blue" stroke="blue" d="M208.138407,70.660754L208.852092,70.428609L209.566582,70.198956L210.281870,69.971798L210.997946,69.747139L206.897234,60.554172Z" />
</a><a xlink:title="344686..344693;m6A;240;116;CAGTGATC"><path fill="blue" stroke="blue" d="M467.131203,157.907725L467.538761,158.579102L467.943973,159.251897L468.346833,159.926102L468.747338,160.601710L476.729890,154.459336Z" />
</a><a xlink:title="345493..345500;m6A;142;99;CAGTGATC"><path fill="blue" stroke="blue" d="M463.137750,160.964098L463.534663,161.621516L463.929280,162.280315L464.321594,162.940488L464.711601,163.602027L472.722289,157.501505Z" />
</a><a xlink:title="409344..409351;m6A;287;209;CAGTGATC"><path fill="blue" stroke="blue" d="M476.690306,200.528392L476.949032,201.232877L477.205297,201.938260L477.459098,202.644533L477.710432,203.351688L486.743282,198.909378Z" />
</a><a xlink:title="634613..634620;m6A;265;172;CAGTGATC"><path fill="blue" stroke="blue" d="M488.516158,345.963725L488.267148,346.708603L488.015539,347.452607L487.761334,348.195729L487.504537,348.937959L497.350522,351.060802Z" />
</a><a xlink:title="695439..695446;m6A;226;126;CGGTGATC"><path fill="blue" stroke="blue" d="M467.748841,381.056043L467.377462,381.728216L467.003739,382.399088L466.627677,383.068652L466.249279,383.736899L475.534966,387.630935Z" />
</a><a xlink:title="735252..735259;m6A;312;189;CGGTGATC"><path fill="blue" stroke="blue" d="M449.703412,400.314476L449.264918,400.923541L448.824302,401.531072L448.381567,402.137061L447.936719,402.741501L456.677833,407.733436Z" />
</a><a xlink:title="1122551..1122558;m6A;287;179;CGGGGATC"><path fill="blue" stroke="blue" d="M221.534847,524.332063L220.664842,524.143915L219.795498,523.952732L218.926827,523.758516L218.058840,523.561269L221.543117,514.096971Z" />
</a><a xlink:title="1347577..1347584;m6A;174;152;CAGTGATC"><path fill="blue" stroke="blue" d="M73.767592,439.637536L73.194126,438.934100L72.623119,438.228668L72.054577,437.521246L71.488509,436.811844L80.133290,431.610872Z" />
</a><a xlink:title="138836..138843;m6A;256;193;CAGTGATC"><path fill="blue" stroke="blue" d="M379.910487,31.650889L380.759295,32.018578L381.606814,32.389227L382.453034,32.762832L383.297945,33.139389L377.991099,41.723697Z" />
</a><a xlink:title="1448154..1448161;m6A;217;133;CAGTGATC"><path fill="blue" stroke="blue" d="M38.620889,370.655192L38.288430,369.829492L37.958855,369.002637L37.632169,368.174636L37.308375,367.345500L47.097347,364.918746Z" />
</a><a xlink:title="146139..146146;m6A;259;156;CAGTGATC"><path fill="blue" stroke="blue" d="M383.127467,38.550321L383.952172,38.929196L384.775549,39.310949L385.597588,39.695573L386.418280,40.083064L380.948671,48.560429Z" />
</a><a xlink:title="1672541..1672548;m6A;217;181;CAGTGATC"><path fill="blue" stroke="blue" d="M20.870372,199.879216L21.134141,198.992596L21.401003,198.106902L21.670955,197.222144L21.943994,196.338335L31.100250,200.582852Z" />
</a><a xlink:title="172390..172397;m6A;279;156;CGGGGATC"><path fill="blue" stroke="blue" d="M398.931723,52.141462L399.708889,52.575422L400.484536,53.012092L401.258654,53.451467L402.031234,53.893542L395.935531,61.928187Z" />
</a><a xlink:title="1988929..1988936;m6A;243;176;CGGTGATC"><path fill="blue" stroke="blue" d="M189.289599,29.533654L190.146958,29.235964L191.005352,28.941269L191.864769,28.649572L192.725199,28.360877L194.648855,38.264507Z" />
</a><a xlink:title="254814..254821;m6A;247;156;CAGTGATC"><path fill="blue" stroke="blue" d="M456.473741,81.887905L457.146723,82.522543L457.817485,83.159526L458.486019,83.798847L459.152318,84.440498L451.240541,90.706018Z" />
</a><a xlink:title="409340..409347;m6A;287;209;CAGTGATC"><path fill="blue" stroke="blue" d="M514.213026,186.670344L514.519897,187.505892L514.823849,188.342505L515.124879,189.180174L515.422983,190.018890L505.563914,192.143006Z" />
</a><a xlink:title="415656..415663;m6A;334;224;CAGGGATC"><path fill="blue" stroke="blue" d="M520.563144,189.567323L520.859864,190.425019L521.153588,191.283746L521.444312,192.143492L521.732034,193.004248L511.826234,194.916700Z" />
</a><a xlink:title="575284..575291;m6A;241;149;CAGGGATC"><path fill="blue" stroke="blue" d="M537.287260,312.820540L537.153644,313.735863L537.016833,314.650714L536.876830,315.565082L536.733636,316.478955L527.062449,313.594324Z" />
</a><a xlink:title="768537..768544;m6A;301;156;CAGGGATC"><path fill="blue" stroke="blue" d="M466.388048,443.509985L465.798673,444.177027L465.206972,444.842008L464.612954,445.504919L464.016626,446.165753L457.462874,438.500152Z" />
</a><a xlink:title="877948..877955;m6A;278;191;CAGTGATC"><path fill="blue" stroke="blue" d="M404.469267,500.472191L403.681433,500.922750L402.892032,501.370555L402.101072,501.815603L401.308563,502.257886L397.593135,492.878231Z" />
</a><a xlink:title="987907..987914;m6A;255;141;CAGTGATC"><path fill="blue" stroke="blue" d="M325.558777,535.132293L324.650438,535.307192L323.741494,535.478918L322.831956,535.647471L321.921835,535.812847L321.464781,525.730980Z" />
</a><a xlink:title="1022319..1022326;m6A;269;173;CAGTGATC"><path fill="blue" stroke="blue" d="M294.979732,499.111156L294.197316,499.179533L293.414667,499.245178L292.631793,499.308091L291.848704,499.368271L293.824409,509.244833Z" />
</a><a xlink:title="1121241..1121248;m6A;242;156;CAGTGATC"><path fill="blue" stroke="blue" d="M229.717403,490.289309L228.966179,490.129931L228.215516,489.967933L227.465423,489.803315L226.715909,489.636079L225.696893,499.653519Z" />
</a><a xlink:title="1161693..1161700;m6A;209;138;CAGGGATC"><path fill="blue" stroke="blue" d="M205.646579,478.507010L204.936630,478.263681L204.227534,478.017876L203.519300,477.769597L202.811938,477.518848L200.565197,487.331016Z" />
</a><a xlink:title="1173184..1173191;m6A;172;124;CAGGGATC"><path fill="blue" stroke="blue" d="M195.136768,485.349386L194.402998,485.069330L193.670211,484.786714L192.938414,484.501542L192.207617,484.213817L189.673373,493.962021Z" />
</a><a xlink:title="1234891..1234898;m6A;258;176;CAGTGATC"><path fill="blue" stroke="blue" d="M160.451134,462.825870L159.796198,462.424875L159.142664,462.021597L158.490543,461.616040L157.839841,461.208209L153.535454,470.310942Z" />
</a><a xlink:title="1363003..1363010;m6A;274;179;CAGGGATC"><path fill="blue" stroke="blue" d="M102.487049,403.313217L102.040203,402.710253L101.595465,402.105733L101.152840,401.499663L100.712333,400.892053L93.298322,407.700791Z" />
</a><a xlink:title="1374652..1374659;m6A;248;146;CAGGGATC"><path fill="blue" stroke="blue" d="M89.889759,402.903082L89.444421,402.256148L89.001345,401.607663L88.560535,400.957635L88.121996,400.306072L80.504307,406.895510Z" />
</a><a xlink:title="1375671..1375678;m6A;294;183;CAGTGATC"><path fill="blue" stroke="blue" d="M93.622545,399.507907L93.189037,398.874023L92.757743,398.238630L92.328670,397.601735L91.901823,396.963346L84.249490,403.507755Z" />
</a><a xlink:title="1377539..1377546;m6A;244;182;CAGTGATC"><path fill="blue" stroke="blue" d="M97.066889,395.684747L96.646705,395.062909L96.228694,394.439609L95.812861,393.814853L95.399211,393.188649L87.695940,399.668316Z" />
</a><a xlink:title="1444605..1444612;m6A;186;141;CAGTGATC"><path fill="blue" stroke="blue" d="M67.338952,361.613447L67.037880,360.888047L66.739342,360.161600L66.443341,359.434116L66.149881,358.705603L57.328447,363.566896Z" />
</a><a xlink:title="1458831..1458838;m6A;235;163;CGGGGATC"><path fill="blue" stroke="blue" d="M68.531162,350.964590L68.267254,350.243417L68.005865,349.521326L67.746998,348.798328L67.490656,348.074430L58.461433,352.530955Z" />
</a><a xlink:title="1481167..1481174;m6A;295;213;CGGTGATC"><path fill="blue" stroke="blue" d="M68.712998,335.586076L68.502769,334.865631L68.295057,334.144456L68.089864,333.422561L67.887192,332.699954L58.573207,336.517828Z" />
</a><a xlink:title="1497730..1497737;m6A;259;148;CAGGGATC"><path fill="blue" stroke="blue" d="M56.240259,327.622960L56.057904,326.859025L55.878216,326.094458L55.701198,325.329269L55.526852,324.563467L46.046705,327.965920Z" />
</a><a xlink:title="1501624..1501631;m6A;187;139;CGGTGATC"><path fill="blue" stroke="blue" d="M60.516153,323.955890L60.346571,323.206903L60.179606,322.457329L60.015257,321.707177L59.853529,320.956456L50.328815,324.222544Z" />
</a><a xlink:title="1617225..1617232;m6A;349;188;CAGGGATC"><path fill="blue" stroke="blue" d="M61.591994,248.884428L61.684455,248.139654L61.779514,247.395208L61.877172,246.651098L61.977427,245.907333L51.913028,245.721972Z" />
</a><a xlink:title="1626481..1626488;m6A;291;176;CGGGGATC"><path fill="blue" stroke="blue" d="M52.509258,241.490752L52.627582,240.714319L52.748617,239.938303L52.872359,239.162715L52.998808,238.387563L42.935026,237.975036Z" />
</a><a xlink:title="1674491..1674498;m6A;222;150;CAGGGATC"><path fill="blue" stroke="blue" d="M64.392225,211.404678L64.615497,210.669907L64.841333,209.935920L65.069729,209.202725L65.300683,208.470333L55.407686,206.595207Z" />
</a><a xlink:title="181100..181107;m6A;301;218;CAGGGATC"><path fill="blue" stroke="blue" d="M384.356286,89.888675L385.001779,90.271527L385.645931,90.656630L386.288736,91.043980L386.930184,91.433571L391.128685,82.284851Z" />
</a><a xlink:title="1860868..1860875;m6A;224;184;CAGTGATC"><path fill="blue" stroke="blue" d="M126.735793,105.758383L127.327460,105.241875L127.920926,104.727436L128.516184,104.215072L129.113228,103.704788L121.694612,96.892004Z" />
</a><a xlink:title="1900687..1900694;m6A;252;172;CAGGGATC"><path fill="blue" stroke="blue" d="M150.745184,93.449069L151.379672,93.016445L152.015666,92.586038L152.653159,92.157854L153.292143,91.731897L146.758413,84.070444Z" />
</a><a xlink:title="1995511..1995518;m6A;276;179;CGGGGATC"><path fill="blue" stroke="blue" d="M208.138407,70.660754L208.852092,70.428609L209.566582,70.198956L210.281870,69.971798L210.997946,69.747139L206.897234,60.554172Z" />
</a><a xlink:title="344686..344693;m6A;162;112;CAGTGATC"><path fill="blue" stroke="blue" d="M467.131203,157.907725L467.538761,158.579102L467.943973,159.251897L468.346833,159.926102L468.747338,160.601710L476.729890,154.459336Z" />
</a><a xlink:title="345493..345500;m6A;134;95;CAGTGATC"><path fill="blue" stroke="blue" d="M463.137750,160.964098L463.534663,161.621516L463.929280,162.280315L464.321594,162.940488L464.711601,163.602027L472.722289,157.501505Z" />
</a><a xlink:title="409344..409351;m6A;329;222;CAGTGATC"><path fill="blue" stroke="blue" d="M476.690306,200.528392L476.949032,201.232877L477.205297,201.938260L477.459098,202.644533L477.710432,203.351688L486.743282,198.909378Z" />
</a><a xlink:title="634613..634620;m6A;285;178;CAGTGATC"><path fill="blue" stroke="blue" d="M488.516158,345.963725L488.267148,346.708603L488.015539,347.452607L487.761334,348.195729L487.504537,348.937959L497.350522,351.060802Z" />
</a><a xlink:title="695439..695446;m6A;184;127;CGGTGATC"><path fill="blue" stroke="blue" d="M467.748841,381.056043L467.377462,381.728216L467.003739,382.399088L466.627677,383.068652L466.249279,383.736899L475.534966,387.630935Z" />
</a><a xlink:title="735252..735259;m6A;231;186;CGGTGATC"><path fill="blue" stroke="blue" d="M449.703412,400.314476L449.264918,400.923541L448.824302,401.531072L448.381567,402.137061L447.936719,402.741501L456.677833,407.733436Z" />
</a></g>
<text x="275" y="265" style="text-anchor:middle" font-size="18" font-weight="bold">89/126</text>
<text x="275" y="295" style="text-anchor:middle" font-size="25" font-weight="bold"><tspan fill='red' text-decoration='underline'>C</tspan>RGKG<tspan fill='red' text-decoration='underline'>A</tspan><tspan fill='blue' font-style='italic'>T</tspan>C</text>
<line x1="50" y1="525" x2="100" y2="525" fill="none" stroke="green" stroke-width="1.0" stroke-linejoin="round" stroke-miterlimit="10" />
<text x="125" y="530" style="text-anchor:start;fill:black">Contigs</text>
</svg>