<?xml version="1.0" encoding="UTF-8" standalone="no"?>
<svg
   viewbox="0 0 550 625"
   version="1.1"
   id="svg60"
   sodipodi:docname="597_2.dnamod_CRGKGATC_1,6,7_0 - Copy.svg"
   inkscape:version="1.3.2 (091e20e, 2023-11-25, custom)"
   xmlns:inkscape="http://www.inkscape.org/namespaces/inkscape"
   xmlns:sodipodi="http://sodipodi.sourceforge.net/DTD/sodipodi-0.dtd"
   xmlns:xlink="http://www.w3.org/1999/xlink"
   xmlns="http://www.w3.org/2000/svg"
   xmlns:svg="http://www.w3.org/2000/svg">
  <defs
     id="defs60" />
  <sodipodi:namedview
     id="namedview60"
     pagecolor="#ffffff"
     bordercolor="#000000"
     borderopacity="0.25"
     inkscape:showpageshadow="2"
     inkscape:pageopacity="0.0"
     inkscape:pagecheckerboard="0"
     inkscape:deskcolor="#d1d1d1"
     showgrid="true"
     inkscape:zoom="1.4472119"
     inkscape:cx="406.98947"
     inkscape:cy="185.52916"
     inkscape:window-width="1920"
     inkscape:window-height="1017"
     inkscape:window-x="-8"
     inkscape:window-y="-8"
     inkscape:window-maximized="1"
     inkscape:current-layer="svg60">
    <inkscape:grid
       id="grid60"
       units="px"
       originx="0"
       originy="0"
       spacingx="1"
       spacingy="1"
       empcolor="#0099e5"
       empopacity="0.30196078"
       color="#0099e5"
       opacity="0.14901961"
       empspacing="5"
       dotted="false"
       gridanglex="30"
       gridanglez="30"
       visible="true" />
  </sodipodi:namedview>
  <circle
     cx="275"
     cy="275"
     r="240"
     fill="none"
     stroke="black"
     stroke-width="1.0"
     id="circle1" />
  <line
     x1="275"
     y1="15"
     x2="275"
     y2="55"
     fill="none"
     stroke="grey"
     stroke-width="1.0"
     stroke-linejoin="round"
     stroke-miterlimit="10"
     id="line1" />
  <line
     x1="495"
     y1="275"
     x2="535"
     y2="275"
     fill="none"
     stroke="grey"
     stroke-width="1.0"
     stroke-linejoin="round"
     stroke-miterlimit="10"
     id="line2" />
  <line
     x1="275"
     y1="495"
     x2="275"
     y2="535"
     fill="none"
     stroke="grey"
     stroke-width="1.0"
     stroke-linejoin="round"
     stroke-miterlimit="10"
     id="line3" />
  <line
     x1="15"
     y1="275"
     x2="55"
     y2="275"
     fill="none"
     stroke="grey"
     stroke-width="1.0"
     stroke-linejoin="round"
     stroke-miterlimit="10"
     id="line4" />
  <text
     x="249.05664"
     y="2.90025"
     style="text-anchor:start"
     id="text5">2,099,244</text>
  <text
     x="544.10028"
     y="279.11719"
     style="text-anchor:start"
     id="text6">0.52 Mbp</text>
  <text
     x="248.37109"
     y="554.20001"
     style="text-anchor:start"
     id="text7">1.04 Mbp</text>
  <text
     x="0.50020367"
     y="279.11719"
     style="text-anchor:end"
     id="text8">1.57 Mbp</text>
  <circle
     cx="345.765953"
     cy="45.670150"
     r="2.500000"
     fill="grey"
     stroke="black"
     stroke-width="1.0"
     id="circle8" />
  <circle
     cx="410.239544"
     cy="76.731834"
     r="2.500000"
     fill="grey"
     stroke="black"
     stroke-width="1.0"
     id="circle9" />
  <circle
     cx="462.687917"
     cy="125.423110"
     r="2.500000"
     fill="grey"
     stroke="black"
     stroke-width="1.0"
     id="circle10" />
  <circle
     cx="498.447470"
     cy="187.414452"
     r="2.500000"
     fill="grey"
     stroke="black"
     stroke-width="1.0"
     id="circle11" />
  <circle
     cx="514.338539"
     cy="257.193719"
     r="2.500000"
     fill="grey"
     stroke="black"
     stroke-width="1.0"
     id="circle12" />
  <circle
     cx="508.948124"
     cy="328.556284"
     r="2.500000"
     fill="grey"
     stroke="black"
     stroke-width="1.0"
     id="circle13" />
  <circle
     cx="482.755527"
     cy="395.156735"
     r="2.500000"
     fill="grey"
     stroke="black"
     stroke-width="1.0"
     id="circle14" />
  <circle
     cx="438.089742"
     cy="451.073099"
     r="2.500000"
     fill="grey"
     stroke="black"
     stroke-width="1.0"
     id="circle15" />
  <circle
     cx="378.922356"
     cy="491.333409"
     r="2.500000"
     fill="grey"
     stroke="black"
     stroke-width="1.0"
     id="circle16" />
  <circle
     cx="310.514410"
     cy="512.357803"
     r="3.000000"
     fill="black"
     stroke="black"
     stroke-width="1.0"
     id="circle17" />
  <circle
     cx="238.948597"
     cy="512.276835"
     r="2.500000"
     fill="grey"
     stroke="black"
     stroke-width="1.0"
     id="circle18" />
  <circle
     cx="170.588400"
     cy="491.097704"
     r="2.500000"
     fill="grey"
     stroke="black"
     stroke-width="1.0"
     id="circle19" />
  <circle
     cx="111.512265"
     cy="450.703615"
     r="2.500000"
     fill="grey"
     stroke="black"
     stroke-width="1.0"
     id="circle20" />
  <circle
     cx="66.973119"
     cy="394.686326"
     r="2.500000"
     fill="grey"
     stroke="black"
     stroke-width="1.0"
     id="circle21" />
  <circle
     cx="40.931290"
     cy="328.026778"
     r="2.500000"
     fill="grey"
     stroke="black"
     stroke-width="1.0"
     id="circle22" />
  <circle
     cx="35.702365"
     cy="256.652199"
     r="2.500000"
     fill="grey"
     stroke="black"
     stroke-width="1.0"
     id="circle23" />
  <circle
     cx="51.751287"
     cy="186.909069"
     r="2.500000"
     fill="grey"
     stroke="black"
     stroke-width="1.0"
     id="circle24" />
  <circle
     cx="87.651020"
     cy="124.998800"
     r="2.500000"
     fill="grey"
     stroke="black"
     stroke-width="1.0"
     id="circle25" />
  <circle
     cx="140.209435"
     cy="76.426327"
     r="2.500000"
     fill="grey"
     stroke="black"
     stroke-width="1.0"
     id="circle26" />
  <circle
     cx="204.753147"
     cy="45.510611"
     r="3.000000"
     fill="black"
     stroke="black"
     stroke-width="1.0"
     id="circle27" />
  <circle
     cx="275"
     cy="275"
     r="140"
     fill="white"
     stroke="grey"
     stroke-width="0.5"
     id="circle28" />
  <circle
     cx="275"
     cy="275"
     r="120"
     fill="none"
     stroke="black"
     stroke-width="0.5"
     id="circle29" />
  <g
     style="fill:none;stroke-linejoin:round;stroke-miterlimit:10"
     id="g30">
    <path
       style="stroke:black;stroke-width:1.0"
       d="M272.782207,133.711850L272.002123,136.754723L271.192301,137.413790L270.378110,137.716669L269.500258,136.331242L268.660135,136.144658L267.820448,136.018652L267.092560,137.866681L266.305343,138.443184L265.254408,135.144697L264.008516,129.804329L263.116930,129.595872L262.373009,131.108525L261.851682,134.809679L261.641862,141.192905L260.782622,140.722798L259.441404,136.006977L258.251575,133.068101L257.012335,130.028333L255.693092,126.667883L255.278023,130.254071L254.490209,130.924733L254.048303,133.880178L253.691955,137.165070L252.827571,137.048259L252.217064,138.471206L251.182338,137.350965L249.863901,134.734443L248.655078,132.893619L247.862381,133.353966L247.058079,133.736951L246.090797,133.307970L245.180257,133.184545L244.484710,134.071455L244.614230,138.621833L244.133368,140.268290L243.518355,141.266635L242.672689,141.268483L240.842736,137.312469L239.950640,137.250205L239.344012,138.295717L238.547839,138.592115L237.841919,139.214656L237.217063,140.108229L236.440872,140.443630L235.354868,139.717219L235.271148,142.378424L234.778798,143.601388L234.042689,144.003583L232.752394,142.663383L230.239753,137.636456L228.620756,135.508188L228.054224,136.577500L227.435270,137.464803L227.453294,140.135955L225.313085,136.710882L221.401857,128.585363L217.731351,121.412971L217.572250,123.758131L218.911471,129.908278L220.973110,137.691089L223.363293,146.036863L221.932026,144.727588L220.812888,144.226409L219.761367,143.913174L218.922959,144.118523L217.874276,143.845345L216.977748,143.935654L215.772553,143.348035L214.650642,142.972290L214.703715,145.149885L214.223737,146.141240L214.677435,149.062685L213.560158,148.676641L211.661287,146.730364L210.583395,146.490998L209.185477,145.641020L206.067393,141.495850L202.484877,136.596172L196.898575,128.080193L192.025373,121.142294L190.759236,121.008135L190.175859,122.122403L194.234319,131.468941L197.768187,139.651284L200.951813,147.016508L203.560136,153.212410L202.108293,152.424602L200.902613,152.078072L200.298461,152.737161L199.143817,152.501647L199.194454,154.204933L198.472720,154.660877L197.001428,153.953634L196.141559,154.213375L195.465904,154.757098L192.907457,152.489303L191.208319,151.557963L190.093170,151.512418L189.228483,151.840535L188.652884,152.583171L188.438321,153.825542L189.928802,157.406682L189.932288,158.881580L191.042648,161.824605L192.452059,165.105447L192.871905,167.016573L191.227057,166.211629L190.662735,166.824586L189.035723,166.088542L187.136808,165.042636L186.742214,165.894511L187.744969,168.444990L187.675952,169.653563L185.457818,168.284324L185.090340,169.139825L183.407977,168.458218L181.987781,168.107331L182.047227,169.458164L181.712847,170.348247L180.027436,169.732957L179.398998,170.303359L179.283018,171.428317L178.607818,171.942284L176.980546,171.451975L175.997342,171.659477L175.051795,171.914939L174.339232,172.415952L174.392454,173.690496L174.122556,174.627631L173.880068,175.583830L173.625476,176.519966L172.636986,176.743855L171.909566,177.224563L171.143702,177.672475L169.910728,177.691985L170.928689,179.785337L170.958175,180.950220L170.024131,181.241643L171.360109,183.544242L172.845449,185.936954L174.418788,188.362928L175.784735,190.568782L173.643922,189.787800L170.464568,188.177575L168.271701,187.430561L165.030384,185.867184L165.756463,187.534023L165.888463,188.706467L165.220625,189.241464L166.798489,191.512212L166.013447,191.942531L166.472540,193.314720L165.272121,193.435556L163.666226,193.271977L163.134008,193.907290L161.521216,193.769965L161.876295,195.043933L161.354138,195.690743L160.927169,196.403980L162.043518,198.166225L161.009080,198.456641L161.386447,199.692862L163.006475,201.727827L161.846468,201.932418L161.457955,202.640934L161.097383,203.366269L157.578720,202.130614L157.855306,203.269982L157.451797,203.986872L156.837919,204.578033L157.663685,206.018672L155.282395,205.579689L155.061887,206.407896L154.556656,207.072505L153.108308,207.214188L154.653260,209.013451L154.773575,210.012428L154.141558,210.602657L151.594081,210.190730L148.272664,209.411231L146.867747,209.653589L147.074567,210.721092L149.579878,212.917470L152.106797,215.081499L152.125929,215.998583L150.896019,216.319594L150.421062,217.004928L149.242798,217.369823L148.292360,217.849549L147.393960,218.361136L145.886215,218.614633L144.683243,219.015742L144.145750,219.710343L144.509721,220.782409L143.287480,221.196858L143.715315,222.286422L143.712186,223.195599L144.906605,224.564800L146.865475,226.204506L146.341514,226.884837L148.037548,228.383497L147.473314,229.040746L146.257699,229.471552L148.165669,230.998693L144.801449,230.702969L142.219770,230.709668L143.039531,231.859194L139.688550,231.658507L140.438683,232.785239L141.994023,234.146108L139.171481,234.167319L139.195977,235.059510L140.561057,236.333840L138.272944,236.560412L138.714930,237.563508L138.037178,238.257641L136.073024,238.620794L136.207618,239.542461L136.806474,240.575353L137.196744,241.547375L138.999369,242.845829L141.002021,244.165090L138.244666,244.391392L137.086744,244.998002L133.430862,245.089107L131.948188,245.669281L133.791275,246.926941L133.216608,247.693937L134.857986,248.879084L139.597540,250.600256L141.697957,251.801754L146.574668,253.441677L147.983524,254.459165L146.188538,254.959378L147.691767,255.973066L146.755248,256.617245L148.243655,257.604312L144.974470,257.948028L141.043458,258.247546L138.794085,258.793732L135.525241,259.250936L136.565906,260.207140L138.276285,261.217182L136.011572,261.828844L134.966801,262.575154L134.562734,263.386158L136.960716,264.416037L138.728607,265.371756L138.340774,266.166162L137.763469,266.953484L133.445894,267.550322L134.069779,268.428864L135.670507,269.339137L134.667477,270.139627L134.502065,270.975783L133.091960,271.785437L132.297590,272.622012L131.258192,273.465314L132.084905,274.329703L131.583454,275.185868L131.753798,276.043157L133.206927,276.881461L133.692864,277.721124L134.933518,278.536108L134.346382,279.393577L133.542446,280.266469L132.549687,281.157540L132.061960,282.036101L133.909448,282.792052L135.455815,283.544817L137.089231,284.273759L137.202623,285.095082L136.739395,285.961483L137.111939,286.762957L136.686896,287.633640L136.847942,288.453293L137.621710,289.208602L137.681613,290.033731L135.594125,291.107341L135.058827,292.018680L133.565075,293.060147L131.803509,294.156933L132.718539,294.902185L133.609845,295.641186L134.587257,296.357701L136.226625,296.959064L138.087387,297.505529L138.854357,298.217298L139.652274,298.915862L137.967114,300.060444L136.782167,301.133157L137.322759,301.885541L138.684306,302.467783L141.081338,302.820001L142.173807,303.423526L140.962828,304.522857L140.789770,305.404474L140.811855,306.245123L140.866216,307.080134L140.763911,307.955349L138.916410,309.273911L138.586106,310.226815L138.235499,311.192002L139.634257,311.690299L141.837030,311.950343L142.220933,312.701284L142.502347,313.479944L142.974725,314.201240L141.430831,315.531271L143.559632,315.746137L143.991275,316.473537L143.052456,317.641414L142.096588,318.830703L138.412198,320.954158L139.031295,321.653766L140.859969,321.925685L141.431082,322.625200L143.728882,322.693515L144.329342,323.362762L147.298424,323.134965L148.211256,323.659668L145.606986,325.549858L145.860276,326.344037L142.899619,328.439118L143.453068,329.133789L144.548195,329.598537L142.423668,331.422718L140.851763,333.042612L140.311660,334.236001L142.266339,334.327096L143.913727,334.534777L145.710132,334.655056L149.616017,333.765749L151.550160,333.763109L151.128845,334.875792L152.212646,335.261315L150.139022,337.209213L151.331661,337.541843L152.968607,337.634124L152.557365,338.774113L150.632762,340.725956L147.013556,343.621892L148.988352,343.537385L149.984611,343.968444L152.969281,343.277850L156.182709,342.416963L155.625315,343.681112L155.030845,344.982322L154.041249,346.533467L154.400149,347.299105L155.357350,347.702382L155.392616,348.664910L155.717904,349.453114L155.602307,350.522192L155.962985,351.295523L157.330386,351.416692L158.996609,351.325759L159.501809,351.987987L158.698589,353.532962L155.846306,356.501703L155.445827,357.830467L154.192975,359.773245L155.676211,359.802949L159.094339,358.422445L159.730478,359.016605L161.241201,358.962811L160.900337,360.274186L159.685112,362.263108L159.944949,363.154564L161.747704,362.854208L163.542694,362.535463L166.699555,361.109296L167.931037,361.181277L166.187756,363.663053L165.670442,365.178911L165.082125,366.775322L165.824412,367.270283L166.969729,367.416566L167.608878,367.988858L168.439016,368.392035L167.960967,369.949912L171.197634,368.195058L172.394670,368.235657L173.077302,368.735372L174.270559,368.757120L171.234569,372.748769L170.012120,375.093253L169.333821,376.954335L170.502496,377.041643L172.676041,376.122830L173.813493,376.203166L175.221532,375.996878L175.711476,376.711616L175.724298,377.923928L176.303861,378.556575L177.573012,378.457962L178.799578,378.388562L180.379002,377.919678L181.818590,377.579555L181.840585,378.797034L181.062924,380.932365L180.582116,382.767271L181.301633,383.246526L182.565112,383.087705L183.195865,383.660312L184.399752,383.546824L184.998133,384.151516L186.477662,383.676079L188.505487,382.494341L190.844339,380.879116L190.484748,382.648204L189.683752,385.018021L189.854030,386.166282L187.588292,390.550783L188.979827,390.137340L189.934464,390.292568L190.577068,390.867065L192.002216,390.355692L193.434278,389.808801L193.644435,390.977224L194.782983,390.822749L195.571819,391.163281L194.916529,393.639703L195.859200,393.770225L195.670990,395.611105L197.710293,394.056821L198.319467,394.681074L198.829432,395.466642L199.875418,395.401983L199.665470,397.363401L201.538572,395.936630L203.034882,395.087559L203.896387,395.277079L205.709069,393.828859L205.382986,396.047473L205.656596,397.259382L205.467661,399.320849L205.381437,401.242954L207.173303,399.753914L208.734860,398.639744L210.228719,397.609647L211.002317,397.921263L211.282802,399.191890L210.661396,402.273222L211.300587,402.904728L212.471107,402.460776L213.102290,403.107921L214.693763,401.745411L215.406418,402.204757L216.180580,402.533987L217.553632,401.543247L218.402809,401.681966L220.481247,399.017856L221.577450,398.526130L222.720167,397.897948L223.542546,398.003692L223.931080,399.157271L224.414895,400.104557L224.169625,402.909096L225.219117,402.486577L225.087781,405.116447L225.573770,406.192721L226.687661,405.600461L227.498759,405.808995L228.254672,406.169496L229.700801,404.559041L231.477376,401.911291L232.671679,400.879422L233.530313,400.813969L232.995015,405.051371L232.953106,407.895903L232.705381,411.514976L233.450777,412.004951L234.556130,411.292533L235.814052,410.011611L237.153750,408.373172L238.531793,406.509457L239.486711,406.108736L239.633016,408.735887L240.524439,408.595546L241.175618,409.392155L242.298394,408.297290L243.142109,408.301538L243.953227,408.435744L244.942663,407.779342L246.024622,406.654720L247.208192,404.978674L247.885139,405.632275L248.470233,406.772576L248.706298,409.764449L248.977250,412.758117L249.752425,413.184678L250.411053,414.290755L251.366595,413.723488L252.210935,413.780242L252.699479,416.081706L253.594480,415.883121L254.502335,415.568939L256.178209,409.719325L257.334475,407.213936L258.171919,406.959105L258.834884,408.105332L259.195780,411.980189L259.940578,412.762673L260.560081,414.839774L261.225421,416.693144L261.947749,418.156213L262.781365,418.508556L263.715129,417.637625L264.607651,417.176248L265.683874,413.882336L266.557735,413.242462L267.359458,413.762029L268.280074,411.974149L269.009314,414.121077L269.923496,411.961507L270.815920,409.657234L271.636693,409.096718L272.426214,409.808766L273.177915,414.043617L274.003358,415.024231L274.840193,416.249910L275.687620,416.637220L276.492703,412.686353L277.356142,415.007954L278.201172,415.296817L279.038547,415.191842L279.910524,416.109028L280.598882,412.246958L281.295714,409.547231L282.076120,409.035568L282.888127,409.157187L283.750346,410.022312L284.513314,409.330220L285.268311,408.633854L286.180475,409.926455L287.037150,410.410483L288.086405,412.852466L289.009042,413.738963L289.721056,412.547816L290.428679,411.435961L292.086464,418.402323L294.321746,429.294913L296.510791,438.815959L298.844722,448.536136L298.502021,438.766661L297.977495,428.568301L297.554059,419.809686L296.884585,410.184488L298.199765,413.064372L298.587251,410.405380L299.259318,409.496332L299.992672,408.966410L300.620658,407.914304L301.865769,410.019782L302.718201,410.074228L303.698672,410.721189L304.416052,410.112693L304.908602,408.524667L305.969175,409.480148L306.684093,408.913913L307.563837,409.045762L308.681450,410.115219L309.475900,409.857353L310.521948,410.562161L311.491239,410.937309L312.105541,409.993255L313.326692,411.239409L314.203008,411.221095L315.009897,410.957333L315.959059,411.167601L316.349094,409.539269L316.945738,408.626770L317.473602,407.526806L318.050261,406.610149L318.643857,405.770408L319.023067,404.323491L319.113272,402.089505L319.132006,399.728209L319.208877,397.606497L320.191059,398.017587L321.588581,399.513973L321.759486,397.727320L322.272314,396.875460L323.072426,396.771160L324.028297,397.048279L326.439382,400.866736L328.727282,404.250154L329.121476,403.030722L330.468248,404.057036L331.884832,405.199038L331.964250,403.282172L332.765415,403.014838L332.199395,399.762942L332.323661,398.083723L333.617690,398.918549L334.983888,399.867443L336.838455,401.778055L337.251099,400.708614L337.029381,398.397872L337.830063,398.148064L338.055235,396.783054L340.824378,400.288719L342.566235,401.755411L344.103355,402.790293L345.601823,403.713844L345.047616,400.910041L348.762018,405.738328L353.184952,411.659673L358.001868,418.085162L357.321992,414.975858L354.573767,408.468058L351.032337,400.809712L346.691263,392.038136L347.815460,392.291284L347.702713,390.560156L348.437963,390.193148L349.593451,390.474798L349.598826,388.980301L351.262232,390.013356L350.911585,388.009860L352.196157,388.449071L355.128136,391.255550L355.043490,389.657755L356.818901,390.718865L358.739221,391.943451L359.617134,391.687446L361.711635,393.081931L362.334057,392.449297L362.417352,391.103335L362.706615,390.047791L363.359786,389.476730L364.625009,389.689919L364.430978,388.040344L364.776116,387.091036L364.658253,385.580666L364.455060,383.989872L364.040801,382.170488L363.697398,380.466311L365.515529,381.329480L365.860292,380.449043L369.192049,383.001575L370.627331,383.331268L369.238315,380.478296L369.569938,379.582632L367.662523,376.248305L366.530342,373.816951L367.348205,373.510456L368.662756,373.721637L370.233227,374.181059L371.889954,374.704864L380.801969,382.579738L386.695715,387.220816L391.899525,391.051331L394.158699,391.886175L386.060017,382.645021L380.322846,375.868524L374.892101,369.527551L373.569186,367.163543L374.037508,366.496447L376.142637,367.325228L376.858514,366.866956L377.904337,366.699101L378.972632,366.540357L378.554661,365.077715L378.333608,363.804436L380.133849,364.262986L381.645286,364.453207L381.772466,363.476465L384.686064,364.788807L384.703199,363.711415L384.147092,362.186295L385.822810,362.443310L385.095426,360.805035L385.210887,359.839460L388.193359,361.061162L388.750927,360.415391L391.937645,361.718476L393.507960,361.788300L394.610584,361.500569L397.002508,362.122872L397.362936,361.278941L396.874139,359.846592L394.289456,356.991391L392.778378,354.918906L389.469783,351.677147L390.065753,351.082469L391.565920,351.075487L391.178538,349.834830L393.195046,350.136474L391.407270,348.025255L392.125747,347.502565L393.387363,347.306895L394.627013,347.084365L396.154742,347.019893L396.368031,346.166901L396.960189,345.536453L396.318584,344.199558L399.611702,345.092653L401.049300,344.911324L399.832624,343.262596L398.576334,341.617790L394.557562,338.530628L394.788077,337.736480L395.383634,337.132952L397.288517,337.191914L400.663613,337.964439L398.821394,336.116849L399.210010,335.386691L398.717424,334.234225L397.311004,332.663400L400.778292,333.380354L402.035068,333.041961L403.013592,332.565283L403.559106,331.887872L401.757964,330.185877L401.217863,329.054294L401.948771,328.470292L403.421444,328.187712L405.847138,328.276983L406.885812,327.781753L405.674227,326.391503L404.813531,325.157833L402.332628,323.325237L402.853887,322.649450L403.632474,322.064598L405.009915,321.688056L406.675606,321.398244L406.399665,320.418621L406.932266,319.720408L407.909336,319.166358L407.035605,318.000083L405.570520,316.660107L406.586454,316.118014L404.811475,314.712007L404.488043,313.766926L406.770451,313.592277L407.239446,312.871623L408.052270,312.244076L408.138864,311.410306L406.663686,310.161152L407.516918,309.540518L408.851995,309.034135L408.972444,308.212222L411.436955,307.957532L408.603347,306.427826L405.973041,304.982841L405.851921,304.131884L404.232090,302.960383L406.463153,302.620352L408.776356,302.271242L411.090013,301.895412L415.204530,301.837518L417.738921,301.437883L420.382838,301.028434L421.630915,300.346953L418.053663,298.847554L415.698041,297.590072L412.865889,296.289593L410.682769,295.121644L410.635782,294.285610L412.014905,293.645633L411.931243,292.800048L410.822396,291.829748L410.644838,290.983892L410.379213,290.131509L410.826476,289.358807L412.872495,288.741070L413.892613,288.003542L413.193153,287.104019L413.844536,286.323982L414.076028,285.505194L414.524374,284.699452L414.829434,283.879915L415.490188,283.077802L415.730213,282.246667L415.715572,281.401587L416.667324,280.595310L416.726042,279.748105L418.056988,278.935535L416.189531,278.038470L416.594032,277.199280L416.882426,276.354295L417.110211,275.505738L418.721799,274.651132L419.717100,273.782391L419.957192,272.912521L414.359926,272.158642L412.868710,271.363291L409.734988,270.638712L409.595437,269.836511L414.695957,268.803167L418.651297,267.765862L420.602249,266.793534L417.999916,266.081170L415.144946,265.416718L413.755410,264.676891L413.580375,263.855378L415.365375,262.865730L419.079608,261.675257L417.559779,260.954644L416.395689,260.214189L416.608349,259.334447L415.380823,258.619045L415.776524,257.718081L416.634802,256.751451L416.633140,255.889080L415.278451,255.216154L413.646007,254.599195L413.988174,253.698071L413.501558,252.923297L412.215921,252.285146L414.459303,251.055213L413.328921,250.395942L412.714738,249.653807L413.461061,248.658568L412.237883,248.039032L411.230082,247.389045L411.116740,246.562691L411.134166,245.707488L412.312417,244.592811L414.159261,243.308789L413.047465,242.691556L413.337744,241.748915L413.217129,240.901447L410.533077,240.701628L411.750378,239.521211L412.448291,238.460600L410.618970,238.076305L413.472681,236.407527L413.292608,235.564071L413.320730,234.659170L412.464513,234.014437L409.160950,234.123333L407.667281,233.708945L406.702961,233.142690L407.823990,231.909316L407.774627,231.045150L407.640718,230.206697L405.006450,230.227543L406.151411,228.953205L406.344188,228.000487L407.861203,226.558546L407.620926,225.744750L406.752110,225.167941L407.332804,224.040757L405.758149,223.746235L407.616266,222.099906L406.267674,221.724843L404.893705,221.374616L404.493535,220.630280L405.059897,219.474360L405.540586,218.342903L404.741628,217.764299L406.449796,216.068223L407.156369,214.798771L405.734844,214.498731L406.677558,213.102740L404.951018,212.961844L402.677656,213.105953L403.127311,211.937976L403.294192,210.898982L404.592810,209.277797L404.641639,208.274401L402.737959,208.283989L401.919047,207.741648L399.825997,207.890695L398.544108,207.623467L400.083121,205.809487L397.583267,206.230771L395.286167,206.569578L393.887859,206.419831L392.204367,206.452635L394.252977,204.293077L393.327605,203.880985L392.638814,203.332909L390.104154,203.928832L389.087963,203.609452L390.981002,201.455105L391.286500,200.281645L392.070941,198.783646L392.099553,197.763029L392.004643,196.816515L390.752421,196.646926L390.510414,195.798340L388.186203,196.391766L387.645458,195.763574L385.789067,196.073838L385.697580,195.135767L384.993228,194.638420L382.857726,195.203976L384.134414,193.244069L383.067643,193.028708L386.408328,189.439322L386.902883,187.989615L387.471344,186.462221L388.047213,184.907623L384.500828,186.656944L382.700690,187.039731L381.808272,186.697490L380.681302,186.558870L380.743460,185.425110L381.512784,183.672699L381.320821,182.727221L381.455254,181.487464L380.789774,180.944171L381.567004,179.104840L385.529716,174.335052L389.500253,169.458053L391.242865,166.557556L387.137822,169.124589L381.561560,173.176041L376.716909,176.633743L374.518241,177.600399L375.709597,175.247108L374.580975,175.177010L373.611142,174.958569L372.002696,175.404820L372.117453,174.085388L372.985526,171.955851L373.336993,170.338703L372.103944,170.403362L370.424567,170.970294L368.046640,172.335669L366.170335,173.187684L366.958125,171.062640L366.553675,170.263064L366.796555,168.707787L368.953252,164.884838L369.348683,163.071305L370.418976,160.416657L369.819596,159.740264L367.200884,161.545989L366.067961,161.559294L364.834962,161.712667L363.675598,161.789240L363.081305,161.150596L361.672986,161.574447L360.758189,161.368055L359.611632,161.480346L358.288376,161.848348L356.825588,162.430314L355.907303,162.281010L357.206767,159.011170L356.080962,159.135634L354.896448,159.360812L355.204563,157.415963L354.468225,156.984038L355.251902,154.266503L356.127743,151.349635L355.084129,151.332529L353.519664,152.142675L352.086347,152.779113L351.133173,152.673605L350.312333,152.362080L349.447311,152.127265L349.665321,150.086334L349.311284,148.971636L348.276227,149.009297L347.963004,147.801872L346.147155,149.229048L345.284747,148.999478L345.252104,147.266675L344.141966,147.483324L343.390493,147.047220L342.791643,146.320633L340.573755,148.702914L339.285165,149.351269L338.344310,149.340769L336.899079,150.357050L336.688907,148.890845L338.151271,143.919235L338.758519,140.607241L338.364345,139.347121L336.471908,141.317327L334.502285,143.533002L333.092629,144.574771L331.463452,146.162933L331.021132,145.062004L329.721766,145.956508L328.723800,146.169645L327.783043,146.261580L326.803784,146.463203L325.204856,148.247287L323.216124,151.107181L322.066935,151.884574L321.485330,151.188948L321.223747,149.609738L320.850389,148.290473L321.057773,145.295932L320.216557,145.206170L319.780072,143.938964L318.932959,143.857628L317.869833,144.441516L316.594083,145.720917L314.600469,149.342269L313.552701,150.063009L312.418614,151.110852L311.684202,150.862441L311.032995,150.324843L311.131929,147.117474L310.528398,146.314403L310.560199,143.127034L309.932799,142.298689L308.771553,143.517892L307.848896,143.856995L306.608707,145.524691L306.745613,141.500358L306.453314,139.120679L306.200769,136.441703L305.667781,134.900651L304.210403,137.626806L303.022599,139.222699L302.094834,139.629374L301.125350,140.287698L300.210851,140.707041L298.801182,143.892921L297.891188,144.464160L297.883274,139.755591L298.181857,132.821927L298.299175,126.511251L297.128263,128.242217L295.978920,129.981813L294.679648,132.968014L293.500790,135.331107L292.838522,133.844932L291.883749,134.650783L290.554657,138.829967L289.533128,140.644846L288.883809,139.040382L288.210483,137.494234L287.935114,131.331126L287.391096,127.491750L286.620167,125.980146L285.791707,125.026660L284.827958,125.962579L283.877464,126.876899L282.884422,128.795772L281.821593,132.663371L280.898447,134.318044L280.095106,133.202621L279.335979,130.176005L278.545452,126.959116L277.640245,127.995930L276.736605,129.954840Z"
       id="path29" />
    <line
       x1="50"
       y1="550"
       x2="100"
       y2="550"
       fill="none"
       stroke="black"
       stroke-width="1.0"
       stroke-linejoin="round"
       stroke-miterlimit="10"
       id="line29" />
    <text
       x="125"
       y="553"
       style="text-anchor:start;fill:black"
       id="text29">GC-content</text>
    <path
       style="stroke:blue;stroke-width:1.0"
       d="M273.161510,157.875955L272.386005,154.457216L271.739511,157.186523L270.866266,152.216286L270.073466,150.783932L269.192788,147.810792L268.239656,144.133655L267.423290,143.602308L266.492063,141.375785L266.073109,146.893563L265.321205,147.144729L264.795471,150.134900L264.321336,153.310784L263.133970,148.481717L261.872524,143.503423L261.314514,145.746295L260.337378,144.011183L259.302823,141.976741L258.594390,142.778916L257.101823,137.490960L256.623972,140.132422L256.965166,148.310579L256.695870,151.712823L256.825978,157.438061L256.052698,157.114260L254.244894,150.623156L252.762316,146.482106L251.778160,145.416478L250.792475,144.422889L249.507949,141.943081L250.302814,150.141018L250.024210,152.586716L249.730509,154.824436L249.088113,155.331317L246.282232,146.108199L245.740448,147.283136L245.645714,150.303611L246.348737,156.475547L247.169041,162.813732L245.702138,159.854547L244.444264,157.849972L243.577257,157.412735L242.670730,156.860395L242.164542,157.771606L240.610050,154.992440L239.486342,153.815226L239.042148,154.966656L236.917587,150.588596L236.568749,152.082844L236.460195,154.277717L236.650451,157.310079L236.723506,159.878299L235.360891,158.121654L235.417923,160.546943L234.465919,160.026944L234.496117,162.269190L235.109917,166.031822L233.998717,165.039918L233.285695,165.141100L232.748696,165.702884L232.151943,166.102004L232.023587,167.666024L230.748786,166.371163L229.797898,165.910570L228.378959,164.363586L227.127159,163.266784L226.233439,163.037104L226.020438,164.361858L225.434044,164.823793L224.872835,165.335623L224.521523,166.292872L224.146038,167.178654L223.815917,168.141381L223.339175,168.782786L223.848134,171.410411L223.238086,171.736689L222.550745,171.910563L221.024370,170.463541L219.805193,169.654077L218.842486,169.359789L217.858073,169.043202L218.527885,171.769141L216.947341,170.372345L216.221543,170.543081L215.495706,170.718753L210.783789,164.009910L211.343543,166.481225L211.351739,167.968470L211.152039,169.081090L214.467474,175.927363L213.922230,176.366956L212.919908,176.076250L212.598441,176.873568L212.202004,177.543483L211.011895,176.990109L210.087502,176.862629L209.371708,177.059707L207.432467,175.459404L204.983723,173.169078L203.828347,172.804504L201.401682,170.657515L198.813370,168.349186L198.094053,168.693452L196.929344,168.432643L199.094622,172.678751L201.235315,176.798434L201.865782,178.841877L201.572498,179.646321L194.790685,172.119311L192.104281,169.976217L190.790191,169.614702L190.016551,169.942292L191.551687,173.093718L188.994663,171.244435L186.329960,169.323736L187.385177,171.841780L188.117018,173.935875L191.815704,179.401901L191.442269,180.125624L187.061155,176.348107L188.502461,179.126626L184.161140,175.518579L183.569704,176.066776L186.933393,180.843574L186.530163,181.540218L190.784039,187.094062L190.696698,188.050854L187.414716,185.741263L183.131338,182.490354L178.653585,179.135974L182.375444,183.936068L185.216249,187.779794L182.637825,186.343454L178.010424,183.010881L179.469588,185.474967L176.662176,183.943527L180.113560,188.188559L187.660855,196.048796L184.690986,194.341226L184.045934,194.738694L182.503111,194.356949L180.746112,193.813059L176.926702,191.540586L175.827291,191.623404L178.698621,195.016408L179.518651,196.658564L180.018106,198.015065L177.594318,197.012016L173.547716,194.763975L173.004600,195.322226L168.745337,193.014391L172.425557,196.829130L176.316069,200.723641L175.787462,201.251965L181.552487,206.401943L182.253302,207.767047L181.360569,207.971310L177.221319,205.889828L175.227268,205.372289L175.174665,206.220485L174.435332,206.595222L175.266024,208.029986L172.548228,207.091291L169.967631,206.282189L172.472228,208.793880L172.280556,209.538055L173.581137,211.217343L173.253889,211.858322L168.013690,209.490163L167.489563,210.050879L164.931365,209.401546L159.915814,207.342685L160.527165,208.620959L159.596332,209.001126L162.633876,211.627886L167.275939,215.093022L165.496134,214.958638L168.089337,217.210172L167.102434,217.508637L167.331865,218.455766L168.002051,219.622337L168.596873,220.735267L169.686348,222.082872L165.132661,220.616044L161.626224,219.722844L154.193649,216.991456L148.532952,215.202259L150.381955,216.986723L152.963999,219.075121L153.929814,220.392276L152.303825,220.540415L152.640591,221.564340L155.698021,223.747706L157.603120,225.396466L162.670870,228.328211L156.889051,226.752953L150.811165,225.135556L147.489594,224.686113L141.288705,223.162196L148.123015,226.683396L151.216043,228.707793L153.375814,230.343535L161.062223,233.938044L152.505251,231.680937L153.493859,232.847146L151.604947,233.017701L143.132523,231.014127L146.259061,232.911730L142.780940,232.649028L142.350091,233.384888L151.401644,237.035737L156.487091,239.372726L159.073792,240.905653L162.412330,242.618513L160.553531,242.824399L160.213076,243.468888L161.514219,244.555714L162.965758,245.662884L162.182101,246.178208L161.977412,246.845550L160.916565,247.305514L155.083678,246.648588L151.506831,246.582402L148.779184,246.749230L149.870754,247.779068L154.898244,249.624760L157.184490,250.843622L158.926543,251.923969L157.276192,252.327572L151.703615,252.018922L149.370147,252.361296L145.258928,252.421461L141.338749,252.562741L145.725377,254.093983L148.273326,255.283731L146.333133,255.770011L144.635281,256.313367L143.756033,256.988444L137.663392,256.989229L140.418077,258.169336L146.538078,259.715140L149.838661,260.867164L151.605611,261.814260L154.042984,262.806588L152.725077,263.412689L151.756935,264.064906L154.795858,265.059391L157.920850,266.023125L159.242638,266.821174L156.363250,267.331159L157.828476,268.129945L153.620130,268.612047L150.474523,269.193766L151.689661,269.989985L146.727398,270.557319L142.702836,271.210674L147.605558,272.114205L148.661884,272.894706L149.997848,273.665391L150.260909,274.414952L141.013282,275.173647L135.750797,276.014050L134.148907,276.868962L139.217402,277.614739L140.763000,278.388937L144.962884,279.061951L149.561929,279.670063L145.323379,280.605386L143.642083,281.466071L143.332596,282.271637L141.986311,283.144930L145.655356,283.697733L152.329552,283.986878L153.262349,284.651521L154.303295,285.296397L149.806882,286.435249L141.933243,287.958085L142.661528,288.687350L141.945578,289.566909L149.211667,289.533932L159.843305,289.004562L160.505611,289.620048L161.734910,290.152688L159.796669,291.114524L153.505062,292.736734L148.056516,294.308938L145.098271,295.555242L144.543979,296.444202L144.270900,297.293600L148.733457,297.311222L150.166983,297.829344L152.343411,298.190957L157.453753,297.954371L157.421322,298.692251L158.758314,299.147820L156.601660,300.336104L156.531247,301.093777L155.595103,302.050420L153.623262,303.262043L148.911455,305.155992L149.828084,305.730068L153.415913,305.622077L155.285213,305.914524L162.103386,304.875841L161.565994,305.745797L158.789725,307.246273L153.773558,309.421032L144.107484,313.013780L138.108952,315.645996L136.871079,316.914918L133.350388,318.910973L141.373827,317.302145L145.925273,316.713007L146.696972,317.313525L155.468620,315.215626L153.013869,316.856046L151.924129,318.055153L152.078470,318.828778L149.907752,320.448603L148.339023,321.878732L151.125295,321.692490L148.377482,323.595873L146.026554,325.385945L148.686540,325.220357L143.724609,328.105382L148.288326,327.143999L155.982929,324.812711L159.641330,324.095111L166.745116,321.839201L168.119824,322.005956L165.485058,323.949177L158.264609,328.017111L158.128346,328.925223L155.895797,330.822502L156.774328,331.276363L166.185496,327.597835L163.914601,329.518255L166.404926,329.105086L163.393220,331.442042L155.852937,336.153706L157.956583,335.961936L158.795201,336.412247L163.418149,334.826318L170.255648,331.970162L169.884811,332.989909L169.225154,334.182468L167.505095,335.992639L164.098036,338.806411L165.131106,339.090477L164.864091,340.132976L161.656431,342.948995L164.971491,341.860226L165.883215,342.203863L167.625996,342.020360L170.346055,341.196383L168.916926,342.992831L168.068621,344.443096L168.436458,345.114703L169.747869,345.158238L170.918479,345.281436L170.341697,346.586786L171.294592,346.850001L173.922862,345.928300L174.517834,346.412281L178.085990,344.753311L177.731214,345.896391L178.881869,345.942631L178.910866,346.813733L179.587271,347.202397L178.790744,348.715017L179.004822,349.467190L182.093833,347.965915L178.811845,351.478857L182.269344,349.640177L181.130699,351.487154L180.415296,353.016831L183.029954,351.789881L181.595242,353.941489L183.441290,353.325653L184.699549,353.190222L183.294748,355.372194L183.524607,356.144049L183.627354,357.035500L182.666017,358.902264L184.137052,358.564037L185.461375,358.340914L183.927164,360.792132L184.370375,361.404393L186.287951,360.595770L185.205566,362.684119L184.663469,364.276116L185.892121,364.122549L185.832291,365.256549L185.505644,366.678425L186.896947,366.340701L187.438534,366.873558L188.521889,366.831322L192.677131,363.474072L194.562886,362.491806L196.195038,361.753119L196.734286,362.202662L198.778485,360.954616L200.918751,359.555316L199.952085,361.700294L199.831004,362.898027L198.495384,365.551646L197.859974,367.420329L197.264084,369.275745L196.099661,371.863455L193.586441,376.179793L193.618753,377.388531L197.261246,374.016888L201.147004,370.235792L202.375703,369.818029L203.356457,369.706621L203.293503,370.978594L203.408876,372.030182L205.471820,370.424618L206.469747,370.247782L207.214601,370.412144L207.226832,371.614704L208.410222,371.146820L208.376897,372.435925L208.756739,373.136117L211.721684,369.964667L212.440852,370.114358L213.675705,369.463751L213.575692,370.869536L212.732939,373.477719L213.373904,373.767992L211.024786,378.912836L211.320890,379.832388L211.227340,381.416877L213.440619,379.132297L216.758536,374.879834L219.061361,372.264023L219.086742,373.580688L217.770537,377.323833L217.704976,378.896042L218.243039,379.393304L220.139602,377.360390L220.167747,378.795434L221.514232,377.730877L221.687036,378.912884L222.265300,379.318632L223.655272,378.097235L223.941760,379.078653L222.699791,383.244247L222.218489,385.930722L221.423486,389.361096L222.783255,388.217873L222.437168,390.785761L222.542369,392.416354L223.740614,391.603530L224.149288,392.579405L226.923395,388.017119L225.849260,392.489733L225.645326,394.989646L225.252135,398.033936L226.023287,398.244558L228.259262,394.700903L228.265884,396.831431L229.542812,395.657638L231.120980,393.616079L230.847939,396.586018L233.286353,392.050371L233.960937,392.374741L234.480880,393.153120L236.307098,390.068117L236.516555,391.754076L237.076267,392.415432L236.793955,395.756287L237.906754,394.726425L239.695119,391.414776L240.636404,390.802506L241.952439,388.862356L242.391903,389.913508L242.202032,393.274060L242.621008,394.537472L243.133921,395.497646L243.996432,395.141295L244.267033,397.109243L245.554518,395.024773L246.852737,392.775324L247.980732,391.125954L249.671356,386.890174L249.292102,391.808353L248.521064,398.838541L247.818670,405.952505L247.937186,409.420206L248.408017,411.293242L249.042267,412.413935L249.530420,414.399753L250.147465,415.783918L251.886207,410.673465L253.426927,406.375126L255.143809,400.617927L256.373442,397.593031L257.238521,396.804716L257.681862,398.956746L257.584423,405.343251L257.910836,409.006417L257.717476,417.306191L258.473941,418.236592L259.561416,416.231216L259.882439,421.402226L260.814921,420.915781L261.771641,420.087750L262.123648,426.233482L262.828372,428.845987L263.797024,428.266319L264.223157,435.658314L265.532276,430.034403L266.457458,430.143510L267.142708,435.157398L268.272768,431.225802L269.029566,436.079284L270.110365,432.364278L271.160975,428.063826L272.111027,426.317552L273.020293,426.071748L273.947601,422.857767L274.826377,428.461194L275.752574,430.016628L276.624484,424.841820L277.596582,429.295477L278.470283,427.091052L279.370600,426.718558L280.355320,428.890712L281.264245,428.557203L281.919888,422.886594L282.691539,420.692804L283.615757,421.532337L284.526374,421.996809L285.757211,426.894336L286.888948,429.725141L287.674293,427.953920L288.550433,427.433984L289.593983,428.733331L290.457102,428.079863L291.828118,432.235383L292.951727,433.747302L293.240639,428.089016L294.223619,428.511317L295.289299,429.513654L296.258792,429.716362L297.840865,434.159596L298.152883,429.740497L298.335859,424.829283L299.007907,423.300579L299.442610,420.460678L301.139689,425.057949L302.683364,428.479621L303.900724,429.914458L304.694162,429.046742L305.662962,429.103400L305.127940,421.817184L305.937993,421.311339L307.235053,423.060822L307.507129,420.125592L310.050004,427.200686L310.013672,422.986493L310.707897,421.987970L312.491499,425.399466L313.107017,424.060978L315.058877,427.876410L314.410217,421.811098L315.998309,424.155494L317.069128,424.542600L317.978724,424.340807L320.840363,430.769796L321.628604,430.015896L322.230659,428.676363L321.979108,424.661605L322.617561,423.577069L320.792308,414.992936L321.717953,414.981343L322.053757,413.226536L323.368523,414.348801L326.198656,419.700349L326.863232,418.834670L329.972516,424.644343L328.964582,419.227282L331.053606,422.121140L334.118348,427.416399L334.629907,426.047150L337.964210,431.739553L339.220984,432.141967L337.797766,426.070753L338.561013,425.361057L337.698042,420.878475L337.877924,418.916135L337.559088,415.881618L336.201751,410.630156L335.219530,406.350441L334.106230,401.911204L336.931783,405.924585L341.217512,412.843875L345.780388,420.110351L345.692422,417.754851L345.134888,414.522526L345.881321,413.928676L345.084609,410.359381L344.026687,406.383925L342.509323,401.648643L338.456411,392.347607L336.225228,386.619418L336.237896,385.074639L340.970326,391.928065L347.346846,401.455234L351.467068,406.819957L356.333859,413.295690L357.963445,414.153522L359.379823,414.622188L361.739830,416.605372L362.454102,415.871236L361.710926,412.826054L361.255131,410.297871L362.773915,410.878887L360.704368,405.948570L359.593659,402.578230L357.701659,398.118268L356.807955,395.226664L358.665310,396.387531L359.860505,396.557855L363.809918,400.606466L364.333383,399.755807L365.537738,399.851989L368.767195,402.690032L368.494106,400.733505L370.749697,402.169937L372.204204,402.506106L374.230048,403.559970L374.708938,402.593962L374.414005,400.658845L376.524158,401.759194L375.902057,399.448294L377.310883,399.653094L379.787877,401.123843L378.980601,398.638920L380.307004,398.705172L378.799961,395.466338L378.828677,394.051032L378.930225,392.737188L378.410937,390.744953L382.816350,394.231522L381.845905,391.745869L383.024676,391.624376L384.115073,391.396151L382.474089,388.278943L387.293656,391.948717L389.532568,392.860042L388.875486,390.788913L390.938619,391.483667L388.726550,387.901379L389.373412,387.192150L391.712728,388.123915L390.988753,386.083348L391.071550,384.838107L387.418963,380.113275L385.175634,376.786478L384.669652,375.108875L386.052060,375.158685L387.222415,375.002535L387.622079,374.155567L387.210805,372.607320L385.973109,370.369788L391.170197,373.633302L392.877522,373.874717L397.267160,376.316065L399.812888,377.171597L398.740205,375.062429L403.472003,377.622962L398.664896,372.576192L397.696854,370.626206L396.097156,368.219623L393.887104,365.390129L397.973075,367.340288L399.826790,367.568899L402.967205,368.715698L403.387531,367.847925L402.881604,366.321177L403.122651,365.340155L402.039747,363.442795L401.600424,362.016449L396.856537,357.686154L395.425547,355.666593L395.180497,354.464382L396.078611,354.020646L403.793318,357.960469L401.141532,355.188047L403.988527,355.917799L405.792071,355.962221L405.159644,354.496996L409.792894,356.222960L408.951457,354.626843L409.072810,353.616637L410.529133,353.384139L413.517085,354.009503L406.650926,349.052136L401.518804,345.171727L398.011248,342.266607L394.859866,339.614309L402.564067,342.785133L410.001044,345.703951L416.163783,347.858098L411.340458,344.338269L407.097534,341.188191L407.403754,340.353005L406.683087,339.019848L412.134506,340.658142L417.793727,342.319960L409.787216,337.561872L407.859387,335.703075L410.198839,335.796352L410.820442,335.101040L417.707409,337.129694L415.588096,335.208517L415.472492,334.166427L416.253974,333.502501L417.173738,332.888830L422.366011,333.977051L421.332848,332.549718L419.650329,330.890530L419.935777,330.005979L412.864048,326.380105L414.905317,326.189154L415.066914,325.299640L415.241634,324.416636L419.546000,324.962684L418.399392,323.607361L420.400974,323.317384L421.053147,322.565180L424.007825,322.542753L425.080665,321.897069L421.323674,319.763430L419.289747,318.198351L418.863535,317.134039L414.152476,314.851423L414.863045,314.150552L415.260065,313.357785L416.313203,312.738082L419.004972,312.534877L424.683364,313.059529L425.705339,312.360363L425.139565,311.267517L425.994469,310.518781L423.656260,309.030950L422.638577,307.869138L421.436362,306.682663L423.307065,306.159250L427.362546,306.060166L431.074340,305.844906L431.169321,304.893449L433.570287,304.370145L431.730153,303.059986L435.376685,302.723078L438.284824,302.220161L434.591290,300.623518L435.857598,299.840030L431.514476,298.210969L426.418852,296.529754L431.280400,296.267372L431.401211,295.330999L430.862920,294.312968L430.936567,293.374995L424.410651,291.699821L420.916504,290.425467L416.743271,289.126851L418.254994,288.411961L420.806145,287.770823L420.775009,286.889222L427.316971,286.505357L427.209296,285.581282L425.720824,284.571577L427.946671,283.794015L428.012340,282.879115L424.365649,281.795105L422.608492,280.829963L422.587040,279.944460L421.431626,279.028372L426.127322,278.252336L424.964086,277.329286L418.747891,276.372101L417.427019,275.506866L412.228005,274.666895L418.902111,273.789248L421.069801,272.896499L423.899971,271.964134L431.310485,270.876833L426.326839,270.101644L426.201568,269.199450L424.667487,268.360836L427.063296,267.342242L426.119966,266.482544L430.431118,265.305843L429.591774,264.428826L423.815028,263.928477L428.813648,262.630320L423.909640,262.127098L417.859285,261.788114L415.267211,261.180514L411.023541,260.775956L412.800354,259.755709L413.548674,258.832838L413.049723,258.052827L416.187945,256.809025L419.642919,255.482962L421.993172,254.269159L425.902758,252.795698L428.493001,251.474998L428.887097,250.470892L428.060081,249.662289L430.877687,248.236220L431.575384,247.150510L430.454859,246.388764L433.640171,244.819607L430.040400,244.541651L428.052848,243.979427L423.408366,243.994743L420.770081,243.634091L422.625142,242.309107L420.798038,241.796918L421.904341,240.618705L424.077329,239.167531L420.957900,238.991777L422.619653,237.642966L424.281325,236.270157L427.286459,234.516006L428.034146,233.334840L421.059991,234.292936L418.238116,234.153795L411.244827,235.264601L412.305667,234.061797L416.319290,231.942303L420.184508,229.813112L424.975933,227.335247L426.541586,225.836963L423.016525,225.999342L423.826044,224.740848L423.906910,223.718482L423.642951,222.811988L427.951969,220.268473L424.329560,220.554151L424.561384,219.453085L417.065276,221.267235L416.786999,220.400098L417.681002,219.072790L411.461171,220.566189L411.796595,219.480924L411.717336,218.557544L410.765098,217.997074L415.920944,214.837523L421.334842,211.487895L422.468688,209.943982L421.363190,209.382227L421.037285,208.475593L417.079202,209.248806L415.000521,209.190391L415.224924,208.057118L411.661015,208.751108L416.209957,205.498926L415.841672,204.629749L416.675959,203.149902L419.645097,200.552232L416.900192,200.887223L418.448695,198.982072L418.553810,197.822196L416.831125,197.650383L413.961592,198.132523L412.513208,197.855072L408.914933,198.816216L410.771374,196.680616L409.423266,196.382105L407.892970,196.205715L407.844975,195.155540L400.761223,198.384632L399.533570,198.106629L397.168562,198.553016L394.055647,199.505438L399.523341,194.989171L402.365639,192.081518L404.773570,189.403451L407.866117,186.217744L404.781671,187.150495L404.199649,186.412085L402.568690,186.403076L398.046350,188.447439L402.188617,184.390794L402.396459,183.088140L400.746139,183.129268L399.862387,182.623475L394.647002,185.368768L392.863953,185.598027L387.716233,188.434862L389.092850,186.286800L388.493265,185.657763L388.082812,184.879253L391.065805,181.360453L390.218642,180.899742L389.412339,180.410915L389.494193,179.183658L391.758937,176.093941L393.524838,173.373198L394.118374,171.620593L393.673730,170.754498L392.578052,170.463421L388.643408,172.737082L384.824271,174.977536L381.138873,177.165254L377.881169,179.022622L377.427761,178.292385L379.767032,174.890786L383.485276,170.088333L383.067163,169.233475L381.436474,169.574634L379.605965,170.139808L375.567877,172.973453L377.139087,170.131154L381.028625,164.825802L382.231483,162.232560L383.761607,159.243656L382.333643,159.384322L378.780507,161.860837L376.513993,162.993094L374.955641,163.376901L371.349781,166.098890L370.054464,166.258180L368.062285,167.242185L370.274946,163.335785L376.688903,154.363380L375.165286,154.717079L373.459070,155.316233L372.389080,155.161868L369.635841,157.114890L372.779809,151.693733L374.711874,147.699397L372.021161,149.595394L369.106587,151.846384L367.200828,152.831383L365.759705,153.231750L364.859685,152.920877L363.636802,153.059942L363.777336,151.316583L364.020366,149.397590L365.252718,146.029232L365.449918,144.086108L360.652848,149.428495L357.480546,152.510528L355.813975,153.420903L356.429420,150.889837L359.361757,144.726933L361.569522,139.547308L358.361310,142.830120L354.467080,147.316876L352.576775,148.674682L350.935164,149.671615L353.399821,143.838585L354.491873,140.185607L353.065082,140.775368L352.647351,139.635538L350.829232,140.952269L350.428489,139.778215L351.010290,136.797062L350.539887,135.683810L349.770137,135.111450L347.514954,137.355034L346.926865,136.466626L343.412819,141.283553L341.825475,142.435009L341.864074,140.359299L339.704660,142.725813L339.708877,140.686169L338.924070,140.258288L338.089232,139.936092L337.780435,138.471679L337.566640,136.762479L338.121625,133.284047L335.628225,136.659846L335.516230,134.635868L335.296220,132.810971L331.041754,140.611161L332.089763,135.757443L329.617822,139.480942L328.860468,139.017927L331.730547,129.229109L332.077186,125.700240L329.489823,129.869433L324.868244,139.723383L322.579364,143.512377L319.089724,150.838190L321.626026,141.160301L324.152830,131.140902L324.064161,128.540699L324.593948,123.963476L322.133646,128.503330L320.356434,131.077801L318.380910,134.416328L317.831651,133.188849L316.894263,133.231848L315.323645,135.479074L312.498960,142.279109L309.481764,150.105364L308.358672,151.291270L309.618897,143.491127L310.752170,135.806796L313.617481,120.827008L314.123554,114.742441L310.472831,125.826311L309.708211,125.059421L307.323858,131.454222L305.649165,134.985698L305.625107,130.973619L303.802160,135.445509L303.569415,132.262109L302.211434,134.687433L300.619184,138.531937L301.517860,128.928300L298.628957,140.257068L297.668189,141.026783L296.815598,141.201419L295.129180,146.714052L294.894334,143.057952L294.231545,142.060658L294.214534,136.324834L293.465124,135.600360L292.628868,135.503913L292.435332,130.065650L291.024487,134.716942L290.723250,129.642464L290.343801,124.743149L289.580187,123.237208L288.810007,121.613797L287.655398,124.345398L286.702019,124.930448L285.782185,125.158994L285.153835,121.020766L284.267474,120.369475L283.292637,121.226066L282.251075,123.701959L281.259500,125.706677L280.398940,124.746891L279.533854,123.566881L278.713586,119.938651L277.787268,119.809955L276.819289,123.048819Z"
       id="path30" />
    <line
       x1="50"
       y1="575"
       x2="100"
       y2="575"
       fill="none"
       stroke="blue"
       stroke-width="1.0"
       stroke-linejoin="round"
       stroke-miterlimit="10"
       id="line30" />
    <text
       x="125"
       y="578"
       style="text-anchor:start;fill:black"
       id="text30">GC-skew</text>
  </g>
  <g
     style="fill:pink;stroke:black"
     id="g57">
    <a
       xlink:title="1408043..1408050;m4C;96;409;CGGTGATC"
       id="a31">
      <path
         fill="blue"
         stroke="blue"
         d="M47.673328,401.184722L47.234246,400.390435L46.797939,399.594620L46.364413,398.797287L45.933673,397.998446L45.505723,397.198106L55.366044,394.419116Z"
         id="path31" />
    </a>
    <a
       xlink:title="1577302..1577309;m4C;148;430;CGGTGATC"
       id="a32">
      <path
         fill="blue"
         stroke="blue"
         d="M10.000002,275.034899L10.001495,274.109876L10.006217,273.184864L10.014167,272.259875L10.025346,271.334918L10.039754,270.410006L20.009421,272.808022Z"
         id="path32" />
    </a>
    <a
       xlink:title="1909835..1909842;m4C;148;369;CGGTGATC"
       id="a33">
      <path
         fill="blue"
         stroke="blue"
         d="M136.186632,61.093831L136.934150,60.610585L137.683350,60.129952L138.434223,59.651936L139.186760,59.176545L139.940952,58.703783L143.429067,68.326128Z"
         id="path33" />
    </a>
    <a
       xlink:title="44516..44523;modified_base;21;343;CAGTGATC"
       id="a34">
      <path
         fill="blue"
         stroke="blue"
         d="M307.291784,17.013100L308.192130,17.127391L309.092071,17.244824L309.991597,17.365398L310.890696,17.489111L311.789359,17.615962L308.213637,27.216114Z"
         id="path34" />
    </a>
    <a
       xlink:title="876388..876395;m4C;45;381;CAGTGATC"
       id="a35">
      <path
         fill="blue"
         stroke="blue"
         d="M408.330278,504.015364L407.530053,504.479378L406.728213,504.940596L405.924768,505.399013L405.119728,505.854622L404.313102,506.307418L401.370712,496.484634Z"
         id="path35" />
    </a>
    <a
       xlink:title="1486037..1486044;m4C;90;329;CGGTGATC"
       id="a36">
      <path
         fill="blue"
         stroke="blue"
         d="M58.350429,335.728605L58.139767,334.971987L57.931747,334.214638L57.726371,333.456567L57.523644,332.697785L57.323566,331.938299L48.176601,336.450352Z"
         id="path36" />
    </a>
    <a
       xlink:title="1602887..1602894;m4C;94;373;CGGTGATC"
       id="a37">
      <path
         fill="blue"
         stroke="blue"
         d="M55.642526,258.198253L55.702512,257.432655L55.765169,256.667271L55.830498,255.902110L55.898497,255.137182L55.969166,254.372496L45.833772,255.433702Z"
         id="path37" />
    </a>
    <a
       xlink:title="1408043..1408050;m6A;689;413;CGGTGATC"
       id="a38">
      <path
         fill="blue"
         stroke="blue"
         d="M43.301661,403.611351L42.854135,402.801789L42.409438,401.990670L41.967575,401.178004L41.528551,400.363800L41.092372,399.548069L50.973365,396.807498Z"
         id="path38" />
    </a>
    <a
       xlink:title="1577302..1577309;m6A;568;429;CGGTGATC"
       id="a39">
      <path
         fill="blue"
         stroke="blue"
         d="M20.000002,275.033582L20.001439,274.143466L20.005982,273.253360L20.013632,272.363275L20.024390,271.473223L20.038254,270.583214L30.009052,272.893982Z"
         id="path39" />
    </a>
    <a
       xlink:title="1831434..1831441;m6A;586;440;CGGTGATC"
       id="a40">
      <path
         fill="blue"
         stroke="blue"
         d="M86.632812,95.785596L87.259534,95.129164L87.888545,94.474923L88.519835,93.822882L89.153397,93.173049L89.789224,92.525431L95.388570,101.104243Z"
         id="path40" />
    </a>
    <a
       xlink:title="1909835..1909842;m6A;552;373;CGGTGATC"
       id="a41">
      <path
         fill="blue"
         stroke="blue"
         d="M130.742971,52.705354L131.519803,52.203157L132.298383,51.703675L133.078702,51.206914L133.860750,50.712880L134.644518,50.221578L138.058825,59.890459Z"
         id="path41" />
    </a>
    <a
       xlink:title="1937090..1937097;m6A;515;317;CGGTGATC"
       id="a42">
      <path
         fill="blue"
         stroke="blue"
         d="M154.078546,50.493871L154.862956,50.073144L155.648829,49.655158L156.436156,49.239917L157.224928,48.827428L158.015135,48.417694L160.707567,58.292271Z"
         id="path42" />
    </a>
    <a
       xlink:title="316155..316162;m6A;486;368;CGGTGATC"
       id="a43">
      <path
         fill="blue"
         stroke="blue"
         d="M484.589611,121.142290L485.125398,121.874832L485.658624,122.609239L486.189284,123.345503L486.717370,124.083615L487.242877,124.823566L477.811971,128.824405Z"
         id="path43" />
    </a>
    <a
       xlink:title="61137..61144;m6A;902;705;CGGTGATC"
       id="a44">
      <path
         fill="blue"
         stroke="blue"
         d="M320.947767,14.013788L321.858499,14.175766L322.768660,14.340922L323.678239,14.509253L324.587225,14.680759L325.495606,14.855437L321.404055,24.257774Z"
         id="path44" />
    </a>
    <a
       xlink:title="1005799..1005806;m6A;377;259;CGGTGATC"
       id="a45">
      <path
         fill="blue"
         stroke="blue"
         d="M306.371388,497.802235L305.593472,497.910384L304.815183,498.015818L304.036531,498.118533L303.257525,498.218530L302.478175,498.315808L305.733452,507.981662Z"
         id="path45" />
    </a>
    <a
       xlink:title="1267209..1267216;m6A;570;336;CGGTGATC"
       id="a46">
      <path
         fill="blue"
         stroke="blue"
         d="M143.170199,451.127521L142.556203,450.666276L141.943820,450.202891L141.333058,449.737370L140.723925,449.269721L140.116428,448.799949L135.576128,457.923437Z"
         id="path46" />
    </a>
    <a
       xlink:title="1486037..1486044;m6A;406;333;CGGTGATC"
       id="a47">
      <path
         fill="blue"
         stroke="blue"
         d="M67.979299,333.029556L67.777999,332.306565L67.579224,331.582876L67.382977,330.858498L67.189259,330.133439L66.998074,329.407708L57.828661,333.835443Z"
         id="path47" />
    </a>
    <a
       xlink:title="1602887..1602894;m6A;577;379;CGGTGATC"
       id="a48">
      <path
         fill="blue"
         stroke="blue"
         d="M50.657129,257.816395L50.718478,257.033397L50.782559,256.250618L50.849373,255.468067L50.918918,254.685754L50.991193,253.903689L40.851898,255.008348Z"
         id="path48" />
    </a>
    <a
       xlink:title="309951..309958;m6A;544;392;CGGTGATC"
       id="a49">
      <path
         fill="blue"
         stroke="blue"
         d="M449.897171,141.542218L450.361960,142.153536L450.824613,142.766473L451.285123,143.381021L451.743485,143.997173L452.199693,144.614921L459.057800,137.077100Z"
         id="path49" />
    </a>
    <a
       xlink:title="313515..313522;m6A;464;341;CGGTGATC"
       id="a50">
      <path
         fill="blue"
         stroke="blue"
         d="M447.303764,146.406015L447.751591,147.008251L448.197313,147.612046L448.640925,148.217394L449.082421,148.824286L449.521796,149.432716L456.485553,142.003782Z"
         id="path50" />
    </a>
    <a
       xlink:title="317701..317708;m6A;516;388;CGGTGATC"
       id="a51">
      <path
         fill="blue"
         stroke="blue"
         d="M456.989786,142.694604L457.450509,143.330673L457.909010,143.968346L458.365281,144.607616L458.819318,145.248475L459.271116,145.890915L466.277022,138.478570Z"
         id="path51" />
    </a>
    <a
       xlink:title="495987..495994;m6A;537;366;CGGTGATC"
       id="a52">
      <path
         fill="blue"
         stroke="blue"
         d="M494.008183,254.133377L494.079686,254.897985L494.148521,255.662838L494.214685,256.427927L494.278178,257.193242L494.338999,257.958775L504.144775,255.184042Z"
         id="path52" />
    </a>
    <a
       xlink:title="533472..533479;m6A;712;441;CGGTGATC"
       id="a53">
      <path
         fill="blue"
         stroke="blue"
         d="M489.968183,278.698714L489.953962,279.449070L489.937122,280.199373L489.917664,280.949612L489.895586,281.699778L489.870890,282.449863L499.924352,280.834038Z"
         id="path53" />
    </a>
    <a
       xlink:title="564598..564605;m6A;499;355;CGGTGATC"
       id="a54">
      <path
         fill="blue"
         stroke="blue"
         d="M498.631055,299.782076L498.543187,300.562543L498.452595,301.342699L498.359280,302.122533L498.263244,302.902038L498.164488,303.681202L508.335414,302.921043Z"
         id="path54" />
    </a>
    <a
       xlink:title="95132..95139;m6A;607;431;CGGTGATC"
       id="a55">
      <path
         fill="blue"
         stroke="blue"
         d="M334.955833,63.327380L335.694343,63.537955L336.432114,63.751106L337.169136,63.966831L337.905400,64.185127L338.640898,64.405992L339.610096,54.261386Z"
         id="path55" />
    </a>
    <a
       xlink:title="973640..973647;m6A;569;372;CGGTGATC"
       id="a56">
      <path
         fill="blue"
         stroke="blue"
         d="M325.299217,484.033463L324.569247,484.207767L323.838674,484.379521L323.107506,484.548724L322.375751,484.715374L321.643419,484.879469L325.727478,494.207032Z"
         id="path56" />
    </a>
    <a
       xlink:title="1408043..1408050;modified_base;47;409;CGGTGATC"
       id="a57">
      <path
         fill="blue"
         stroke="blue"
         d="M52.044994,398.758092L51.614356,397.979080L51.186440,397.198570L50.761251,396.416570L50.338794,395.633091L49.919075,394.848142L59.758723,392.030734Z"
         id="path57" />
    </a>
  </g>
  <text
     x="275"
     y="265"
     style="text-anchor:middle"
     font-size="18"
     font-weight="bold"
     id="text57">27/105</text>
  <text
     x="275"
     y="295"
     style="text-anchor:middle"
     font-size="25"
     font-weight="bold"
     id="text59"><tspan
   fill="red"
   text-decoration="underline"
   id="tspan57">C</tspan>RGKG<tspan
   fill="red"
   text-decoration="underline"
   id="tspan58">A</tspan><tspan
   fill="blue"
   font-style="italic"
   id="tspan59">T</tspan>C</text>
  <line
     x1="50"
     y1="525"
     x2="100"
     y2="525"
     fill="none"
     stroke="green"
     stroke-width="1.0"
     stroke-linejoin="round"
     stroke-miterlimit="10"
     id="line59" />
  <text
     x="125"
     y="530"
     style="text-anchor:start;fill:black"
     id="text60">Contigs</text>
</svg>
