<?xml version="1.0" encoding="UTF-8" standalone="no"?>
<svg
   viewbox="0 0 550 625"
   version="1.1"
   id="svg51"
   sodipodi:docname="598.dnamod_CRGKGATC_1,6,7_20 - Copy.svg"
   inkscape:version="1.3.2 (091e20e, 2023-11-25, custom)"
   xmlns:inkscape="http://www.inkscape.org/namespaces/inkscape"
   xmlns:sodipodi="http://sodipodi.sourceforge.net/DTD/sodipodi-0.dtd"
   xmlns:xlink="http://www.w3.org/1999/xlink"
   xmlns="http://www.w3.org/2000/svg"
   xmlns:svg="http://www.w3.org/2000/svg">
  <defs
     id="defs51" />
  <sodipodi:namedview
     id="namedview51"
     pagecolor="#ffffff"
     bordercolor="#000000"
     borderopacity="0.25"
     inkscape:showpageshadow="2"
     inkscape:pageopacity="0.0"
     inkscape:pagecheckerboard="0"
     inkscape:deskcolor="#d1d1d1"
     showgrid="true"
     inkscape:zoom="1.0233333"
     inkscape:cx="71.335505"
     inkscape:cy="271.17264"
     inkscape:window-width="1920"
     inkscape:window-height="1017"
     inkscape:window-x="-8"
     inkscape:window-y="-8"
     inkscape:window-maximized="1"
     inkscape:current-layer="svg51">
    <inkscape:grid
       id="grid51"
       units="px"
       originx="0"
       originy="0"
       spacingx="1"
       spacingy="1"
       empcolor="#0099e5"
       empopacity="0.30196078"
       color="#0099e5"
       opacity="0.14901961"
       empspacing="5"
       dotted="false"
       gridanglex="30"
       gridanglez="30"
       visible="true" />
  </sodipodi:namedview>
  <circle
     cx="275"
     cy="275"
     r="240"
     fill="none"
     stroke="black"
     stroke-width="1.0"
     id="circle1" />
  <line
     x1="275"
     y1="15"
     x2="275"
     y2="55"
     fill="none"
     stroke="grey"
     stroke-width="1.0"
     stroke-linejoin="round"
     stroke-miterlimit="10"
     id="line1" />
  <line
     x1="495"
     y1="275"
     x2="535"
     y2="275"
     fill="none"
     stroke="grey"
     stroke-width="1.0"
     stroke-linejoin="round"
     stroke-miterlimit="10"
     id="line2" />
  <line
     x1="275"
     y1="495"
     x2="275"
     y2="535"
     fill="none"
     stroke="grey"
     stroke-width="1.0"
     stroke-linejoin="round"
     stroke-miterlimit="10"
     id="line3" />
  <line
     x1="15"
     y1="275"
     x2="55"
     y2="275"
     fill="none"
     stroke="grey"
     stroke-width="1.0"
     stroke-linejoin="round"
     stroke-miterlimit="10"
     id="line4" />
  <text
     x="249.05664"
     y="3.125828"
     style="text-anchor:start"
     id="text5">2,889,511</text>
  <text
     x="548.90027"
     y="279.11719"
     style="text-anchor:start"
     id="text6">0.72 Mbp</text>
  <text
     x="248.37109"
     y="554.10016"
     style="text-anchor:start"
     id="text7">1.44 Mbp</text>
  <text
     x="4.8257499"
     y="279.11719"
     style="text-anchor:end"
     id="text8">2.16 Mbp</text>
  <circle
     cx="326.777234"
     cy="40.651716"
     r="2.500000"
     fill="grey"
     stroke="black"
     stroke-width="1.0"
     id="circle8" />
  <circle
     cx="376.115882"
     cy="57.340683"
     r="2.500000"
     fill="grey"
     stroke="black"
     stroke-width="1.0"
     id="circle9" />
  <circle
     cx="420.692211"
     cy="84.280888"
     r="2.500000"
     fill="grey"
     stroke="black"
     stroke-width="1.0"
     id="circle10" />
  <circle
     cx="458.406782"
     cy="120.203513"
     r="2.500000"
     fill="grey"
     stroke="black"
     stroke-width="1.0"
     id="circle11" />
  <circle
     cx="487.483327"
     cy="163.416686"
     r="2.500000"
     fill="grey"
     stroke="black"
     stroke-width="1.0"
     id="circle12" />
  <circle
     cx="506.552409"
     cy="211.885170"
     r="2.500000"
     fill="grey"
     stroke="black"
     stroke-width="1.0"
     id="circle13" />
  <circle
     cx="514.715921"
     cy="263.326213"
     r="2.500000"
     fill="grey"
     stroke="black"
     stroke-width="1.0"
     id="circle14" />
  <circle
     cx="511.589379"
     cy="315.317063"
     r="2.500000"
     fill="grey"
     stroke="black"
     stroke-width="1.0"
     id="circle15" />
  <circle
     cx="497.320037"
     cy="365.409076"
     r="2.500000"
     fill="grey"
     stroke="black"
     stroke-width="1.0"
     id="circle16" />
  <circle
     cx="472.579947"
     cy="411.243034"
     r="3.000000"
     fill="black"
     stroke="black"
     stroke-width="1.0"
     id="circle17" />
  <circle
     cx="438.534309"
     cy="450.660268"
     r="2.500000"
     fill="grey"
     stroke="black"
     stroke-width="1.0"
     id="circle18" />
  <circle
     cx="396.786591"
     cy="481.804318"
     r="2.500000"
     fill="grey"
     stroke="black"
     stroke-width="1.0"
     id="circle19" />
  <circle
     cx="349.303013"
     cy="503.208375"
     r="2.500000"
     fill="grey"
     stroke="black"
     stroke-width="1.0"
     id="circle20" />
  <circle
     cx="298.319939"
     cy="513.864356"
     r="2.500000"
     fill="grey"
     stroke="black"
     stroke-width="1.0"
     id="circle21" />
  <circle
     cx="246.238551"
     cy="513.270391"
     r="2.500000"
     fill="grey"
     stroke="black"
     stroke-width="1.0"
     id="circle22" />
  <circle
     cx="195.511758"
     cy="501.454453"
     r="2.500000"
     fill="grey"
     stroke="black"
     stroke-width="1.0"
     id="circle23" />
  <circle
     cx="148.528675"
     cy="478.973047"
     r="2.500000"
     fill="grey"
     stroke="black"
     stroke-width="1.0"
     id="circle24" />
  <circle
     cx="107.502091"
     cy="446.884992"
     r="2.500000"
     fill="grey"
     stroke="black"
     stroke-width="1.0"
     id="circle25" />
  <circle
     cx="74.364263"
     cy="406.701561"
     r="2.500000"
     fill="grey"
     stroke="black"
     stroke-width="1.0"
     id="circle26" />
  <circle
     cx="50.675904"
     cy="360.315297"
     r="3.000000"
     fill="black"
     stroke="black"
     stroke-width="1.0"
     id="circle27" />
  <circle
     cx="37.552679"
     cy="309.910885"
     r="2.500000"
     fill="grey"
     stroke="black"
     stroke-width="1.0"
     id="circle28" />
  <circle
     cx="35.612662"
     cy="257.862252"
     r="2.500000"
     fill="grey"
     stroke="black"
     stroke-width="1.0"
     id="circle29" />
  <circle
     cx="44.947222"
     cy="206.620767"
     r="2.500000"
     fill="grey"
     stroke="black"
     stroke-width="1.0"
     id="circle30" />
  <circle
     cx="65.116725"
     cy="158.599782"
     r="2.500000"
     fill="grey"
     stroke="black"
     stroke-width="1.0"
     id="circle31" />
  <circle
     cx="95.171233"
     cy="116.060972"
     r="2.500000"
     fill="grey"
     stroke="black"
     stroke-width="1.0"
     id="circle32" />
  <circle
     cx="133.695251"
     cy="81.007815"
     r="2.500000"
     fill="grey"
     stroke="black"
     stroke-width="1.0"
     id="circle33" />
  <circle
     cx="178.874389"
     cy="55.091231"
     r="2.500000"
     fill="grey"
     stroke="black"
     stroke-width="1.0"
     id="circle34" />
  <circle
     cx="228.580815"
     cy="39.531830"
     r="2.500000"
     fill="grey"
     stroke="black"
     stroke-width="1.0"
     id="circle35" />
  <circle
     cx="275"
     cy="275"
     r="140"
     fill="white"
     stroke="grey"
     stroke-width="0.5"
     id="circle36" />
  <circle
     cx="275"
     cy="275"
     r="120"
     fill="none"
     stroke="black"
     stroke-width="0.5"
     id="circle37" />
  <g
     style="fill:none;stroke-linejoin:round;stroke-miterlimit:10"
     id="g38">
    <path
       style="stroke:black;stroke-width:1.0"
       d="M273.283729,131.788061L272.699031,134.129902L272.111692,135.363202L271.538512,136.737768L270.911138,135.865624L270.257379,134.441099L269.603843,133.352748L268.981987,133.238791L268.299291,131.851187L267.689583,132.131355L267.054463,131.914883L266.470465,132.588537L265.904645,133.458596L265.397580,135.079108L264.861967,136.119538L264.099511,134.115511L263.346594,132.447752L262.359675,128.237781L261.871771,129.954023L261.338194,131.035669L261.052546,134.524037L260.888644,138.896250L260.204340,138.102781L259.720897,139.162155L258.872298,137.022692L258.299153,137.314741L257.263968,133.916007L256.184574,130.413556L255.752283,131.955823L254.671490,128.739287L254.327432,130.863812L254.029905,133.180878L253.145649,131.515909L252.767067,133.176538L252.345034,134.481210L251.952087,135.896464L251.505781,136.929075L250.671381,135.691738L249.737620,133.966905L248.527541,130.826901L248.034309,131.653164L247.884018,134.226666L247.744847,136.744210L247.583122,139.042419L246.593840,137.231349L245.834584,136.595125L244.274226,132.269741L243.647826,132.377586L243.289383,133.680747L242.805286,134.388610L242.964793,137.830039L243.237265,141.618647L242.690259,141.893012L241.591452,139.931501L240.705738,138.892891L239.216621,135.545525L238.498144,135.272450L237.955061,135.674122L236.899716,134.174092L236.479277,135.037451L235.616381,134.296811L234.989635,134.415985L235.235515,137.553189L234.034790,135.675396L233.548536,136.254099L232.727714,135.718007L231.565956,134.098091L230.928698,134.208787L230.796381,135.910745L230.507457,137.082438L230.366174,138.676377L230.290454,140.427075L229.022440,138.595942L228.034235,137.640697L227.382704,137.688781L226.684627,137.608913L226.479399,138.919236L226.284647,140.228725L226.272373,142.006792L226.158597,143.469904L224.990290,142.097671L224.284133,141.978999L222.875400,140.050118L221.448947,138.131016L220.393707,137.203121L219.857027,137.596579L219.113579,137.477416L219.329889,139.699762L219.713993,142.276578L218.953834,142.083147L218.441738,142.481435L217.238110,141.275126L216.022932,140.076807L215.796276,141.147492L215.725315,142.547192L215.367524,143.287024L214.841542,143.648628L213.733755,142.752090L213.394914,143.522853L212.776128,143.691606L211.941570,143.412356L212.024005,145.037707L211.398293,145.188092L210.735709,145.266790L210.794024,146.789368L209.722660,146.053703L208.377963,144.805658L209.203354,147.785982L210.671062,151.938244L211.641616,155.068256L212.062541,157.109250L210.416230,155.281609L208.553434,153.100253L206.442659,150.519243L204.605346,148.488350L203.633857,148.045049L202.204531,146.810713L201.509513,146.887560L202.150728,149.275348L202.797269,151.631123L204.537158,155.796207L206.297627,159.919901L205.840827,160.291138L204.909245,159.881211L203.943701,159.429905L202.035215,157.474465L200.034633,155.415805L198.564475,154.240801L196.035623,151.437907L195.077328,151.128937L194.979051,152.152674L194.353977,152.362587L195.434521,155.144446L195.331545,156.114646L195.671282,157.727690L195.490959,158.555539L193.613890,156.912569L192.419009,156.287097L191.472549,156.033544L190.923839,156.352597L190.020832,156.177101L189.521138,156.570319L189.268577,157.302427L189.300450,158.414969L189.687905,159.993498L190.037514,161.499717L189.410768,161.692969L188.750421,161.845344L188.293003,162.265546L186.372980,160.800351L187.075978,162.717787L187.638968,164.430759L187.695712,165.485070L188.142977,167.012974L187.044036,166.615244L185.746435,165.988624L185.980819,167.234456L186.419957,168.710899L186.030054,169.182179L185.355077,169.315905L183.668198,168.271620L182.297301,167.618510L182.597402,168.902466L182.961906,170.244368L182.544050,170.687203L181.628396,170.572591L178.458804,167.968151L176.311736,166.539914L173.624508,164.555369L171.975054,163.733593L171.966161,164.690194L172.001728,165.685192L174.761418,169.536847L176.014665,171.758300L178.617779,175.344549L179.000004,176.599733L178.767815,177.216145L180.006924,179.311217L179.689955,179.823382L179.276938,180.238780L178.290790,180.091736L177.002912,179.660937L174.329885,177.909020L173.507039,177.963825L173.368248,178.673651L172.727608,178.907325L172.412305,179.447673L172.242627,180.120853L171.810484,180.549881L171.585847,181.167531L171.633112,182.026835L172.038353,183.198208L171.931475,183.904391L171.097520,183.969086L171.205960,184.858949L169.930749,184.550047L168.693166,184.286607L168.023953,184.516583L166.929006,184.393740L167.048717,185.290680L166.145017,185.337149L166.573769,186.478954L165.757949,186.601863L164.616115,186.469509L165.558575,188.004782L161.864673,185.868645L160.076881,185.267416L158.940799,185.190066L156.633650,184.224994L159.424620,187.160985L160.441571,188.717286L160.623936,189.631688L160.678080,190.443755L162.171003,192.304664L163.205925,193.808175L163.237173,194.570960L163.318168,195.364187L159.320327,193.270029L157.941951,193.057045L156.856283,193.060317L157.485488,194.251338L157.755405,195.185218L156.649417,195.183322L159.606319,197.905447L160.824126,199.435171L161.797489,200.785298L161.382618,201.217798L157.114615,199.173024L153.482716,197.581936L153.452573,198.303845L153.732637,199.215921L156.167743,201.454386L156.204272,202.189611L153.252911,201.107150L151.908932,201.022029L150.084514,200.663105L150.623970,201.714711L153.545538,204.145937L154.224761,205.244410L153.199113,205.356674L153.090781,205.996503L150.659318,205.332489L150.964814,206.210705L151.275586,207.084939L150.127107,207.159537L147.435610,206.414135L143.582746,205.077645L142.345889,205.158080L140.097218,204.721771L141.175545,206.021810L142.683284,207.525653L143.358317,208.589672L145.804775,210.527176L146.297771,211.470800L146.097588,212.067680L146.600568,213.003285L145.630291,213.227137L145.538698,213.873363L148.596519,215.988052L148.063645,216.410280L148.441822,217.251157L150.318846,218.761488L148.730808,218.704764L148.055045,219.064024L145.979290,218.818151L142.214976,217.864668L141.149723,218.094906L140.135197,218.354849L140.505894,219.197391L142.860494,220.846721L142.935217,221.546962L144.457975,222.822866L144.774898,223.605225L145.096147,224.383836L144.695767,224.879454L142.972816,224.874769L143.380356,225.683335L143.036855,226.208042L143.243439,226.934721L143.506113,227.677489L135.553046,225.499238L125.455070,222.645861L118.506950,220.976235L119.325339,222.015330L126.391198,225.140332L133.270170,228.133059L137.055738,230.049425L135.221772,230.123300L133.915567,230.379810L135.446713,231.530764L137.436631,232.806021L137.041698,233.340436L136.888454,233.948717L136.977837,234.627729L138.325141,235.666257L141.068667,237.085738L142.590933,238.137900L142.539043,238.743423L141.014599,238.951771L140.805384,239.520607L140.813669,240.146448L139.317573,240.387032L138.225238,240.741214L135.892609,240.799179L134.935095,241.209037L135.573367,242.004005L136.946475,242.962325L136.943880,243.593824L136.835714,244.200564L136.214585,244.695058L134.725911,245.008525L133.781141,245.448165L132.374930,245.800746L131.404937,246.252251L130.408928,246.706309L130.587368,247.392770L130.605202,248.046559L130.298052,248.639931L129.528396,249.152856L130.046880,249.894778L131.965979,250.867388L132.273537,251.557196L133.297558,252.357828L131.827998,252.761119L130.743827,253.234786L132.986732,254.204453L134.300234,255.021419L136.140983,255.898487L135.646202,256.447571L135.484185,257.043151L135.738199,257.691182L134.478287,258.154820L133.385363,258.648210L133.453629,259.279570L132.336999,259.783344L133.377518,260.516961L135.444589,261.341349L135.303536,261.940641L136.410126,262.651835L128.192539,262.562943L118.476529,262.425186L113.049914,262.697838L111.778842,263.314992L117.300329,264.399410L125.018179,265.573229L127.890292,266.395880L125.246969,266.894614L127.626816,267.666074L126.874835,268.274302L130.288533,269.059824L134.372414,269.839970L133.407352,270.421074L135.415762,271.093623L133.789432,271.662639L132.887530,272.259650L135.876622,272.922509L138.340986,273.553731L138.724870,274.150492L138.111354,274.742001L136.833753,275.340474L132.531085,275.970683L132.897742,276.586233L134.183608,277.184394L133.611221,277.808361L135.179872,278.385572L135.057085,278.997576L135.186845,279.602487L137.317829,280.131850L140.283346,280.608106L141.446696,281.141611L141.502411,281.720972L139.896460,282.391006L137.267855,283.135739L138.247089,283.674861L137.510113,284.322125L137.108663,284.951966L137.208641,285.547314L134.847021,286.341385L133.541483,287.066479L131.630959,287.857728L130.886217,288.556555L130.200146,289.256658L131.064845,289.803833L132.124886,290.323023L132.413726,290.919577L130.966715,291.715649L130.461627,292.411650L128.857331,293.250044L128.194273,293.981611L128.553538,294.583064L129.878329,295.048703L132.359361,295.338508L133.960689,295.736419L139.352852,295.546698L141.172598,295.866817L144.144476,295.986753L143.688826,296.645999L140.251156,297.815059L138.901172,298.652942L136.571476,299.678502L134.630725,300.654846L132.996221,301.592289L131.831021,302.455490L130.588894,303.345375L133.899927,303.333306L135.303356,303.684082L139.806295,303.372780L144.412443,302.999578L145.322358,303.394925L147.236253,303.558687L144.355539,304.799746L142.403132,305.852354L142.754781,306.377417L143.648470,306.769402L144.381230,307.194097L143.498700,308.018908L141.948098,309.024047L139.731743,310.218260L138.758446,311.105061L137.924424,311.964826L138.113266,312.553262L138.037076,313.215409L140.689814,313.105594L142.031157,313.350637L141.959294,313.998873L141.198390,314.854631L138.235698,316.385507L137.832832,317.159437L137.566704,317.896269L138.284156,318.325721L138.658972,318.860335L139.722403,319.168348L140.627710,319.520365L141.586165,319.847645L143.833181,319.728133L141.351241,321.224267L142.785507,321.372958L142.622023,322.077820L142.305388,322.841506L143.793116,322.950926L142.830717,323.955256L143.877067,324.217224L143.053813,325.181984L143.636183,325.615514L143.365895,326.378228L141.730648,327.685501L139.898015,329.090552L139.336509,330.001128L139.088747,330.791023L140.102190,331.061761L141.627487,331.109314L142.486137,331.427625L142.528714,332.091338L142.574562,332.755747L141.962949,333.712434L142.295636,334.256473L141.795160,335.176116L141.451774,336.031951L142.071458,336.448988L140.503045,337.885371L142.284506,337.757221L144.137459,337.578827L148.487071,336.176263L152.347792,334.968909L153.954428,334.837031L155.483028,334.729578L153.016649,336.626617L152.395222,337.611338L152.619308,338.169429L150.752564,339.818847L153.738523,338.933516L145.682561,343.901303L137.692130,348.927117L129.547919,354.129846L121.495210,359.377963L130.800215,355.081782L138.223654,351.739335L147.379278,347.334026L154.059103,344.244630L152.918630,345.604343L153.418721,346.022511L155.451279,345.534287L155.854610,345.996654L156.759508,346.156068L157.877169,346.179124L157.501257,347.109163L158.193752,347.385362L158.250632,348.054744L158.311130,348.724996L157.204324,350.143051L155.663956,351.857882L155.906184,352.436709L158.217926,351.658235L162.396179,349.618271L166.161907,347.806023L169.057904,346.537636L168.865052,347.341884L165.816601,350.117223L164.296209,351.874703L159.991192,355.607792L161.726163,355.128649L165.399007,353.247898L167.453156,352.489687L170.397254,351.061663L169.497308,352.419716L168.093784,354.167232L169.418141,353.899781L169.008196,354.926841L167.787290,356.581321L166.094088,358.620081L161.210679,363.158910L160.041362,364.867598L158.797546,366.656913L160.262259,366.313824L163.584471,364.464040L166.650950,362.779476L169.270474,361.421567L170.718846,360.996910L171.606312,361.023225L171.385671,361.972110L169.793458,364.091354L168.661273,365.847155L169.078409,366.290622L168.449283,367.643488L169.270846,367.739652L168.967869,368.824450L166.973088,371.430468L166.402666,372.791584L165.821498,374.178147L167.113991,373.863812L168.320077,373.615550L171.086241,371.899971L172.075158,371.818061L172.759138,372.016197L175.449550,370.289449L177.863189,368.792007L178.988360,368.515829L179.475221,368.854622L178.009994,371.126784L176.425250,373.550906L176.463603,374.373165L175.942542,375.771425L176.633751,375.942645L177.266672,376.169698L178.745056,375.510432L178.991830,376.129542L177.928595,378.144157L176.975841,380.068348L176.603835,381.390953L178.043588,380.753169L179.793519,379.755436L180.863565,379.487457L181.337368,379.875145L181.241966,380.905439L181.043831,382.063804L181.309791,382.701937L182.413964,382.372083L183.730062,381.781289L184.608305,381.689749L185.358970,381.741501L184.615588,383.582082L183.992612,385.302563L184.736946,385.374761L184.815516,386.262590L185.648187,386.220643L187.465042,384.934924L187.840722,385.445403L188.236302,385.932811L188.174993,387.011635L187.512237,388.886095L187.234342,390.282173L187.937287,390.396676L190.020135,388.660735L192.582300,386.239323L193.987450,385.342805L194.190283,386.075940L194.170551,387.124854L192.866766,389.984312L192.581288,391.451422L192.817384,392.195389L192.440269,393.829176L193.902836,392.814241L194.775931,392.637980L196.361273,391.397577L198.011540,390.030216L197.622247,391.706735L197.032613,393.713842L197.716256,393.795670L196.894499,396.208781L197.556870,396.336576L200.133577,393.432015L200.796744,393.521044L202.000868,392.733054L201.874030,394.090953L200.920578,396.828758L200.075557,399.434281L201.044174,399.043175L202.445718,397.904471L203.597655,397.163641L204.713939,396.463221L204.897646,397.370315L205.087919,398.278097L205.040010,399.622524L205.069945,400.848274L206.086440,400.299327L206.286719,401.232176L206.757301,401.676542L207.700889,401.236768L207.809846,402.363587L208.210130,402.950086L209.901682,401.042786L209.944874,402.314127L210.724743,402.149618L211.340437,402.303723L210.872478,404.645938L212.535560,402.677944L214.180290,400.697980L215.566802,399.207306L216.701568,398.209161L216.731781,399.543425L216.795830,400.829313L217.944313,399.767641L219.013797,398.850254L219.552945,399.092564L219.936040,399.688271L219.112183,403.058000L218.635622,405.697493L219.019438,406.375810L219.548203,406.720430L219.993576,407.268121L221.086504,406.247064L221.689129,406.403069L221.744557,407.922935L223.079312,406.241869L223.802159,406.078316L224.692489,405.470362L225.537034,404.961004L226.034322,405.356913L226.649973,405.438400L226.988711,406.273544L228.050305,405.122393L228.691155,405.115986L229.193061,405.499621L230.815001,402.652625L231.397488,402.764709L231.616965,403.953583L232.020819,404.615623L232.015471,406.543965L232.102711,408.236803L232.254260,409.772473L233.130679,409.029102L233.713960,409.209922L234.346333,409.228692L235.001896,409.164644L234.780260,412.082711L235.407623,412.149576L235.822338,412.961774L236.856066,411.579119L238.715540,407.136482L239.181954,407.695301L239.545712,408.655293L240.162334,408.673818L240.013834,411.676535L240.452824,412.447011L241.283793,411.652039L241.826111,412.013359L242.332419,412.534697L242.855239,413.000108L243.752527,411.838726L244.815018,409.886061L245.699324,408.659386L246.607365,407.264642L246.794434,409.235392L246.785554,412.240914L247.043207,414.050754L247.503563,414.906944L248.101794,415.079760L249.074734,413.256977L249.691254,413.286445L250.107383,414.434330L250.637804,414.979131L251.195715,415.385012L252.005553,414.281310L252.730445,413.639486L253.650765,411.704086L254.366321,410.999199L254.812268,412.076976L255.557852,411.118525L255.891059,413.072846L256.451139,413.457494L257.121263,413.013448L257.535411,414.578291L258.275750,413.549820L258.811067,414.200670L259.564862,412.944695L260.135235,413.286703L260.645620,414.234244L261.245821,414.350641L261.460747,418.557398L261.953339,420.081227L262.473137,421.437399L262.804485,425.255888L263.487830,424.919757L264.139932,424.968406L264.788468,425.069645L265.518880,423.892883L266.125381,424.625934L266.713694,425.800288L267.373805,425.751671L268.014095,426.116390L268.731786,424.702162L269.429753,423.478885L270.109596,422.474492L270.790196,421.133819L271.483489,418.790340L272.146269,416.943538L272.776290,416.149151L273.393012,415.907503L274.001123,416.579810L274.620539,415.221709L275.227485,413.472035L275.815876,411.164222L276.427859,413.075951L277.074846,416.234760L277.713375,417.501947L278.336330,417.627650L278.898802,415.529260L279.452888,413.734113L280.020779,412.741858L280.633354,413.051777L281.310129,414.718691L282.008377,416.521017L282.735871,418.569515L283.486158,420.697515L284.081522,420.049315L284.519191,417.126017L285.182667,417.720544L285.746627,416.927051L286.219605,415.079180L286.873121,415.554967L287.309721,413.537520L287.739317,411.629602L288.384673,412.098188L289.183767,414.028354L289.858806,414.628278L290.716783,416.826257L291.431996,417.612016L291.863978,415.967082L292.394810,415.230812L292.845233,413.914025L293.332103,412.953960L293.663588,410.919042L294.137562,410.011505L294.776773,410.284313L295.290455,409.702603L296.433738,413.208991L297.340939,415.034632L298.062119,415.621437L299.038019,417.683762L299.521035,416.784101L299.710370,414.269266L299.763954,411.126939L300.019757,409.215669L300.822003,410.251559L301.511190,410.655960L302.454910,412.309892L303.096322,412.406911L303.562922,411.658047L304.110561,411.315214L304.833338,411.784399L305.892795,413.741122L305.966538,411.275955L306.464809,410.734091L306.677772,409.001040L306.244985,404.649284L306.609766,403.702893L307.344498,404.264829L307.769162,403.584593L308.342013,403.494641L308.673518,402.489007L308.672444,400.275782L309.392790,400.771214L309.373737,398.586546L310.447625,400.333668L311.353127,401.433043L311.996138,401.593700L313.439921,404.440617L313.842017,403.740344L314.735239,404.659108L315.331762,404.591167L316.556182,406.506999L317.509528,407.515286L318.455223,408.464921L319.165964,408.670305L320.002921,409.240744L321.337576,411.252838L321.132587,408.739202L322.144867,409.769638L321.839062,407.050088L321.745508,404.989269L322.985837,406.637696L323.914063,407.391844L324.421185,406.995769L324.906082,406.545846L325.995927,407.675843L325.443636,404.553705L326.638431,405.935232L326.836450,404.780757L326.765025,402.983275L328.068572,404.582040L328.599699,404.273044L330.333206,406.830545L330.971178,406.742054L330.907157,405.017313L331.860001,405.664419L332.002325,404.449858L333.175223,405.570891L335.009604,408.127605L334.861914,406.273106L335.595138,406.364659L335.191061,404.010550L335.312955,402.818068L336.334820,403.532279L336.651780,402.763973L337.608799,403.318479L338.571799,403.867062L339.106839,403.539658L337.814451,399.588705L338.481818,399.561841L339.035651,399.309278L338.959921,397.846972L340.360211,399.214670L341.356256,399.787653L341.096280,398.005289L342.359598,399.059310L343.633321,400.104643L343.584225,398.735984L344.474567,399.066694L345.314368,399.295279L346.253940,399.687719L346.823300,399.424775L346.300388,397.287489L346.169039,395.851274L346.509347,395.230256L347.346219,395.441997L349.021870,397.026208L349.319698,396.324147L349.247503,395.031222L350.166126,395.343302L350.199798,394.239917L350.911611,394.216351L351.564552,394.095380L352.021276,393.668078L353.617544,394.981625L355.180698,396.213998L356.231566,396.649583L356.185384,395.442916L354.864547,392.378729L354.509350,390.770917L355.550135,391.200231L355.959176,390.712263L357.038470,391.175944L358.461872,392.107445L357.737666,390.029537L358.351365,389.825985L359.342412,390.134662L359.462536,389.253024L360.357251,389.418977L359.951901,387.848292L359.668944,386.460275L359.071357,384.680041L360.278317,385.258201L361.167175,385.411850L362.058975,385.559842L362.158817,384.701705L360.619681,381.807482L359.563637,379.555105L357.962790,376.668319L357.945115,375.748985L360.121836,377.481381L364.027923,381.240618L367.537844,384.458631L369.004416,385.217563L369.011802,384.260242L368.083993,382.235117L366.756075,379.781306L367.781007,380.026630L369.308786,380.824928L369.043850,379.608152L369.479235,379.177595L369.068903,377.822959L367.876193,375.636940L368.994373,375.963992L370.193204,376.364202L370.098227,375.384615L371.646986,376.134867L371.449716,375.053640L372.135679,374.892130L374.786668,376.729401L374.798312,375.860070L375.196756,375.385778L376.203932,375.516749L375.887960,374.335088L375.881690,373.468534L375.710099,372.449392L374.890087,370.818288L373.937037,369.081331L375.113337,369.374219L378.830960,372.029376L381.513870,373.672297L381.655550,372.945100L382.059959,372.461635L380.729916,370.413268L378.970057,368.007941L381.763636,369.674339L380.964294,368.145453L379.274098,365.858897L381.202855,366.730028L380.187032,365.056897L382.737955,366.431904L385.579129,368.018849L386.259967,367.768320L388.225418,368.575372L386.847755,366.621068L387.439236,366.291361L386.060647,364.373480L386.730590,364.114807L388.054122,364.368774L386.298828,362.197413L386.150421,361.303694L386.282543,360.633148L386.720168,360.198909L386.424811,359.209793L387.279118,359.090752L386.305421,357.608374L386.865025,357.271650L390.050316,358.845756L390.751666,358.588550L390.504155,357.647927L388.551136,355.506104L385.036074,352.297095L383.433258,350.469028L382.525569,349.145225L382.824069,348.661232L384.983745,349.437164L387.405965,350.365842L389.398664,350.982827L391.468441,351.629689L393.499431,352.229630L394.440951,352.105255L395.219800,351.869397L393.511285,350.052850L391.459833,348.046007L392.059557,347.714725L391.333665,346.564553L393.019704,346.896134L395.257860,347.544395L395.166809,346.778555L395.382197,346.198714L395.211292,345.393772L394.458922,344.257294L392.783484,342.603254L393.631856,342.406003L394.262831,342.080087L394.699051,341.641858L395.863564,341.603296L396.127688,341.063736L396.853844,340.773832L399.049837,341.264131L400.712087,341.450968L401.467559,341.148236L403.012204,341.248735L400.035378,339.020304L396.620392,336.605665L394.229883,334.744632L394.637911,334.299559L395.842454,334.243353L398.373469,334.820097L401.738296,335.772267L399.391088,333.982781L400.476394,333.830389L401.537511,333.657984L401.968181,333.188134L403.358641,333.151236L403.686380,332.626519L403.249949,331.762779L403.775541,331.326940L403.840801,330.689222L406.866239,331.317567L408.799038,331.456278L407.556207,330.253988L408.694251,330.047139L407.053985,328.701317L406.023220,327.619265L407.025465,327.356148L406.553534,326.508041L407.501764,326.215850L407.749199,325.649024L408.358150,325.218063L408.054523,324.444101L406.859980,323.348605L406.833908,322.689654L406.150550,321.798460L408.003587,321.808608L408.678259,321.393675L410.771038,321.459394L409.840021,320.486701L410.563743,320.075146L411.893550,319.857095L409.814003,318.527337L410.822627,318.201638L410.717643,317.519195L409.467939,316.486348L409.142097,315.747762L410.063214,315.386824L407.013194,313.850156L405.179779,312.696204L405.075336,312.053601L403.336154,310.955497L404.401835,310.647863L407.049159,310.760030L412.223132,311.521391L412.918147,311.064818L410.356337,309.766718L410.856400,309.266046L408.550454,308.067353L409.367807,307.650209L415.101794,308.398922L417.112056,308.225658L417.769645,307.725224L419.672267,307.499761L416.800969,306.207562L414.382847,305.040454L412.799867,304.072743L411.510385,303.181151L413.864373,303.038015L412.377130,302.116464L413.830239,301.776532L415.747025,301.511882L416.407389,300.999994L417.722146,300.600565L417.120708,299.855212L415.639242,298.966254L414.947451,298.222526L414.251867,297.485271L413.662297,296.771743L413.151549,296.076337L411.840524,295.267763L414.511946,295.043786L414.680333,294.448359L412.616348,293.551255L414.072957,293.132155L411.780337,292.228621L410.861275,291.512953L413.111348,291.177237L411.524219,290.389752L412.501192,289.894589L413.117247,289.353890L413.731190,288.808113L414.370639,288.259897L414.371660,287.648635L414.729772,287.068689L414.531773,286.440468L413.250872,285.730366L413.074602,285.112787L413.172701,284.516029L413.933503,283.961522L413.749341,283.343883L413.174153,282.706360L412.734762,282.081129L411.682118,281.431145L414.761569,280.966996L418.450173,280.499593L419.361109,279.905874L419.297783,279.275541L416.260433,278.570744L414.136205,277.911627L414.147552,277.306503L413.572977,276.694205L415.690080,276.108170L414.165801,275.490916L413.583287,274.886166L415.442567,274.273853L412.715982,273.688996L413.070055,273.085081L412.699370,272.491218L416.602827,271.804018L418.142581,271.146362L418.207760,270.521274L419.075254,269.866864L413.555958,269.460069L413.003296,268.880928L410.866767,268.383503L409.782634,267.848616L407.947672,267.366027L407.330992,266.823889L407.682224,266.222796L405.786297,265.776774L407.905565,265.046263L409.107111,264.369583L410.111494,263.698473L412.800473,262.869845L412.442158,262.298790L410.920248,261.843028L408.015169,261.540090L407.071400,261.055077L407.506508,260.426174L407.607461,259.831107L410.684794,258.880982L410.640979,258.287651L409.216856,257.870232L411.316649,256.999409L411.347167,256.391721L413.547953,255.477233L416.705433,254.403416L415.625553,253.935480L416.603287,253.158964L414.613984,252.843754L412.981052,252.487279L413.539334,251.777207L412.424142,251.349245L411.800250,250.843594L411.639234,250.258784L411.284540,249.710393L409.645071,249.408398L409.532501,248.823076L409.335658,248.254521L409.844115,247.543080L412.388530,246.402162L411.746630,245.914736L408.334348,246.033846L406.010499,245.941472L404.772102,245.623438L405.590406,244.840571L409.540736,243.311311L411.697500,242.175204L411.391565,241.620644L411.730255,240.906831L409.642233,240.804832L406.883618,240.894209L406.707184,240.328048L407.896731,239.396171L410.635040,238.029612L412.855329,236.779583L414.826646,235.577397L413.532374,235.291138L412.718318,234.875525L413.474737,234.000966L411.273500,234.007264L412.926940,232.854911L411.893398,232.518921L410.356178,232.349732L411.359984,231.380634L410.799116,230.908119L408.917598,230.874305L410.094343,229.834323L409.107465,229.514897L408.698250,229.004392L410.123045,227.856043L407.009956,228.297215L408.609723,227.076443L405.711157,227.473512L405.008012,227.088009L406.489854,225.891348L405.417712,225.644419L406.109616,224.729642L406.796012,223.807920L407.011570,223.062342L409.261695,221.501629L412.659883,219.452636L413.548436,218.392209L415.123393,217.036327L414.101330,216.749372L413.335185,216.361795L411.700371,216.352144L410.934427,215.979454L407.599266,216.740846L404.907921,217.248003L405.440863,216.330361L403.262936,216.637973L404.446201,215.418702L403.959219,214.961826L403.370191,214.555390L403.457219,213.830491L403.415228,213.163953L402.046206,213.141115L409.028157,209.018994L414.956935,205.342498L420.707268,201.688155L430.984074,195.665463L429.155314,195.749867L429.696563,194.619128L422.803796,197.382440L413.558065,201.467212L407.826947,203.766647L402.607000,205.849796L401.306113,205.842457L400.347885,205.656866L399.851149,205.220806L398.312889,205.375018L399.601433,203.931078L399.989174,202.987717L400.539111,201.941844L400.315987,201.340268L398.752397,201.533333L398.693787,200.838714L397.776055,200.661158L397.048719,200.374252L397.030283,199.654461L395.758581,199.712310L394.724786,199.631801L402.952625,193.673161L408.325366,189.441908L411.728666,186.416073L412.760177,184.894776L404.601580,189.424033L400.298875,191.480349L397.145855,192.812575L397.660463,191.689075L398.923643,190.041227L398.872780,189.281803L397.587898,189.380122L395.511600,190.048141L393.375561,190.780886L391.496409,191.352364L392.143715,190.113048L392.603050,188.997710L392.384371,188.371613L391.694620,188.094214L393.269705,186.118981L393.878047,184.850168L392.580401,185.026133L393.023484,183.870528L388.879021,186.277405L384.386550,189.010390L382.618711,189.640244L379.036665,191.741758L379.819040,190.365220L379.170008,190.138244L382.276415,186.828695L383.132142,185.334594L382.102009,185.399894L383.961460,183.035837L381.783922,184.075545L381.851049,183.213803L380.590190,183.495840L378.079054,184.884063L378.623658,183.609818L380.196758,181.405948L382.517493,178.500199L383.435256,176.821675L382.207357,177.081619L382.985791,175.505795L382.287569,175.282953L381.933947,174.741311L380.467668,175.250653L376.073533,178.570343L373.611724,180.096409L372.978825,179.881286L372.127614,179.883658L372.938256,178.251826L373.402018,176.944489L373.131377,176.359931L373.442666,175.182548L371.725981,176.066276L370.038201,176.943077L370.996533,175.088501L370.771856,174.450710L371.744887,172.540575L374.601342,168.592128L374.137638,168.159974L374.443081,166.891632L375.731319,164.530767L372.772565,166.834453L370.966563,167.899782L369.946473,168.106485L368.819868,168.445112L369.707235,166.489446L370.106806,165.070258L370.550056,163.582305L369.470899,163.866238L367.966458,164.667254L367.022784,164.818311L366.507313,164.461945L367.065313,162.798060L367.119806,161.730669L367.951219,159.687502L367.951668,158.654992L367.168908,158.600287L366.833311,157.982029L366.067729,157.912654L364.709743,158.617734L363.916091,158.603949L363.526415,158.063329L362.950347,157.768317L362.273949,157.609856L360.708137,158.662709L359.562617,159.166049L357.853278,160.464861L355.282986,162.995476L353.572704,164.368574L351.764006,165.913415L351.161773,165.762894L352.106875,163.375745L353.393453,160.451108L354.032488,158.432879L353.276986,158.459220L352.507826,158.513045L351.327870,159.197560L350.231277,159.773819L350.227247,158.678005L350.874355,156.550883L351.846631,153.876493L351.821633,152.743761L352.433999,150.571279L351.688098,150.566764L351.073864,150.352982L350.890254,149.428985L349.544640,150.434926L348.917246,150.255298L347.657166,151.156914L346.880708,151.250439L346.009510,151.516927L345.004570,152.030044L343.732697,153.033544L343.715840,151.813949L343.931341,150.154498L344.226937,148.320240L345.181804,145.234983L344.210449,145.690198L343.413408,145.832279L343.263642,144.748660L342.006021,145.784626L341.671677,145.049576L340.150393,146.643351L339.018189,147.503140L338.833802,146.479590L338.947922,144.831956L339.935101,141.357044L340.604495,138.472038L340.320091,137.535697L338.245063,140.395537L336.477052,142.666158L335.112596,144.116553L333.509292,146.132725L333.721704,144.156193L334.008122,141.972275L332.481053,143.879357L333.213224,140.622934L333.163895,139.119745L332.323552,139.456508L332.161878,138.183264L330.135745,141.402365L329.711492,140.778002L329.313967,140.077506L328.367547,140.746032L328.595072,138.446610L326.746187,141.452492L325.629045,142.629731L325.592469,140.981477L325.338861,139.877696L325.594140,137.365714L325.970566,134.457297L324.853598,135.649296L323.433707,137.738950L323.201471,136.480220L322.337168,137.033858L321.807917,136.618790L321.671321,135.019895L320.966728,135.108534L320.161114,135.517773L318.988508,137.095781L318.005344,138.124805L316.999125,139.265896L316.788916,137.835646L316.495234,136.644143L315.759450,136.917894L315.019087,137.222095L314.037917,138.384794L313.826723,136.852486L312.944380,137.702353L311.931793,139.066578L310.530486,141.939882L310.014924,141.544804L309.995743,139.214988L309.738852,137.744572L309.643985,135.572939L308.741148,136.638004L307.356999,139.761425L307.301620,137.350361L306.796110,136.805127L306.329241,136.072013L306.653628,131.732913L305.836402,132.492539L305.302702,131.952160L304.415305,133.100105L303.201750,135.913690L302.299518,137.290972L301.430937,138.564359L301.147198,136.813094L301.121184,133.586699L301.038030,130.522001L300.818123,128.084654L300.507169,126.057218L299.877463,125.838100L298.899193,127.760321L298.340923,127.136455L296.876341,132.390383L296.215008,132.571339L295.440450,133.552619L294.632446,134.840523L294.478214,131.398331L293.748712,132.113688L293.319302,130.517859L292.599681,131.184002L291.743016,133.067463L290.906205,134.928018L290.007529,137.511089L289.285011,138.635066L288.658545,138.905898L288.098394,138.515976L287.689644,136.440975L286.785308,139.846195L286.073615,141.291102L285.694038,138.668785L285.250821,136.601328L285.002266,131.487025L284.675009,126.899017L283.890546,129.159625L283.204412,130.037542L282.633309,128.865894L282.001693,128.750841L281.381296,128.361004L280.707641,129.250604L280.019621,130.781774L279.385612,130.983427L278.804184,129.244080L278.207710,127.507099L277.599098,125.605941L276.924723,127.484778L276.260216,130.116592Z"
       id="path37" />
    <line
       x1="50"
       y1="550"
       x2="100"
       y2="550"
       fill="none"
       stroke="black"
       stroke-width="1.0"
       stroke-linejoin="round"
       stroke-miterlimit="10"
       id="line37" />
    <text
       x="125"
       y="553"
       style="text-anchor:start;fill:black"
       id="text37">GC-content</text>
    <path
       style="stroke:blue;stroke-width:1.0"
       d="M273.608937,158.924628L273.015989,153.534721L272.325559,145.702696L271.590914,138.830850L271.053056,140.694754L270.402515,138.742529L269.935570,142.060468L269.475262,144.858463L268.875066,144.151610L268.223410,142.564023L267.643381,142.520263L267.050082,142.265974L266.627829,144.712739L266.356366,149.049977L266.152509,153.798612L265.608710,153.621303L265.013809,152.842242L264.798217,156.550809L264.107013,154.649881L263.557456,154.421637L262.443650,148.534957L261.247905,142.361322L260.668038,142.393153L260.517558,146.244818L260.152638,147.976381L259.860558,150.187284L258.804369,146.169369L257.051812,137.077812L256.801520,139.753491L256.645981,142.945464L256.933382,149.033385L257.875155,159.186006L257.466693,159.885595L256.621079,157.761206L255.927085,156.699097L254.046512,148.537173L253.645250,149.502316L252.874183,148.305220L251.685006,144.838639L250.654857,142.412592L249.980738,142.000179L249.883721,144.608177L250.080295,148.591117L251.971360,160.803256L251.229904,159.716063L250.763699,159.986305L249.418437,156.166114L248.003612,152.192246L246.355022,147.342851L245.453988,145.956901L245.442771,148.440369L244.982699,148.948252L245.633187,154.017046L245.726724,156.650126L245.617871,158.388171L245.144727,158.648455L244.931691,159.899794L243.627600,157.008518L242.959900,156.573687L242.617524,157.340372L241.736641,156.162249L240.639628,154.268307L239.047362,150.728923L237.697807,148.133488L236.697762,146.795157L237.455812,151.296511L238.842193,157.702516L237.018481,153.663352L236.731312,154.585352L234.993343,150.987744L234.158443,150.258977L235.648092,156.553231L235.010867,156.362125L233.664512,154.107393L230.590547,146.939051L230.876630,149.529421L230.038514,148.901122L230.707500,152.464569L232.213126,158.220996L230.615742,155.473012L231.046948,158.193424L232.075141,162.413782L231.671431,162.822922L231.783839,164.545550L228.857810,158.561958L225.819460,152.453570L226.008475,154.444040L224.769231,152.919500L227.252083,160.373040L229.522459,167.147278L225.400259,158.785563L224.611590,158.345510L222.958937,155.944464L220.980015,152.867305L223.053041,158.921432L223.493736,161.235759L223.947323,163.530401L224.354241,165.677227L222.127271,162.159390L221.959533,163.070955L220.960785,162.233270L221.028064,163.619202L220.767973,164.311730L218.922221,161.793270L218.767103,162.710527L217.053344,160.534450L215.434194,158.595109L214.162932,157.375041L212.129651,154.728537L211.703868,155.186094L214.104258,160.933674L214.894782,163.583463L216.155577,167.046786L215.464845,166.900983L216.088163,169.125004L216.068581,170.165479L215.811795,170.772444L214.668958,169.827790L211.687341,165.733815L211.610472,166.689762L212.020653,168.456227L214.049291,172.904347L215.001386,175.485035L212.717158,172.705121L209.517365,168.495236L205.206985,162.583286L206.112335,165.110910L207.322290,168.077125L207.229220,168.953454L208.994028,172.698242L208.366901,172.705561L207.901592,172.964278L208.143719,174.289280L205.452702,171.217954L204.979645,171.488321L205.206906,172.784968L204.831000,173.188069L204.828169,174.125674L202.150748,171.242287L201.862541,171.789180L201.848922,172.715836L203.851591,176.424947L207.749785,182.674610L206.520715,181.841289L205.399770,181.174160L202.795853,178.543417L196.784117,171.454153L197.228860,172.968585L196.175457,172.514133L194.747812,171.591676L196.862842,175.215973L195.826105,174.792880L196.294779,176.271782L200.677695,182.597055L202.396547,185.533553L199.149069,182.358161L196.620033,180.114160L194.551919,178.468616L192.910566,177.365626L195.473313,181.244485L197.599423,184.551350L194.226469,181.436573L195.214783,183.389861L194.860422,183.786984L193.568214,183.125142L196.143483,186.806359L196.625889,188.109363L197.546664,189.877462L197.052065,190.078775L196.394636,190.106615L194.348794,188.653427L193.081359,188.057566L191.139997,186.769100L190.521910,186.889356L188.339989,185.396935L184.739389,182.482619L183.988211,182.520716L181.510834,180.826142L178.126143,178.261760L178.186328,179.159129L178.571258,180.366981L180.523805,183.086331L187.564508,190.673111L185.672393,189.594971L186.576132,191.192054L184.002381,189.500830L180.498305,186.979143L180.997363,188.204379L179.809232,187.871194L180.041415,188.839661L178.566089,188.262688L180.752318,190.967679L183.032555,193.715918L183.173985,194.549503L182.711834,194.851349L181.495048,194.505293L178.403034,192.572199L179.464142,194.193024L175.781988,191.816042L174.221316,191.251230L175.854797,193.335006L178.781608,196.445644L181.882411,199.649699L183.453366,201.577430L182.536436,201.500520L181.948711,201.691443L183.743278,203.746265L184.631468,205.070241L186.019880,206.761257L184.104021,205.917698L181.788108,204.794995L180.413147,204.402012L179.787368,204.577612L177.648822,203.648764L176.256928,203.286627L177.487859,204.826328L178.501099,206.190523L178.829024,207.053308L180.973717,209.179738L175.972094,206.318267L172.082449,204.281461L171.862472,204.788667L170.694625,204.655534L173.660148,207.294814L176.731226,209.962941L170.452586,206.459513L163.789920,202.781080L156.642965,198.869646L157.715801,200.278814L164.888085,205.519627L171.703022,210.446223L176.621512,214.113281L173.566490,212.830986L170.949923,211.848127L171.232936,212.635794L173.545358,214.624595L171.673881,214.117815L172.807181,215.382788L172.261215,215.661641L170.617256,215.316022L171.408361,216.364686L164.492102,213.082934L160.649404,211.581729L160.677231,212.245709L160.071325,212.561993L163.032441,214.799878L162.648977,215.222095L161.677021,215.335852L162.994673,216.650306L163.377162,217.465364L165.070915,218.942130L163.727658,218.865556L160.002953,217.612551L159.116787,217.798443L156.513961,217.153128L161.010815,219.961166L161.005098,220.568468L164.093364,222.634162L166.679315,224.430075L161.970449,222.829212L158.285435,221.742824L157.128774,221.833165L152.253310,220.275219L155.427669,222.312636L161.768601,225.693579L160.337823,225.662647L165.215884,228.326391L164.455375,228.569672L163.880760,228.895798L163.584851,229.339956L160.483573,228.649634L158.191318,228.312029L158.921375,229.188288L160.748751,230.482768L162.711161,231.808940L162.976007,232.469148L162.871049,232.986317L162.023718,233.228231L161.469924,233.583810L164.467145,235.221023L164.029935,235.607940L164.566196,236.338263L164.031542,236.692012L162.353580,236.660213L165.011158,238.097696L157.651262,236.195350L154.043933,235.585205L150.255469,234.949965L142.633023,233.136844L140.602227,233.136647L138.133005,233.019615L138.714822,233.845673L142.549448,235.631351L150.547275,238.596868L152.012041,239.605219L150.380522,239.721806L146.374476,239.191222L147.482738,240.096587L153.681294,242.359694L158.343515,244.157472L155.788275,244.035951L154.024675,244.138855L152.049340,244.203819L153.123316,245.035505L161.648170,247.653624L159.790404,247.735086L162.302032,248.846514L158.210590,248.431755L156.959508,248.686539L160.873126,250.079454L157.623047,249.904076L161.049689,251.154454L158.803313,251.211359L159.076788,251.792159L159.939513,252.484877L157.741964,252.583889L158.288480,253.214055L155.486686,253.228495L151.817177,253.113088L154.129014,254.065694L150.089005,253.925094L147.899722,254.123795L151.655276,255.291148L142.919166,254.483908L143.225454,255.118000L142.516342,255.599910L138.694029,255.645313L147.322127,257.436570L151.023474,258.494776L150.782142,259.012126L149.547446,259.407530L148.499688,259.835649L149.708782,260.533023L153.127495,261.464590L157.861830,262.505862L158.644029,263.100843L160.676055,263.810819L161.786892,264.416406L161.861792,264.919543L160.057622,265.262451L158.612726,265.649656L158.027821,266.114481L150.836192,266.111109L143.686784,266.173110L132.732385,266.058088L122.752808,266.095400L124.121148,266.833679L128.589842,267.713998L138.220001,268.789435L144.083670,269.626093L143.750352,270.184073L148.602971,270.912481L149.549837,271.489177L151.976132,272.092462L160.656448,272.795117L151.726542,273.159192L145.608339,273.630642L140.718465,274.162919L130.534026,274.727720L137.566576,275.338668L143.610071,275.895199L142.898973,276.474593L152.723849,276.896791L151.416563,277.454699L155.022120,277.905116L161.817003,278.233159L159.475723,278.802925L160.455884,279.269422L154.986001,279.996051L147.422295,280.866816L141.344235,281.728936L142.391927,282.254489L135.297124,283.252148L134.250151,283.928405L137.197348,284.343331L134.564320,285.135598L141.109776,285.248700L144.412148,285.567361L146.059908,285.998651L150.894095,286.130157L156.759636,286.122683L160.787924,286.245056L165.527413,286.259333L165.483214,286.745420L163.945768,287.399064L164.065731,287.874374L164.148632,288.353584L164.209215,288.835362L161.915373,289.621557L161.884512,290.125991L161.938775,290.619521L161.904246,291.125832L161.061498,291.751901L156.575861,292.937900L147.998120,294.802559L139.237508,296.773738L135.213386,298.043134L137.072355,298.353280L142.600336,298.010055L146.323942,297.939870L151.350064,297.599106L156.320623,297.224453L157.847638,297.466288L162.600148,297.062126L164.117025,297.265625L161.089137,298.389456L158.032157,299.547762L151.887453,301.396844L145.888438,303.270974L145.189545,304.016183L146.824547,304.236570L149.960681,304.093879L153.351696,303.863120L156.474829,303.667149L157.969144,303.845033L158.766365,304.185321L154.253428,305.877327L148.718796,307.878403L150.403463,308.019042L146.727744,309.590857L150.353248,309.195367L156.453672,308.076808L151.097288,310.152855L155.946619,309.337164L157.621342,309.407781L156.685888,310.241469L162.270482,309.112470L155.887696,311.610128L154.590113,312.582849L152.484510,313.825580L152.256220,314.486158L157.691716,313.301339L158.070387,313.741239L159.737737,313.745915L158.939789,314.576751L157.602736,315.603463L156.924736,316.413760L155.470505,317.508491L150.829977,319.768064L154.363846,319.087743L151.042833,320.913504L142.369930,324.782931L148.838052,322.982113L145.708040,324.817211L151.109301,323.355892L160.587635,320.230750L161.405320,320.479709L165.718520,319.305248L170.911644,317.727851L172.524354,317.587535L172.209980,318.243374L171.089604,319.247573L168.140687,321.053310L167.918950,321.702100L167.330057,322.517322L169.108316,322.283808L166.632877,323.955523L165.213347,325.172839L165.953872,325.408844L164.324365,326.747479L165.668630,326.699562L169.228786,325.580086L169.115599,326.201185L169.052818,326.801244L170.028949,326.890837L165.431668,329.757665L166.136810,329.998245L167.102693,330.100583L163.026652,332.797454L162.167062,333.863999L160.718946,335.253180L160.495371,336.008926L166.040727,333.664117L168.608541,332.879817L166.116940,334.850450L167.843743,334.509548L166.860960,335.672172L168.981512,335.090116L173.709415,332.993857L169.408117,336.067840L167.677221,337.693314L163.866716,340.569141L164.714865,340.716983L168.178200,339.284401L167.804489,340.145988L166.433557,341.627397L163.669952,343.991736L162.249403,345.552553L163.029325,345.744002L168.078830,343.206093L174.262346,339.879666L175.708030,339.561232L177.771560,338.822814L179.332709,338.395076L174.013530,342.553767L168.243863,347.087319L166.819146,348.736379L162.297685,352.538206L162.222982,353.314389L168.154114,349.886534L170.530467,348.900583L171.140081,349.149148L173.967900,347.795682L167.419818,353.226699L165.646709,355.245353L169.962027,352.783742L170.728897,352.920272L173.545810,351.505094L172.093707,353.304442L171.127528,354.755308L172.832663,354.154713L174.892821,353.257641L176.694300,352.540505L178.912374,351.471164L177.076469,353.630283L177.639828,353.876786L178.723907,353.694487L178.112985,354.899230L178.140052,355.587174L180.075021,354.678418L180.987673,354.611831L180.577901,355.666558L183.109273,354.197844L179.748795,357.818812L181.354270,357.140754L184.156804,355.384246L181.877050,358.126412L183.754981,357.165875L180.440097,360.898559L176.225929,365.513880L176.895266,365.688594L178.568087,364.923121L183.941170,360.656089L188.582335,357.001589L186.714682,359.506491L187.781624,359.215103L183.467284,364.153334L183.952027,364.456089L188.159293,361.067815L191.002570,358.977113L190.884723,359.829581L189.872401,361.600541L191.426823,360.762115L188.700179,364.334180L191.509641,362.181518L186.921984,367.776370L189.972646,365.346634L191.959063,364.008405L188.773687,368.232289L193.041637,364.394362L190.506699,367.967752L186.093860,373.682051L191.238197,368.789071L191.538365,369.275026L188.368720,373.717035L192.230974,370.147450L190.808754,372.636639L193.819489,369.977161L198.539335,365.246887L199.628718,364.749569L199.442730,365.769697L195.952195,370.807337L193.594522,374.543609L194.437073,374.392263L196.184578,373.105473L198.517652,371.053980L202.362304,367.044127L203.211965,366.785490L204.682451,365.715612L203.300207,368.334303L202.357883,370.417061L203.534327,369.723686L202.616958,371.812460L203.575187,371.402203L204.846371,370.552458L204.507267,371.894865L205.813650,370.973800L206.735412,370.568582L206.824292,371.327132L208.280501,370.144423L207.301230,372.439623L209.810600,369.704170L210.374044,369.765412L208.703948,373.128495L209.960180,372.177482L209.289211,374.109774L210.627484,373.014169L209.470274,375.728138L211.234640,373.954894L212.103747,373.544777L210.862998,376.459027L212.731495,374.458281L212.239382,376.220370L213.694910,374.839791L215.135678,373.451038L216.168878,372.706543L215.585812,374.653062L213.927937,378.453985L214.289768,378.870300L214.903098,378.855063L216.918428,376.386898L219.684274,372.539900L219.227631,374.349548L217.469633,378.533415L216.539449,381.293562L214.975712,385.269752L215.862182,384.775468L218.065554,381.795177L219.615611,379.984942L220.801538,378.828587L222.098360,377.427686L222.921584,376.918458L222.989478,377.887463L223.029788,378.927850L223.703001,378.706605L224.430090,378.365404L225.765357,376.754763L227.187756,374.921092L227.175396,376.073546L227.979384,375.502617L227.526757,377.630542L226.631815,380.770077L226.458935,382.380442L225.934550,384.810295L226.277831,385.327753L226.404854,386.348011L227.867097,384.291586L229.213484,382.452309L229.628886,382.774733L230.670333,381.594856L231.520348,380.846904L231.667445,381.808063L229.439290,388.717266L230.569967,387.307458L230.067654,390.037199L230.492487,390.428319L233.499969,384.038866L234.118482,383.835183L234.260209,384.907553L234.126601,386.756965L234.942294,386.021053L236.166755,384.111466L236.071401,385.903881L236.216279,387.048069L237.599277,384.592138L236.970332,388.041006L237.172905,389.078082L237.374618,390.143567L237.667106,390.954075L237.863534,392.087067L238.797771,390.888008L240.185131,388.173867L240.331203,389.468084L241.162319,388.500893L241.914809,387.765714L242.498360,387.586981L242.715341,388.688478L243.066477,389.341967L243.959200,388.040738L244.147530,389.299306L244.934186,388.341867L243.321264,396.552853L243.017697,399.941680L243.252672,401.307731L243.080803,404.368746L244.920476,399.233144L246.461608,395.150282L247.198072,394.355967L248.643561,390.419942L250.026276,386.598782L249.783658,390.028089L248.894768,396.608970L248.308828,402.028116L248.253032,405.102799L248.465438,406.976901L250.608867,399.106581L252.037110,394.585527L252.849424,393.126917L254.288217,388.168739L254.824319,388.012728L254.873299,390.643028L255.301726,391.169941L255.584408,392.603570L256.023883,393.136132L256.663640,392.411953L257.203585,392.298429L257.591748,393.203995L258.059022,393.607314L257.795045,399.315479L257.598257,404.894862L258.381842,403.282505L258.771332,404.700720L259.315363,404.937286L260.382399,400.689559L260.439332,405.129508L261.035400,404.912474L262.197677,399.179643L262.695775,399.660418L263.216902,399.936792L263.445962,403.482986L263.524238,409.150157L263.853497,412.331446L264.201060,415.631564L264.694559,417.309473L265.344518,416.897882L266.065074,415.315373L266.802929,413.202480L267.400385,413.303368L267.917631,415.001520L268.451857,416.646882L268.986196,418.626154L269.579051,419.499257L270.278868,417.369954L270.961672,415.181394L271.598957,414.068871L272.301020,409.246278L272.927048,406.579880L273.536576,403.319204L274.117612,400.068853L274.666103,398.384803L275.199303,396.317202L275.727355,396.390609L276.258938,396.741116L276.822661,399.068506L277.403854,401.246449L277.966389,401.812700L278.497234,401.055074L279.142833,404.074043L279.743559,405.136514L280.586037,411.892223L281.492979,418.767347L282.334701,423.110498L283.240422,427.933446L283.833628,426.663172L284.474854,426.331587L284.524081,417.199032L284.853110,413.101466L285.288696,410.879310L285.620235,407.595918L286.447318,410.514285L286.667018,406.304343L287.514142,409.214602L288.681689,415.140500L290.296622,424.936486L291.891378,433.728362L292.415322,432.153656L293.023596,431.425387L293.152694,426.739536L293.600307,424.949099L294.230672,424.698807L294.705351,423.288018L295.734422,426.000056L296.520294,426.821182L297.904582,431.680295L299.032095,434.542291L299.837923,435.159848L300.201404,432.964237L300.702952,431.723934L300.912309,428.809089L301.382993,427.550203L302.115537,427.824945L303.062955,429.261479L304.278573,432.061611L305.019628,432.238050L305.745570,432.322999L306.134504,430.712596L306.799671,430.518380L306.642483,426.392071L306.805540,423.934917L307.141870,422.368907L307.878554,422.659267L308.581471,422.783619L309.156175,422.344209L310.489869,425.126700L310.613344,422.775542L312.237098,426.615243L312.349340,424.266689L311.594485,418.594972L313.207363,422.244900L314.431762,424.289902L316.365813,428.898382L317.868921,431.767632L317.962698,429.467098L313.938860,412.677775L311.334836,401.369426L307.543105,386.356275L304.158440,373.186634L305.113095,374.808676L305.384102,374.145637L307.973762,380.948961L312.867312,394.833351L317.087964,406.201142L321.696477,418.419853L324.643736,425.249030L326.447028,428.463091L327.403695,429.089892L328.955539,431.418081L329.966714,432.129388L329.972522,429.980182L330.030925,428.029245L330.677275,427.737321L330.607926,425.509599L330.037706,421.996563L330.020464,420.026683L330.725142,419.979818L332.061516,421.550317L335.307194,427.915887L336.913512,430.010274L336.810333,427.819185L336.798944,425.899730L336.726311,423.873003L337.328661,423.497115L338.189465,423.732083L340.515408,427.362197L340.378649,425.240293L341.952972,427.047355L343.212297,428.098517L342.457181,424.649596L343.482648,425.177790L343.221427,422.897750L344.316657,423.569904L345.521616,424.452745L345.511703,422.763210L346.585072,423.349217L346.369744,421.274282L346.772316,420.490417L346.173386,417.708684L346.453780,416.724298L347.510453,417.277518L348.579231,417.835764L351.299093,421.546657L350.109676,417.743169L350.283511,416.575991L350.261915,415.062551L352.170183,417.127920L354.284935,419.520378L355.313372,419.897082L356.510407,420.560125L356.441345,418.964527L357.348862,419.102793L358.658447,419.927669L358.969190,419.015785L358.815522,417.326111L359.472478,417.025457L359.499030,415.673998L359.265491,413.912976L357.883701,410.304564L358.167751,409.452019L359.056361,409.576845L360.123799,409.975824L359.531740,407.753941L358.946328,405.577657L359.303862,404.888490L358.754188,402.820879L362.074835,406.636282L363.269812,407.189816L363.362914,406.091170L365.129839,407.465861L365.392735,406.617852L365.760101,405.928950L365.825789,404.814285L366.069694,403.965199L367.529405,404.830327L368.659754,405.214432L370.534435,406.609548L372.437171,408.010137L372.632444,407.068046L374.034542,407.752999L372.529298,404.555837L370.748363,401.045494L372.036164,401.594013L371.965781,400.369179L372.723696,400.220004L371.691879,397.793071L368.947664,393.246430L367.471218,390.354528L366.271543,387.848809L369.372630,390.650722L372.541920,393.478941L374.752123,395.095334L377.748640,397.614104L377.334457,396.046581L378.346018,396.170333L380.276625,397.352186L381.650025,397.863529L381.028351,396.079603L380.801290,394.765383L381.435615,394.432577L382.673053,394.768376L385.799174,397.172787L385.428441,395.704916L384.121549,393.239760L380.043055,387.831927L379.584309,386.364096L381.928114,387.872110L380.373315,385.266410L384.303121,388.387322L381.470545,384.491894L381.210097,383.277887L383.889831,385.048315L383.371034,383.575477L387.265831,386.503536L387.647875,385.913994L384.414938,381.797661L385.808601,382.220933L386.219987,381.686350L386.968583,381.473305L392.211562,385.492267L391.627680,383.987830L391.483190,382.907673L391.303579,381.805184L386.322272,376.341816L388.022946,376.994677L388.177693,376.244767L389.622253,376.643091L396.603593,381.892816L395.475538,379.975969L391.307903,375.458008L389.474502,373.008455L389.658492,372.305023L393.081068,374.329459L399.937321,379.172469L403.704844,381.368375L404.233940,380.863114L398.301211,375.110386L395.271995,371.786099L389.183152,366.070937L385.987763,362.735327L390.192013,365.247540L387.046061,361.999121L390.097010,363.568423L389.941630,362.655628L388.277139,360.609698L393.119518,363.464884L393.477901,362.931628L398.314753,365.692405L401.708225,367.341744L401.341041,366.235530L403.969024,367.282588L403.948722,366.422769L404.947609,366.284361L407.795043,367.424715L406.853345,365.920663L401.554463,361.457112L398.476015,358.568752L400.078651,358.862612L403.519997,360.362122L408.758043,363.005275L412.389199,364.540657L413.258065,364.252666L406.859252,359.311745L405.812132,357.842941L404.535187,356.247137L405.473389,356.047092L409.202553,357.556891L410.945920,357.816561L413.225862,358.383419L410.622941,356.010878L410.638855,355.222095L408.473702,353.160024L407.554788,351.849731L408.566075,351.661863L407.877390,350.500241L404.244567,347.694374L402.356297,345.904992L404.092356,346.137869L409.156868,348.169926L414.076690,350.070317L416.015659,350.326823L416.505094,349.799096L414.257255,347.837824L416.777445,348.372507L416.056306,347.223300L416.057571,346.451385L417.986995,346.649029L420.304712,347.021529L422.422748,347.274416L419.633392,345.128397L414.657937,341.967363L410.063107,339.043154L408.350961,337.522429L411.966087,338.492275L415.781345,339.518557L417.933389,339.754138L420.117709,339.984565L419.395086,338.908535L413.872566,335.743420L409.455201,333.115950L410.150360,332.720152L412.034233,332.821363L419.778337,335.348592L420.698915,334.989928L413.721817,331.412869L406.198211,327.689541L402.739768,325.656608L407.555253,326.900251L414.933161,329.088304L422.964162,331.454129L419.956174,329.585477L418.587565,328.358262L416.161920,326.759312L414.612594,325.503519L420.986313,327.092306L424.210988,327.512559L425.187053,327.123131L424.837145,326.272666L424.146821,325.312932L423.860092,324.496202L425.551616,324.332551L424.693788,323.331567L425.620407,322.908427L424.405076,321.807352L425.233379,321.350337L427.593150,321.352559L427.591934,320.628291L424.608539,319.028289L419.885706,316.954604L416.245751,315.235635L418.117349,315.096693L413.579239,313.176072L417.343820,313.547911L418.123118,313.091648L419.201105,312.707776L422.596326,312.910599L426.178086,313.130520L431.150018,313.663049L429.713366,312.594003L433.767233,312.848583L431.729907,311.643298L428.910397,310.278873L426.889909,309.121162L424.574244,307.918304L424.582032,307.238631L427.095844,307.088879L432.585941,307.531980L434.279369,307.159994L434.875044,306.557261L436.744455,306.196054L435.495882,305.231885L437.109490,304.806403L438.282087,304.288472L433.232146,302.672910L432.904408,301.908401L433.990766,301.382526L432.766605,300.474882L434.550650,300.051480L430.294537,298.691664L424.251794,297.106024L416.833309,295.377298L421.849346,295.446535L424.078973,295.096465L423.346135,294.341180L432.496308,294.837970L427.337568,293.515527L427.051018,292.810017L431.956719,292.693015L425.696411,291.323939L421.041564,290.177427L420.112061,289.443210L421.007337,288.891321L426.366452,288.737219L433.561082,288.695180L436.229794,288.219528L432.996159,287.262900L432.044734,286.502187L429.531529,285.642671L423.748283,284.594597L424.133645,283.968357L419.571485,283.063157L420.013043,282.455316L428.457917,282.220477L433.530595,281.768323L438.788406,281.279321L440.002788,280.607348L438.728905,279.851285L434.537327,279.032743L432.778369,278.301741L431.315813,277.591083L430.240158,276.897979L431.449048,276.232298L430.703906,275.549256L424.937508,274.876840L422.140890,274.239220L422.633881,273.594582L419.321728,272.998376L418.527432,272.385035L410.434517,271.943237L404.734926,271.507318L410.054706,270.776255L412.944457,270.085293L419.343266,269.228673L423.999210,268.393368L421.721726,267.854883L420.344106,267.288238L426.389924,266.307056L429.300909,265.466471L427.439540,264.915809L431.159789,263.987402L429.063786,263.461654L423.393316,263.237142L423.865108,262.548039L425.830089,261.722888L427.581426,260.899750L434.724147,259.538830L437.089808,258.598004L435.489880,258.054476L432.163520,257.714254L431.242757,257.127478L430.688082,256.504641L433.365317,255.487782L433.842596,254.727309L431.027458,254.396600L433.364879,253.386805L434.542380,252.518912L434.705030,251.787212L436.489984,250.810164L436.589294,250.076302L432.702002,249.973250L430.028034,249.705927L427.616537,249.417502L422.593968,249.599013L423.856653,248.714655L420.520435,248.650668L418.290873,248.410265L416.167398,248.168718L416.582704,247.451269L421.535125,245.825675L424.648169,244.528683L427.287940,243.300804L426.189099,242.842901L423.595336,242.718481L423.693134,242.019410L426.294645,240.751372L428.860564,239.466403L434.045420,237.539667L436.899128,236.123607L438.297375,235.035936L438.032435,234.348482L434.733960,234.432271L433.333619,234.054100L432.471649,233.545545L426.531821,234.403719L429.659844,232.843972L430.410943,231.912286L427.759821,231.931029L425.767545,231.784054L424.101139,231.559120L417.844454,232.707198L414.814484,232.942093L420.737603,230.468277L418.403080,230.498821L421.540146,228.825702L425.156115,226.967474L418.359624,228.453338L413.724011,229.290597L411.023323,229.523740L411.633113,228.658275L412.022364,227.860812L419.341234,224.639849L420.873955,223.392377L416.705263,224.172709L421.994316,221.552966L417.537264,222.470590L417.753819,221.684498L422.236962,219.279303L425.301456,217.371061L428.644454,215.321570L424.313777,216.255089L419.747991,217.323224L413.808852,218.989013L411.560763,219.204328L412.598772,218.080666L415.269381,216.260234L416.764968,214.907962L419.982639,212.798846L422.395180,211.003379L423.444901,209.778868L425.743516,207.985310L425.322845,207.387851L426.157777,206.220394L423.565332,206.618577L423.751206,205.747480L422.225250,205.677264L420.811211,205.566766L420.668687,204.855859L416.920568,205.898777L416.455402,205.362620L418.914449,203.372817L418.040475,203.029937L419.449575,201.531986L419.000238,200.970519L416.123714,201.671627L418.812488,199.478432L421.460834,197.273211L422.707923,195.786175L424.096703,194.204531L421.931545,194.549226L419.077409,195.295591L420.276582,193.805050L421.124311,192.495222L420.083850,192.248521L418.918706,192.081502L415.829970,193.043247L417.030101,191.515846L416.820710,190.806925L418.179645,189.155861L417.722256,188.584068L417.192682,188.057381L418.690681,186.280613L417.304402,186.279435L415.372628,186.633735L412.953318,187.316709L410.617125,187.971232L412.032901,186.218965L413.988248,184.091528L414.683218,182.767124L416.805175,180.477853L416.651925,179.687662L417.364572,178.306054L417.690178,177.175387L415.495063,177.779421L412.482397,178.977258L406.382562,182.384908L401.717201,184.846168L400.952401,184.562701L401.821128,183.100414L405.872740,179.293678L408.854787,176.216626L408.298590,175.728768L405.644918,176.818868L402.537518,178.283355L397.552054,181.221767L394.143638,183.005624L396.316763,180.482696L400.772383,176.129361L408.545316,169.076081L414.903827,163.038061L412.114193,164.288917L410.251319,164.817955L402.906904,169.872338L400.173480,171.203565L400.005457,170.422110L394.162175,174.426368L392.697692,174.782681L389.434324,176.699688L384.988649,179.684148L383.966388,179.737114L386.413954,176.739220L388.482865,174.033760L391.332875,170.588159L390.205230,170.692076L387.797561,171.975778L384.949474,173.696529L380.868706,176.601697L379.461321,177.059585L380.312185,175.397706L382.766386,172.184996L381.958711,172.063298L388.017296,165.281805L388.363436,163.984039L388.543050,162.836650L395.936054,154.489803L394.672961,154.706680L394.058977,154.278322L389.605729,157.778428L380.358859,166.294602L378.774660,166.993164L379.625235,165.155693L380.894271,162.850755L380.715480,162.060164L378.715603,163.226329L372.672478,168.816522L372.487988,168.087638L375.821745,163.461152L378.819303,159.135999L381.950004,154.592559L384.428783,150.717458L384.788188,149.210486L382.791748,150.408296L382.543999,149.596573L377.735469,154.143955L373.820466,157.719707L373.583122,156.963418L370.606344,159.510439L369.505656,159.823962L373.516662,153.865178L374.303376,151.807206L375.529806,149.169648L376.152464,147.254993L371.137431,152.497533L366.790432,156.983463L366.843117,155.850065L364.478966,157.867115L364.848563,156.316872L367.258190,152.026263L367.494322,150.588055L370.009243,146.037706L368.712103,146.633075L364.154444,151.754223L364.670452,149.898820L368.681920,143.094595L372.488017,136.463264L377.479121,128.016517L375.753042,129.144222L370.193692,135.902518L367.605110,138.414259L364.844125,141.237767L361.537467,144.942346L359.725737,146.456559L355.367522,151.907012L353.192862,154.092350L352.852679,153.462478L352.290096,153.177516L355.019720,147.654229L353.959111,148.120576L352.224515,149.696379L355.062322,143.817895L353.271110,145.489526L356.316462,139.119123L355.943695,138.397277L353.647279,140.946853L353.990046,139.011028L351.718826,141.588625L353.649888,136.843688L351.966301,138.422979L350.402056,139.827650L351.119717,137.135218L351.242812,135.481751L352.422425,131.847190L353.019052,129.232587L351.384346,130.782775L347.510699,136.645008L345.008282,139.995022L341.843282,144.715098L339.705174,147.520503L341.696126,142.169835L339.396719,145.346237L338.768641,145.196890L336.813564,147.781481L332.430731,155.482265L330.182457,158.870064L331.813296,154.084267L333.680394,148.686168L335.550515,143.163069L338.337153,135.499313L336.209182,138.613590L335.862164,137.792528L335.573965,136.824083L337.181750,131.462150L337.719747,128.476538L336.719666,129.061747L337.099904,126.364117L334.554113,130.696359L333.837523,130.655738L334.218358,127.894403L332.127729,131.286738L330.131896,134.530978L330.118501,132.749164L329.264723,133.124205L330.618961,127.666392L332.854345,119.704226L329.729894,126.114973L327.493675,130.257581L324.745100,135.952569L322.292388,140.973446L322.105983,139.628397L321.574982,139.255280L321.472903,137.609215L322.647015,132.093519L323.203628,128.300933L323.643878,124.761094L323.494538,122.969350L322.397584,124.145410L322.500866,121.485194L321.277946,123.101238L320.344340,123.810229L319.899711,122.891801L318.192141,126.297890L318.428806,123.018652L317.929823,122.253441L316.397576,125.207336L316.333824,122.864195L315.587946,122.999914L315.740564,119.722210L316.186098,115.196142L315.088240,116.608798L313.537243,119.904260L312.405144,121.613094L311.580845,122.107538L311.022474,121.494370L310.366065,121.289093L308.069194,128.356277L306.558489,132.163522L305.983385,131.813274L305.561550,130.730234L305.879488,126.036866L305.632738,123.924466L304.661527,125.376115L304.591432,122.249988L304.435341,119.435387L303.797423,119.098235L303.464667,117.057250L302.265967,119.845853L301.490554,120.314989L300.695421,120.933733L299.618511,123.328700L298.394462,126.797285L297.434471,128.751988L296.613690,129.894754L296.232603,128.070942L295.530967,128.425825L294.373928,132.167170L294.008162,130.136381L293.478022,129.266058L293.166068,126.555761L293.657914,116.834646L293.040106,116.136619L292.709831,112.754408L291.984185,112.868710L290.538404,120.174935L289.390883,125.048357L287.696054,136.370983L287.123198,135.971271L287.051465,129.484007L286.814606,124.383394L286.617200,118.153539L286.221045,113.999918L285.270873,117.777785L284.493431,119.269911L283.906491,117.632617L283.191046,118.188437L282.569810,116.884192L281.859807,117.365071L281.124115,118.615596L280.476290,117.661266L279.718587,120.049048L279.091171,118.248276L278.454676,116.151421L277.754513,116.672804L277.079055,115.656445L276.352484,119.508806Z"
       id="path38" />
    <line
       x1="50"
       y1="575"
       x2="100"
       y2="575"
       fill="none"
       stroke="blue"
       stroke-width="1.0"
       stroke-linejoin="round"
       stroke-miterlimit="10"
       id="line38" />
    <text
       x="125"
       y="578"
       style="text-anchor:start;fill:black"
       id="text38">GC-skew</text>
  </g>
  <g
     style="fill:pink;stroke:black"
     id="g48">
    <a
       xlink:title="1037177..1037184;modified_base;22;291;CGGTGATC"
       id="a39">
      <path
         fill="blue"
         stroke="blue"
         d="M477.852924,437.636684L477.283980,438.343783L476.712572,439.048890L476.138705,439.751999L475.562388,440.453100L468.678866,433.077503Z"
         id="path39" />
    </a>
    <a
       xlink:title="1145639..1145646;modified_base;24;261;CAGTGATC"
       id="a40">
      <path
         fill="blue"
         stroke="blue"
         d="M437.296424,484.487161L436.564189,485.052405L435.829985,485.615090L435.093821,486.175208L434.355707,486.732753L429.407064,477.937080Z"
         id="path40" />
    </a>
    <a
       xlink:title="1159287..1159294;modified_base;35;271;CGGTGATC"
       id="a41">
      <path
         fill="blue"
         stroke="blue"
         d="M425.121729,481.127306L424.401296,481.650073L423.679042,482.170322L422.954977,482.688047L422.229109,483.203241L417.500964,474.294945Z"
         id="path41" />
    </a>
    <a
       xlink:title="2386456..2386463;modified_base;25;357;CAGTGATC"
       id="a42">
      <path
         fill="blue"
         stroke="blue"
         d="M42.979893,157.668547L43.390869,156.859361L43.804668,156.051614L44.221284,155.245316L44.640712,154.440478L52.896702,160.238835Z"
         id="path42" />
    </a>
    <a
       xlink:title="2675376..2675383;modified_base;43;330;CGGTGATC"
       id="a43">
      <path
         fill="blue"
         stroke="blue"
         d="M153.958035,39.258950L154.781662,38.837871L155.606754,38.419669L156.433301,38.004350L157.261293,37.591919L160.509560,47.147111Z"
         id="path43" />
    </a>
    <a
       xlink:title="2888736..2888743;modified_base;22;342;CAGTGATC"
       id="a44">
      <path
         fill="blue"
         stroke="blue"
         d="M272.346801,20.013803L273.236885,20.006095L274.126991,20.001494L275.017107,20.000001L275.907223,20.001614L274.588719,30.000345Z"
         id="path44" />
    </a>
    <a
       xlink:title="427087..427094;m4C;44;296;CAGGGATC"
       id="a45">
      <path
         fill="blue"
         stroke="blue"
         d="M481.852119,117.481109L482.400702,118.204117L482.946758,118.929036L483.490280,119.655856L484.031263,120.384570L475.210351,125.280879Z"
         id="path45" />
    </a>
    <a
       xlink:title="571937..571944;modified_base;23;341;CAGTGATC"
       id="a46">
      <path
         fill="blue"
         stroke="blue"
         d="M525.194574,187.663437L525.497911,188.537311L525.798196,189.412239L526.095425,190.288210L526.389595,191.165212L516.477450,193.063188Z"
         id="path46" />
    </a>
    <a
       xlink:title="893194..893201;modified_base;28;321;CGGTGATC"
       id="a47">
      <path
         fill="blue"
         stroke="blue"
         d="M513.408747,365.478004L513.091468,366.309655L512.771287,367.140193L512.448209,367.969608L512.122238,368.797891L503.292107,363.925328Z"
         id="path47" />
    </a>
    <a
       xlink:title="498736..498743;modified_base;25;310;CGGTGATC"
       id="a48">
      <path
         fill="blue"
         stroke="blue"
         d="M468.590578,170.488334L468.954212,171.164728L469.315483,171.842387L469.674387,172.521304L470.030918,173.201468L478.335874,167.508037Z"
         id="path48" />
    </a>
  </g>
  <text
     x="275"
     y="265"
     style="text-anchor:middle"
     font-size="18"
     font-weight="bold"
     id="text48">10/171</text>
  <text
     x="275"
     y="295"
     style="text-anchor:middle"
     font-size="25"
     font-weight="bold"
     id="text50"><tspan
   fill="red"
   text-decoration="underline"
   id="tspan48">C</tspan>RGKG<tspan
   fill="red"
   text-decoration="underline"
   id="tspan49">A</tspan><tspan
   fill="blue"
   font-style="italic"
   id="tspan50">T</tspan>C</text>
  <line
     x1="50"
     y1="525"
     x2="100"
     y2="525"
     fill="none"
     stroke="green"
     stroke-width="1.0"
     stroke-linejoin="round"
     stroke-miterlimit="10"
     id="line50" />
  <text
     x="125"
     y="530"
     style="text-anchor:start;fill:black"
     id="text51">Contigs</text>
</svg>
