<?xml version="1.0" encoding="UTF-8" standalone="no"?>
<svg
   viewbox="0 0 550 625"
   version="1.1"
   id="svg44"
   sodipodi:docname="S.aureus_150_CRGKGATC_1,6,7_20.svg"
   inkscape:version="1.3.2 (091e20e, 2023-11-25, custom)"
   xmlns:inkscape="http://www.inkscape.org/namespaces/inkscape"
   xmlns:sodipodi="http://sodipodi.sourceforge.net/DTD/sodipodi-0.dtd"
   xmlns:xlink="http://www.w3.org/1999/xlink"
   xmlns="http://www.w3.org/2000/svg"
   xmlns:svg="http://www.w3.org/2000/svg">
  <defs
     id="defs44" />
  <sodipodi:namedview
     id="namedview44"
     pagecolor="#ffffff"
     bordercolor="#000000"
     borderopacity="0.25"
     inkscape:showpageshadow="2"
     inkscape:pageopacity="0.0"
     inkscape:pagecheckerboard="0"
     inkscape:deskcolor="#d1d1d1"
     showgrid="true"
     inkscape:zoom="1.0233333"
     inkscape:cx="103.58306"
     inkscape:cy="299.5114"
     inkscape:window-width="1920"
     inkscape:window-height="1017"
     inkscape:window-x="-8"
     inkscape:window-y="-8"
     inkscape:window-maximized="1"
     inkscape:current-layer="svg44">
    <inkscape:grid
       id="grid44"
       units="px"
       originx="0"
       originy="0"
       spacingx="1"
       spacingy="1"
       empcolor="#0099e5"
       empopacity="0.30196078"
       color="#0099e5"
       opacity="0.14901961"
       empspacing="5"
       dotted="false"
       gridanglex="30"
       gridanglez="30"
       visible="true" />
  </sodipodi:namedview>
  <circle
     cx="275"
     cy="275"
     r="240"
     fill="none"
     stroke="black"
     stroke-width="1.0"
     id="circle1" />
  <line
     x1="275"
     y1="15"
     x2="275"
     y2="55"
     fill="none"
     stroke="grey"
     stroke-width="1.0"
     stroke-linejoin="round"
     stroke-miterlimit="10"
     id="line1" />
  <line
     x1="495"
     y1="275"
     x2="535"
     y2="275"
     fill="none"
     stroke="grey"
     stroke-width="1.0"
     stroke-linejoin="round"
     stroke-miterlimit="10"
     id="line2" />
  <line
     x1="275"
     y1="495"
     x2="275"
     y2="535"
     fill="none"
     stroke="grey"
     stroke-width="1.0"
     stroke-linejoin="round"
     stroke-miterlimit="10"
     id="line3" />
  <line
     x1="15"
     y1="275"
     x2="55"
     y2="275"
     fill="none"
     stroke="grey"
     stroke-width="1.0"
     stroke-linejoin="round"
     stroke-miterlimit="10"
     id="line4" />
  <text
     x="249.05664"
     y="3.088829"
     style="text-anchor:start"
     id="text5">2,781,669</text>
  <text
     x="543.90027"
     y="279.11719"
     style="text-anchor:start"
     id="text6">0.69 Mbp</text>
  <text
     x="248.37109"
     y="554.00018"
     style="text-anchor:start"
     id="text7">1.39 Mbp</text>
  <text
     x="5.6997499"
     y="279.11719"
     style="text-anchor:end"
     id="text8">2.08 Mbp</text>
  <circle
     cx="328.750974"
     cy="41.096531"
     r="2.500000"
     fill="grey"
     stroke="black"
     stroke-width="1.0"
     id="circle8" />
  <circle
     cx="379.771160"
     cy="59.076393"
     r="2.500000"
     fill="grey"
     stroke="black"
     stroke-width="1.0"
     id="circle9" />
  <circle
     cx="425.468508"
     cy="88.026130"
     r="2.500000"
     fill="grey"
     stroke="black"
     stroke-width="1.0"
     id="circle10" />
  <circle
     cx="463.521390"
     cy="126.474967"
     r="2.500000"
     fill="grey"
     stroke="black"
     stroke-width="1.0"
     id="circle11" />
  <circle
     cx="491.996551"
     cy="172.469532"
     r="2.500000"
     fill="grey"
     stroke="black"
     stroke-width="1.0"
     id="circle12" />
  <circle
     cx="509.447327"
     cy="223.673099"
     r="2.500000"
     fill="grey"
     stroke="black"
     stroke-width="1.0"
     id="circle13" />
  <circle
     cx="514.987142"
     cy="277.484300"
     r="2.500000"
     fill="grey"
     stroke="black"
     stroke-width="1.0"
     id="circle14" />
  <circle
     cx="508.334548"
     cy="331.169287"
     r="2.500000"
     fill="grey"
     stroke="black"
     stroke-width="1.0"
     id="circle15" />
  <circle
     cx="489.827526"
     cy="382.000626"
     r="2.500000"
     fill="grey"
     stroke="black"
     stroke-width="1.0"
     id="circle16" />
  <circle
     cx="460.406316"
     cy="427.395860"
     r="3.000000"
     fill="black"
     stroke="black"
     stroke-width="1.0"
     id="circle17" />
  <circle
     cx="421.565644"
     cy="465.048710"
     r="2.500000"
     fill="grey"
     stroke="black"
     stroke-width="1.0"
     id="circle18" />
  <circle
     cx="375.278789"
     cy="493.046244"
     r="2.500000"
     fill="grey"
     stroke="black"
     stroke-width="1.0"
     id="circle19" />
  <circle
     cx="323.897328"
     cy="509.966064"
     r="2.500000"
     fill="grey"
     stroke="black"
     stroke-width="1.0"
     id="circle20" />
  <circle
     cx="270.031666"
     cy="514.948569"
     r="2.500000"
     fill="grey"
     stroke="black"
     stroke-width="1.0"
     id="circle21" />
  <circle
     cx="216.418417"
     cy="507.740624"
     r="2.500000"
     fill="grey"
     stroke="black"
     stroke-width="1.0"
     id="circle22" />
  <circle
     cx="165.781373"
     cy="488.708426"
     r="2.500000"
     fill="grey"
     stroke="black"
     stroke-width="1.0"
     id="circle23" />
  <circle
     cx="120.693117"
     cy="458.818894"
     r="2.500000"
     fill="grey"
     stroke="black"
     stroke-width="1.0"
     id="circle24" />
  <circle
     cx="83.444335"
     cy="419.590550"
     r="2.500000"
     fill="grey"
     stroke="black"
     stroke-width="1.0"
     id="circle25" />
  <circle
     cx="55.927427"
     cy="373.016365"
     r="2.500000"
     fill="grey"
     stroke="black"
     stroke-width="1.0"
     id="circle26" />
  <circle
     cx="39.540376"
     cy="321.462515"
     r="3.000000"
     fill="black"
     stroke="black"
     stroke-width="1.0"
     id="circle27" />
  <circle
     cx="35.115715"
     cy="267.548164"
     r="2.500000"
     fill="grey"
     stroke="black"
     stroke-width="1.0"
     id="circle28" />
  <circle
     cx="42.878238"
     cy="214.012399"
     r="2.500000"
     fill="grey"
     stroke="black"
     stroke-width="1.0"
     id="circle29" />
  <circle
     cx="62.433573"
     cy="163.575075"
     r="2.500000"
     fill="grey"
     stroke="black"
     stroke-width="1.0"
     id="circle30" />
  <circle
     cx="92.788223"
     cy="118.798629"
     r="2.500000"
     fill="grey"
     stroke="black"
     stroke-width="1.0"
     id="circle31" />
  <circle
     cx="132.400038"
     cy="81.957904"
     r="2.500000"
     fill="grey"
     stroke="black"
     stroke-width="1.0"
     id="circle32" />
  <circle
     cx="179.256561"
     cy="54.924572"
     r="2.500000"
     fill="grey"
     stroke="black"
     stroke-width="1.0"
     id="circle33" />
  <circle
     cx="230.977276"
     cy="39.072045"
     r="2.500000"
     fill="grey"
     stroke="black"
     stroke-width="1.0"
     id="circle34" />
  <circle
     cx="275"
     cy="275"
     r="140"
     fill="white"
     stroke="grey"
     stroke-width="0.5"
     id="circle35" />
  <circle
     cx="275"
     cy="275"
     r="120"
     fill="none"
     stroke="black"
     stroke-width="0.5"
     id="circle36" />
  <g
     style="fill:none;stroke-linejoin:round;stroke-miterlimit:10"
     id="g37">
    <path
       style="stroke:black;stroke-width:1.0"
       d="M273.165373,131.733969L272.556192,133.937834L271.914715,133.755915L271.340360,136.187122L270.676430,135.011196L269.976246,133.116690L269.349740,133.501656L268.653822,132.252108L267.965526,131.394410L267.399978,132.980987L266.777793,133.349543L266.214301,134.607968L265.634107,135.452838L264.862832,133.529394L264.052886,131.333137L263.196065,128.809103L262.630187,129.971012L262.114334,131.577688L261.732832,134.458156L261.467358,138.251297L260.818263,138.009895L260.199548,138.075360L259.553146,137.895190L258.730148,136.228276L257.659997,132.663435L256.529444,128.885037L255.411315,125.472080L254.784538,125.919934L254.304110,127.388216L254.079379,130.534720L253.743067,132.746105L252.842657,131.168897L252.493496,133.163444L251.942515,133.814858L251.539590,135.317560L250.913531,135.452342L250.026404,134.112954L248.912900,131.603606L248.321414,132.023291L248.202853,134.900872L247.847992,136.440844L247.725084,139.070531L246.764851,137.508117L245.738555,135.706979L244.695419,133.912347L243.700995,132.422786L243.099764,132.755368L242.804745,134.417231L242.530406,136.105875L243.018317,140.928378L242.734766,142.396749L241.420311,139.659106L240.782001,139.704466L239.172867,135.987000L238.397102,135.586058L238.004449,136.638394L236.752281,134.501930L236.288564,135.291840L235.220602,133.917496L234.576001,134.071940L234.974439,137.802595L233.809958,136.147291L233.415688,137.106034L232.524544,136.418877L230.973802,133.641798L231.047941,136.093241L230.250884,135.764304L230.277361,137.974802L229.920938,138.969267L229.962288,141.122567L229.743910,142.457762L228.527181,140.878777L227.792774,140.723213L226.253528,138.321486L225.513732,138.203521L225.259808,139.419445L224.822153,140.114157L225.222968,143.019256L224.736364,143.530880L224.032553,143.474379L223.418592,143.654258L221.572754,140.739882L220.364326,139.488377L218.964956,137.807919L218.303278,137.959789L217.566684,137.935502L217.913798,140.472158L217.964618,142.262710L217.775565,143.464177L217.405857,144.232461L216.103096,142.895636L215.266972,142.631351L214.496502,142.523539L214.201651,143.453806L213.796288,144.132400L212.873037,143.707186L212.076642,143.563258L211.338221,143.548856L210.769474,143.887683L210.264154,144.353415L210.408885,146.112391L210.869549,148.462021L210.349239,148.851906L210.278466,150.107109L208.812477,148.678423L206.877171,146.401344L206.821466,147.689902L207.556235,150.417566L207.540829,151.722603L207.670272,153.268291L207.039706,153.428220L204.988207,151.076126L203.079372,149.029616L201.969652,148.417445L200.055513,146.444886L200.490600,148.508022L200.260877,149.418798L201.354738,152.519189L202.648108,155.891969L199.132438,151.366561L199.379631,153.009087L198.917753,153.493210L197.612370,152.640858L200.559604,158.469441L201.976603,161.817948L201.238571,161.799894L201.476154,163.271281L200.879918,163.465758L199.633832,162.694599L198.176703,161.633506L197.900647,162.325585L195.544998,160.001175L194.025035,158.926028L192.621723,158.043976L190.178522,155.723465L190.223761,156.920188L188.859789,156.157331L188.258176,156.458018L188.268194,157.588401L189.548654,160.408632L189.349265,161.217495L188.987374,161.804641L188.189490,161.819666L185.689487,159.643162L185.716599,160.748198L184.633680,160.432981L184.705279,161.581269L184.402615,162.250179L183.771709,162.509585L184.337698,164.234082L184.386654,165.308671L184.034343,165.889826L183.524477,166.280626L182.638714,166.229152L180.702272,164.960104L181.114633,166.437756L181.702786,168.097771L182.377436,169.833614L182.973576,171.457340L182.117272,171.439872L180.960698,171.098519L180.698340,171.750022L181.023532,173.034967L181.244889,174.192806L180.505306,174.313557L179.325596,173.975059L177.565170,173.042714L177.028440,173.403940L177.674683,174.982323L177.632539,175.839241L177.517939,176.615562L175.228308,175.210446L172.174341,173.080969L169.317136,171.191220L166.918516,169.790270L166.104468,169.951753L167.357791,172.095537L169.213019,174.779839L171.475032,177.806477L173.802850,180.848423L173.909528,181.796102L174.555880,183.228039L175.769057,185.155596L174.475141,184.807119L173.861124,185.077595L172.476335,184.672351L169.537382,182.925920L167.841055,182.294681L168.077117,183.340168L167.685301,183.842116L167.295838,184.345733L168.060683,185.811744L166.952248,185.711828L165.432388,185.285758L166.451941,186.936694L167.116087,188.280712L167.116548,189.080458L167.994294,190.566693L166.497857,190.178449L164.776138,189.631931L163.774546,189.657275L162.748832,189.673126L162.719546,190.448454L162.071545,190.757237L162.429343,191.813041L161.516749,191.928652L160.535449,192.001901L160.139107,192.503643L156.327149,190.575831L154.811617,190.312810L154.361928,190.808940L153.502957,191.023113L155.852521,193.440026L157.209718,195.148133L157.103874,195.851383L157.695945,197.015313L159.525790,198.981783L159.648959,199.807598L159.287112,200.314405L158.365736,200.463954L155.025563,199.090538L154.683863,199.633303L153.896085,199.899456L154.647003,201.115819L154.219503,201.602571L153.746339,202.063043L156.210598,204.274188L158.213670,206.179496L158.671805,207.155604L156.080985,206.362667L152.467611,205.013149L148.839684,203.694916L149.246168,204.672333L150.874146,206.317053L152.148895,207.745523L151.724195,208.235052L148.681511,207.323404L147.198952,207.270389L146.549848,207.667878L146.641552,208.453407L149.605025,210.706866L150.059110,211.650854L148.656780,211.655688L149.715838,212.893318L149.237002,213.362130L148.834843,213.870340L149.386707,214.836889L146.957043,214.382794L145.325874,214.326155L142.304902,213.641818L139.603605,213.133639L138.591305,213.414457L136.259632,213.114751L137.684576,214.492611L138.864406,215.745458L139.567852,216.777953L141.479563,218.313078L141.532251,219.045719L142.256140,220.052947L142.420686,220.821311L144.392713,222.314477L145.214143,223.326320L145.705931,224.197598L146.125230,225.033248L144.084712,224.921244L142.716301,225.081658L140.201240,224.827077L139.011127,225.082388L137.350439,225.177262L138.670319,226.350430L139.552494,227.353944L140.388440,228.330288L141.861286,229.513632L141.788790,230.159866L143.459574,231.382841L142.181255,231.623964L141.061117,231.926779L141.159202,232.624524L140.597858,233.113881L141.684734,234.112434L141.660943,234.763259L134.184096,233.200158L126.690553,231.703835L115.870008,229.324103L116.734649,230.345169L123.226487,232.916145L128.424936,235.069759L137.074359,238.094562L134.840366,238.174501L133.303660,238.454252L134.136368,239.346927L134.327210,240.070671L134.818589,240.864256L134.881957,241.549482L134.705225,242.176485L135.912160,243.120898L138.507012,244.363983L139.645146,245.261072L139.104821,245.785274L139.735364,246.559520L137.758054,246.790573L135.616706,247.006101L135.655214,247.668137L133.459713,247.900934L133.366041,248.545726L135.816840,249.653644L135.703757,250.282670L136.661032,251.096654L135.869627,251.606703L134.202781,251.979992L133.332078,252.494255L131.721929,252.901595L130.771928,253.421671L129.411364,253.890092L129.675089,254.598215L129.777083,255.281098L129.276356,255.883154L128.474978,256.450959L129.357743,257.230826L130.906662,258.080084L131.852992,258.846454L133.107064,259.636818L131.685257,260.137582L131.039090,260.727616L132.469419,261.519352L134.097593,262.315306L135.259509,263.056056L135.013167,263.671779L135.406574,264.338139L135.526071,264.980810L134.013332,265.512141L133.971909,266.149152L132.962785,266.729832L131.456769,267.292641L134.475285,268.091226L135.305763,268.764523L134.196556,269.352243L132.673428,269.935041L123.795160,270.302929L112.251765,270.680178L113.039271,271.433182L113.108131,272.166342L118.402090,272.966611L127.727501,273.753090L125.251168,274.408651L127.000024,275.084160L127.418576,275.750637L129.395604,276.398395L132.958608,277.005949L134.635497,277.616544L135.287467,278.235828L135.109141,278.872334L133.295678,279.563266L134.289306,280.167694L138.227426,280.641883L138.004570,281.271135L141.335680,281.723881L140.479864,282.376316L139.128111,283.066251L139.748083,283.642777L139.345100,284.284042L140.108732,284.844208L137.828227,285.633829L138.237567,286.223864L134.415285,287.177172L136.269828,287.648211L138.872309,288.031277L139.043124,288.635020L142.614651,288.881186L139.668899,289.808447L139.930371,290.397638L137.987638,291.246438L137.290485,291.960305L137.781817,292.529442L134.668038,293.571905L134.450639,294.247128L132.558762,295.162171L134.108044,295.592535L135.493474,296.034166L135.809507,296.630055L136.457218,297.170847L133.543835,298.292953L132.089390,299.196062L130.585515,300.122303L129.032435,301.072389L127.457704,302.042021L127.745172,302.677488L128.990037,303.127004L131.407782,303.334606L134.014971,303.482441L137.790225,303.365493L142.974670,302.916218L145.437086,303.007616L146.107411,303.472802L145.830906,304.146504L143.960817,305.191240L143.936303,305.821061L144.022854,306.425795L142.547261,307.413341L141.563078,308.293808L139.884228,309.361828L139.395487,310.139099L138.293292,311.084537L137.840712,311.867591L138.035455,312.479507L139.330061,312.784858L142.067781,312.670318L142.292696,313.255073L141.080763,314.260554L139.821994,315.293627L138.197675,316.451637L138.094308,317.159152L138.312672,317.768905L139.116147,318.192423L140.184990,318.524217L140.646943,319.046272L142.428663,319.126410L143.366214,319.475892L142.097035,320.574683L143.511078,320.754679L143.142866,321.551664L143.354511,322.146860L143.281647,322.845415L142.847496,323.680010L144.187702,323.858592L144.773447,324.311331L147.616782,323.893784L147.554195,324.579526L147.055896,325.440022L146.743355,326.233896L145.096441,327.573505L147.288594,327.358993L139.727686,331.173953L132.352432,334.993615L123.347914,339.588485L113.770019,344.529852L123.377605,341.200555L131.046134,338.628192L140.209514,335.307291L149.061425,332.031026L147.375940,333.490507L147.313882,334.218390L149.770452,333.767946L149.635730,334.523705L150.281493,334.909024L151.702684,334.913372L150.453925,336.217210L152.050046,336.123845L152.352248,336.666175L151.963538,337.559543L151.531002,338.483077L149.847366,340.065260L147.905079,341.806097L148.477998,342.236184L151.621567,341.282132L155.046803,340.142003L156.973784,339.787674L156.781875,340.589730L155.213784,342.169240L151.120056,345.202245L153.390956,344.643009L158.178673,342.603833L160.139830,342.163400L163.816512,340.689304L164.114401,341.190910L158.777050,345.090995L157.695285,346.468025L154.352608,349.253964L151.197915,351.968852L151.170508,352.763713L150.795910,353.783570L153.351690,352.935305L156.153763,351.899592L159.478766,350.490691L162.232133,349.420565L163.840798,349.081973L164.660546,349.257692L163.917324,350.489213L161.236164,353.064869L159.557877,354.985987L159.283088,355.952531L160.897861,355.593050L160.946482,356.333482L160.774039,357.237414L161.034368,357.834255L158.072801,360.796774L157.568742,361.985484L158.341086,362.232308L158.115571,363.227011L160.393406,362.323167L162.286333,361.688461L163.425129,361.617612L164.211133,361.812381L164.735166,362.208600L165.672987,362.272593L165.981839,362.835304L165.280618,364.220686L165.663325,364.733061L165.920067,365.350114L167.437573,364.915552L168.587969,364.773642L168.148599,365.973747L167.633643,367.252050L166.225644,369.319352L166.401994,370.029293L168.248263,369.268624L169.214409,369.269424L170.033791,369.393446L171.345815,369.063984L170.030515,371.125881L170.465839,371.599105L171.167399,371.824082L172.131839,371.797231L173.053620,371.801907L174.073618,371.704150L174.012266,372.641809L172.704742,374.804077L173.315013,375.109279L173.906244,375.430585L173.909767,376.338573L175.266921,375.885518L176.890050,375.144495L176.356638,376.603120L176.932197,376.927606L177.125301,377.651048L176.216447,379.545863L176.253065,380.457412L177.769671,379.782524L179.766999,378.564484L181.620340,377.474292L183.294309,376.555045L183.550268,377.195994L182.722802,379.062924L181.928699,380.918520L181.404880,382.490097L181.020405,383.921325L181.080196,384.851486L181.954480,384.829569L183.362429,384.163744L185.046658,383.145769L186.384128,382.522114L186.027427,383.954084L186.101206,384.873180L186.233606,385.728802L185.663596,387.477275L187.375089,386.351653L188.630504,385.782469L189.029970,386.303419L189.786875,386.359755L189.720273,387.496204L190.796489,387.125110L191.022018,387.883237L191.335080,388.529799L191.029910,390.028392L189.841381,392.770062L191.021268,392.250254L192.242924,391.654240L194.319845,389.822284L195.045656,389.889189L194.966459,391.118330L195.241279,391.845779L194.665427,393.838819L194.986771,394.523684L195.757764,394.536640L196.191881,395.055952L196.856151,395.224425L198.151714,394.408295L198.348604,395.293043L198.640855,396.037478L199.850601,395.320998L199.737546,396.722443L200.650739,396.468903L200.984324,397.159899L200.665444,398.946167L203.069419,396.175486L204.405548,395.157990L205.758925,394.082896L206.810196,393.503657L206.329095,395.596759L206.874597,395.905753L208.571245,394.150021L209.391941,393.938123L209.597250,394.842874L210.112921,395.185997L208.798328,398.957231L208.463705,400.949757L209.033368,401.249053L209.234551,402.261417L210.189363,401.815174L211.026031,401.586041L211.685462,401.699819L211.618638,403.279551L212.710860,402.516286L213.855277,401.620723L214.727067,401.268948L215.855184,400.359207L216.187323,401.128625L217.059971,400.737096L217.087563,402.185739L218.357926,400.900802L219.062654,400.850800L219.341408,401.763502L221.473031,398.420365L221.648333,399.554605L221.692115,401.022341L222.208441,401.390035L221.996282,403.527541L222.210861,404.666136L222.652165,405.264133L223.435756,405.008689L223.972981,405.369641L224.582468,405.547003L224.876026,406.552157L224.610814,409.065413L225.255596,409.187497L225.690626,409.880454L227.063449,407.985153L228.687870,405.321193L228.707719,407.154467L229.468369,406.889618L230.028868,407.199155L230.017478,409.218285L230.833266,408.787064L231.163268,409.830557L232.035367,409.207106L232.566945,409.638270L233.356671,409.244916L234.734001,406.907757L235.609957,406.157178L236.313043,405.960830L237.013548,405.760814L236.940967,408.254832L236.740001,411.287005L236.831600,413.359663L237.086475,414.898022L237.333043,416.517404L238.225581,415.718615L239.324087,414.080562L240.162943,413.405246L241.194721,411.916168L241.872421,411.824509L242.497285,411.945741L242.367477,415.310803L242.649973,417.000569L242.801933,419.341290L243.691337,418.399734L244.588981,417.371615L245.550527,415.984855L246.454463,414.810074L247.108088,414.828639L248.191467,412.635657L249.124767,411.118016L250.099506,409.294350L250.464346,410.744876L250.769530,412.605173L251.001851,414.985637L251.570510,415.476211L252.152006,415.909658L253.130250,413.843719L253.782895,413.776347L254.414114,413.843303L255.037606,413.962380L255.539336,414.959075L256.286545,414.192128L256.915543,414.275247L257.720980,412.949840L258.427547,412.337049L259.131426,411.693110L259.662907,412.536388L260.148519,413.874804L260.744926,414.244446L261.395747,414.086257L261.990686,414.505847L262.699578,413.677780L263.361125,413.316734L263.946422,413.866325L264.665346,412.696049L265.152686,414.653251L265.767219,414.945769L266.241109,417.564522L266.781084,419.433008L267.384255,420.411816L267.843440,424.578896L268.497604,425.109231L269.147801,425.858754L269.842691,425.494991L270.566387,424.045183L271.229244,424.480225L271.874665,425.939869L272.561520,425.646932L273.237563,426.045274L273.928079,424.912834L274.608180,423.832818L275.278764,422.888626L275.933694,420.830344L276.563058,418.130354L277.183483,416.427590L277.810173,415.805294L278.448278,415.874470L279.080625,415.718624L279.667895,414.255120L280.218795,412.178542L280.773476,410.627171L281.544237,413.957095L282.244952,415.340896L282.933384,416.277427L283.630425,417.210583L284.054023,413.816159L284.648176,413.302763L285.176128,411.955799L285.864598,412.794569L286.713211,415.456887L287.520392,417.367178L288.460199,420.517689L289.077194,420.040679L289.681730,419.478167L290.049756,416.730986L290.714342,416.882423L291.320135,416.506441L291.654970,413.893892L292.385212,414.644184L292.752723,412.525580L293.256040,411.562927L293.884198,411.561609L294.858492,413.977266L295.591516,414.600627L296.472612,416.153890L297.320839,417.400138L297.618722,415.158857L298.242567,415.000441L298.739269,414.099938L299.031647,412.076041L299.291468,409.970365L299.951393,410.132410L300.370423,409.008472L301.647427,412.355700L302.716985,414.495266L303.452072,414.885818L304.530817,416.904274L305.165793,416.742249L305.345231,414.487381L305.143275,410.606870L305.300486,408.464768L305.865478,408.164160L306.658570,408.834318L307.836296,411.066163L308.417455,410.781570L309.016993,410.575335L309.505242,409.935865L310.681736,411.955926L311.364199,412.034971L311.265549,409.214503L311.746262,408.593990L311.286130,404.628191L311.521365,403.234035L312.077108,402.987697L312.419430,402.019525L312.634217,400.651742L312.861686,399.364355L312.495384,396.193390L312.834252,395.360281L314.830912,399.739512L316.422297,402.729068L318.380325,406.735706L319.970233,409.515325L320.729200,409.757973L321.509364,410.049029L321.688294,408.605071L322.467741,408.890233L322.338905,406.635593L322.657068,405.663604L323.747926,406.801730L324.664715,407.438465L325.410568,407.602223L326.208853,407.891536L326.303421,406.365114L326.630578,405.460463L326.960952,404.581333L327.305351,403.753364L328.467869,404.928584L329.000848,404.557516L330.741459,407.050499L331.239172,406.567457L331.590226,405.751216L332.146878,405.417905L332.318724,404.218914L333.686964,405.707161L335.138757,407.337381L335.677952,406.938167L335.874882,405.806444L335.340967,403.142665L336.074557,403.194768L336.665120,402.942575L337.741587,403.686393L338.715447,404.198858L339.124881,403.561700L339.492329,402.849084L338.037006,398.572614L338.900229,398.879067L339.292214,398.268951L339.498600,397.313836L341.174314,399.129253L342.340596,399.953869L342.465872,398.843410L343.855365,400.045996L344.838324,400.486094L344.383159,398.353513L345.584882,399.173812L346.269647,399.070454L347.373260,399.684157L348.006054,399.475738L347.321445,397.041728L347.287006,395.736625L347.414781,394.719560L348.461814,395.220800L349.748295,396.093202L350.044722,395.353580L349.729045,393.650080L350.592304,393.826896L351.023231,393.320604L351.632579,393.092466L352.820003,393.744091L353.355641,393.391323L354.491656,393.936826L356.395619,395.602667L357.205553,395.623947L357.340221,394.656385L356.405880,392.161686L355.961203,390.405594L357.043670,390.832040L357.000589,389.669398L358.054345,390.041004L359.325818,390.697238L358.794027,388.883181L359.423589,388.659570L360.636076,389.210442L360.748813,388.290841L361.478968,388.189257L361.480515,387.137537L360.945388,385.408622L360.276295,383.533963L361.576959,384.170545L362.034543,383.734943L362.385221,383.167789L362.188395,381.932305L359.687625,377.912450L360.098431,377.464712L359.347081,375.631599L360.500476,376.076637L363.968117,379.217494L366.758727,381.508261L369.444226,383.629146L370.373678,383.702507L370.053554,382.355463L368.279609,379.397867L368.582868,378.789736L370.340692,379.783572L370.888232,379.433641L371.075851,378.693754L370.613734,377.264431L369.625997,375.295894L369.426903,374.183370L371.086391,375.017770L371.575915,374.622564L372.568863,374.741254L372.706231,373.983161L372.760334,373.147146L374.659910,374.154303L375.957370,374.541688L376.286817,373.968114L377.251718,374.011938L377.497541,373.356673L376.531781,371.552685L377.088219,371.207331L376.669142,369.948864L375.384551,367.903727L376.192188,367.806016L379.447198,369.926123L382.620167,371.925714L383.471424,371.808467L383.949269,371.354259L382.252596,368.993668L380.515889,366.632198L382.023636,367.096756L381.994722,366.233842L381.026610,364.584263L382.026597,364.603652L382.152365,363.888683L383.990588,364.585483L386.461881,365.776162L387.692296,365.934566L389.382020,366.447957L388.835905,365.171395L389.154689,364.587619L387.167956,362.212517L387.010648,361.281126L389.364616,362.274017L387.320303,359.913804L387.636058,359.355571L387.949063,358.796219L386.625336,357.034929L388.432064,357.576121L388.375860,356.754153L387.794657,355.563052L388.452253,355.261229L389.473403,355.210144L391.432049,355.800782L391.841666,355.305437L390.756588,353.792074L388.761947,351.684646L386.727573,349.581459L385.279057,347.896507L385.072686,347.047678L387.751371,348.075553L389.716817,348.615599L391.267386,348.871221L393.904170,349.794676L395.561290,350.079059L395.970169,349.577383L396.590375,349.203777L396.591487,348.452646L394.609510,346.519818L395.337769,346.219256L396.497181,346.166281L396.288738,345.310201L396.508752,344.706266L395.928614,343.649238L395.268769,342.558071L394.091680,341.190893L395.168377,341.080527L394.928860,340.244943L395.271304,339.728822L396.763949,339.824459L397.792902,339.662005L400.645954,340.441108L401.434189,340.127231L403.360706,340.387553L401.248403,338.594847L399.769042,337.144577L400.472150,336.788914L397.653083,334.713719L399.974038,335.146809L401.473596,335.166337L401.015118,334.251604L403.372341,334.653311L404.044412,334.258245L404.083138,333.571376L404.092948,332.874004L403.006975,331.694042L404.330635,331.582813L404.100453,330.788619L407.595801,331.589587L409.693101,331.766741L407.768281,330.250533L408.864417,329.998541L407.129439,328.589348L406.287084,327.558302L407.479054,327.342335L406.678949,326.339706L407.376197,325.923836L407.656837,325.345012L408.221111,324.871818L408.262641,324.202128L406.969662,323.048417L406.714779,322.282813L405.879582,321.316621L407.687392,321.282961L408.867078,321.017179L411.046815,321.080305L410.173265,320.104750L410.665928,319.589044L412.134517,319.386299L409.898735,317.990365L410.277099,317.438719L410.414354,316.810775L408.342710,315.512233L408.178378,314.806024L409.636047,314.580035L407.305072,313.246285L405.579400,312.109067L404.809327,311.257247L403.257412,310.199948L403.897884,309.750331L407.759213,310.148768L411.788003,310.554934L411.381998,309.792429L409.301226,308.616142L407.590328,307.552099L402.550818,305.704577L402.336766,305.045119L407.559219,305.645842L408.969632,305.335007L412.251152,305.426879L417.137801,305.837184L417.166969,305.171688L418.389755,304.754891L420.510032,304.509852L417.344822,303.199046L415.588968,302.191746L413.908844,301.216347L413.151655,300.427649L412.854996,299.729711L413.923020,299.274033L415.537410,298.902357L416.548331,298.416843L417.996523,297.993237L417.467698,297.248432L416.880148,296.500551L415.271900,295.609036L414.951060,294.916437L414.791943,294.249893L412.564544,293.310320L412.921370,292.724084L414.571347,292.295553L413.848176,291.569402L413.645646,290.910311L413.440000,290.253389L411.352811,289.400266L411.527022,288.795309L413.882849,288.399819L412.365280,287.627335L413.998247,287.144465L413.802545,286.495775L414.046913,285.883784L414.981145,285.320882L414.638380,284.661562L415.401319,284.077236L414.359513,283.377864L413.674829,282.708133L413.403078,282.066004L413.600073,281.448435L414.432636,280.856040L413.902502,280.205281L413.758023,279.572240L412.999799,278.923245L411.905321,278.273226L414.945920,277.713411L418.317489,277.131145L419.436706,276.495181L418.747554,275.838614L416.138767,275.185782L413.860400,274.555470L413.523651,273.930739L413.961818,273.299524L415.424734,272.647110L414.079640,272.041118L413.676094,271.422877L414.963475,270.756877L412.777526,270.200065L413.642637,269.542736L412.700784,268.956658L409.953040,268.466291L408.368767,267.938943L407.337155,267.393895L407.994556,266.753154L407.651063,266.172717L410.297494,265.382499L410.335762,264.765100L408.986764,264.258151L411.261875,263.455996L412.315044,262.741747L414.083582,261.950282L417.368170,260.993002L416.833701,260.398349L417.180569,259.713215L415.757419,259.222679L414.360357,258.741467L414.809427,258.048539L413.573882,257.562773L412.860172,257.019564L412.447202,256.441560L412.582048,255.790095L412.658822,255.144965L413.034797,254.453764L413.022939,253.817753L412.733780,253.224808L411.866324,252.727735L408.832865,252.600300L406.239118,252.424462L405.916960,251.870476L407.314397,251.006693L410.263306,249.840275L412.440301,248.792420L412.402292,248.155815L412.497524,247.491773L411.909228,246.965631L408.464288,247.042238L406.000722,246.939937L401.992302,247.197929L399.588338,247.133822L402.385855,245.903234L406.554394,244.325118L411.143560,242.605885L414.073146,241.244256L416.130293,240.069075L414.085690,239.907559L414.356183,239.168916L414.784059,238.384882L412.684804,238.269293L414.340310,237.152552L412.186682,237.071222L411.078049,236.715169L412.052038,235.772138L411.473367,235.269864L410.173812,234.984903L410.470451,234.230567L409.673944,233.805866L409.619102,233.156665L411.600749,231.863035L409.076851,231.992994L410.835666,230.751059L407.918004,231.036330L406.533057,230.834205L407.988635,229.675913L406.207406,229.620367L407.206754,228.604983L407.964062,227.663500L408.140758,226.921794L410.608818,225.336914L413.924548,223.409658L414.651930,222.420441L416.307454,221.067025L415.155631,220.779988L414.288589,220.390720L412.878786,220.223547L412.398006,219.694583L409.060185,220.333085L406.501215,220.682447L406.920757,219.810202L404.521625,220.125054L405.753011,218.905294L405.268965,218.414786L404.732304,217.949868L404.777777,217.228817L404.946005,216.449139L403.745039,216.289142L409.430779,212.961195L417.756837,208.334878L423.406553,204.878179L432.210637,199.847635L431.394394,199.367969L431.150935,198.613396L424.928613,200.816000L416.468976,204.204443L410.868613,206.237789L403.805960,209.079541L402.396690,209.072828L401.580704,208.768418L401.353869,208.158292L400.291278,207.994259L400.769232,207.006202L401.460179,205.892581L402.046351,204.825063L401.728036,204.251841L400.439424,204.226053L400.190812,203.618820L399.289424,203.386819L398.676573,202.993782L398.661267,202.252701L397.423991,202.234120L396.355787,202.125118L403.245054,197.197647L408.197430,193.367731L414.345844,188.731213L414.779006,187.587099L408.112228,190.917376L404.429139,192.423512L399.291400,194.909077L399.673331,193.863552L400.396531,192.584104L400.740392,191.542261L400.200565,191.083334L397.979862,191.764170L395.859638,192.400638L393.336185,193.338524L392.829322,192.900048L394.751848,190.754317L394.777680,189.924655L393.760063,189.837671L394.971648,188.145496L394.555628,187.620795L393.869089,187.295983L394.652376,185.880467L390.984815,187.794741L387.027285,189.975389L384.591336,191.041227L381.925630,192.314225L381.222547,192.088402L383.530717,189.494963L382.512826,189.506918L382.060520,189.074256L382.124531,188.224307L380.914218,188.409363L381.614674,187.030153L382.262117,185.678417L381.198288,185.748789L381.620192,184.569209L383.510788,182.119593L384.477476,180.431894L384.928571,179.171662L383.848001,179.244802L384.681465,177.629124L384.592189,176.819530L383.591186,176.828410L381.915312,177.462122L377.345439,180.780509L373.866075,183.155009L373.652807,182.519337L374.908917,180.490222L375.545879,179.023304L377.051880,176.700817L379.216154,173.704536L378.757484,173.234768L379.560264,171.516522L380.428230,169.710455L377.603595,171.601354L375.888935,172.406457L375.366273,172.011413L373.819367,172.677983L374.335642,171.209146L374.821527,169.753732L374.763588,168.858565L374.491331,168.185372L373.254148,168.553469L372.022337,168.930548L371.840660,168.164031L372.118091,166.880371L372.238134,165.758031L373.250374,163.611649L373.331147,162.499663L371.912623,163.106450L371.713694,162.311441L370.933699,162.193090L369.384929,162.992871L369.429877,161.906634L368.705525,161.738027L368.175292,161.337345L367.468222,161.154759L365.733904,162.253025L364.859972,162.300379L362.765772,163.900902L359.883237,166.546108L358.694545,167.063768L356.141584,169.374230L354.183212,170.953946L353.745816,170.552933L352.708018,170.954952L355.144950,166.674797L356.378897,163.961330L358.405872,160.110608L359.296897,157.772937L357.235520,159.542728L356.392842,159.626362L354.788922,160.808206L353.055099,162.207731L351.461204,163.437252L351.237234,162.679269L351.767275,160.791404L352.805112,158.110287L353.652101,155.672633L354.691176,152.899318L354.033229,152.703866L353.824285,151.809925L354.025105,150.258358L352.737563,151.055711L351.913093,151.130568L350.436315,152.275245L349.231371,153.003564L348.048892,153.716449L346.732140,154.676102L346.554859,153.731263L346.202403,153.073428L346.971314,150.468246L347.635370,147.998352L346.978803,147.816562L346.797105,146.789839L346.230640,146.442503L345.061629,147.193777L344.139237,147.513443L342.800944,148.622105L341.461073,149.764765L341.682172,147.965491L342.285129,145.397441L343.335663,141.907093L344.029028,139.048641L342.379655,140.798622L340.562250,142.933897L339.230622,144.135231L337.486781,146.220562L336.784243,146.190046L336.927608,144.381165L335.830079,145.184324L335.698247,143.927805L336.527229,140.548119L336.010764,140.069054L335.774476,138.957863L333.925588,141.480129L332.256160,143.659779L331.618298,143.504514L331.110643,143.045579L330.879607,141.922652L330.522540,141.081395L328.664811,143.891142L327.260283,145.658928L326.263853,146.456225L325.692800,146.200102L326.900440,141.363356L326.982005,139.340485L327.655297,135.703218L327.151637,135.128410L325.320883,138.153119L325.222946,136.490914L324.475151,136.605479L323.433977,137.562320L323.632871,134.983319L322.810937,135.316945L321.984138,135.681451L320.907640,136.815036L319.816436,138.034678L318.677564,139.446404L318.207541,138.800356L318.121726,136.909590L317.179214,137.751730L316.582878,137.482818L315.620661,138.441236L315.120327,137.859219L314.653956,137.145467L313.418569,139.132842L311.911900,142.172301L311.355366,141.846124L311.170794,140.127123L311.112904,137.869866L310.868484,136.255868L310.439434,135.314429L308.888857,138.848635L308.385428,138.238178L308.278035,135.954580L307.218199,137.644641L307.530537,133.439671L307.201739,131.912058L306.375714,132.581863L305.667622,132.740269L304.520316,134.995032L303.304289,137.692500L302.661766,137.674959L302.282406,136.324907L301.928080,134.784550L301.933830,131.251500L301.628629,129.245833L301.339930,127.048594L300.813638,126.110027L299.965141,127.035776L299.188507,127.582375L297.896840,131.397278L297.158628,131.871772L296.317901,133.064204L295.436383,134.618630L295.069537,132.629838L294.336093,133.201179L293.956582,131.132413L293.302955,131.075800L292.483595,132.373154L291.604719,134.281846L290.583793,137.603169L290.023053,136.981877L289.416682,136.749650L288.797495,136.630651L287.932816,139.086144L286.927696,143.344764L285.956563,147.664955L285.744472,143.159313L285.592055,137.351372L285.291082,132.872087L285.062700,126.729961L284.278662,128.487961L283.505825,130.333172L282.969597,128.132739L282.282579,128.569874L281.584621,129.343202L280.945736,128.843110L280.219161,130.649877L279.570512,130.516717L278.962172,128.859257L278.355889,126.454569L277.694832,125.885460L276.991432,128.069050L276.304053,130.672558Z"
       id="path36" />
    <line
       x1="50"
       y1="550"
       x2="100"
       y2="550"
       fill="none"
       stroke="black"
       stroke-width="1.0"
       stroke-linejoin="round"
       stroke-miterlimit="10"
       id="line36" />
    <text
       x="125"
       y="553"
       style="text-anchor:start;fill:black"
       id="text36">GC-content</text>
    <path
       style="stroke:blue;stroke-width:1.0"
       d="M273.485305,156.717440L272.828218,149.639819L272.141506,144.138405L271.456818,140.604459L270.829163,139.956404L270.291710,142.026189L269.649744,141.014597L268.817693,135.938157L268.247145,137.143533L267.815604,140.747651L267.563460,146.884852L267.242112,151.031980L266.984214,155.568758L266.242228,152.779732L265.676668,152.643206L265.388224,155.958841L264.695243,154.182622L264.113688,153.831248L262.767130,145.414697L261.846327,142.080821L261.182105,141.524472L261.134375,146.723799L261.036754,151.063554L260.305190,149.662405L259.380415,146.785599L257.560682,137.042850L256.691557,135.244659L256.212384,136.449664L256.421019,142.486899L257.063151,151.138863L257.771503,159.704876L257.385355,160.657147L256.415178,157.877985L255.686747,156.741464L254.905775,155.359707L253.890274,152.698432L252.960580,150.665935L251.002911,143.092040L250.136496,141.750737L250.255327,145.631486L250.313701,149.023584L251.834387,159.549985L251.643043,161.262616L250.862810,160.099926L249.673318,157.087727L248.288597,153.320814L246.134964,146.289464L245.261852,145.146355L245.360303,148.211231L244.883887,148.749104L245.930184,155.529235L245.458049,155.932960L245.376408,157.870423L244.937732,158.355274L244.585095,159.155026L243.521599,157.272274L242.892466,157.057112L242.542801,157.863154L241.677279,156.816892L240.997496,156.458858L238.495578,149.872160L237.736546,149.383921L236.300633,146.672538L236.656366,149.899427L238.349614,157.323868L238.337384,159.130906L237.304969,157.712904L235.913873,155.244450L234.013653,151.319457L234.196041,153.707663L234.638654,156.793078L234.276071,157.470157L232.446979,153.961689L229.341602,146.980028L229.662019,149.670764L228.858425,149.228463L229.612794,152.992144L231.209820,158.893027L229.623981,156.314888L229.754614,158.240619L230.498148,161.681481L230.408586,162.943905L230.827557,165.440093L228.650147,161.520428L225.311683,154.899626L224.736824,155.047029L223.589319,153.846941L225.282215,159.292806L228.305454,167.668131L224.662721,160.709175L223.467171,159.413081L221.246801,155.882678L219.385131,153.227520L220.822053,157.778023L221.482608,160.567519L222.856734,164.805717L222.956705,166.289954L221.090569,163.685857L220.424381,163.596025L219.832668,163.664101L217.786515,160.833999L219.259650,165.016816L216.827511,161.492464L214.573735,158.395674L217.065862,164.430346L213.559380,159.015665L213.467200,160.099512L211.693109,158.059218L209.705168,155.677796L211.681819,160.521142L213.773519,165.474101L215.859560,170.318887L215.278057,170.395851L215.459778,171.799706L213.476631,169.466637L213.281206,170.222183L210.682891,166.930498L209.586601,166.209754L211.020385,169.674682L209.202974,167.777461L209.944298,170.052027L209.912773,171.052754L205.644536,165.340677L208.137855,170.332594L210.054438,174.338127L209.866815,175.041478L212.385524,179.849439L211.288821,179.128843L207.094492,173.811954L205.438297,172.349284L203.701285,170.802745L199.932919,166.352013L202.338181,170.842550L202.663120,172.300184L202.924802,173.647370L204.564122,176.894029L203.386178,176.198550L203.261931,176.962254L204.349498,179.358173L204.104819,179.928638L205.192270,182.264095L204.181263,181.800284L200.584578,177.979925L197.127185,174.416526L196.046477,173.966860L196.724954,175.762379L198.626303,179.067395L203.631703,186.181070L202.666943,185.808637L201.017184,184.612106L199.272305,183.328388L193.130155,176.799939L192.260889,176.663920L191.885859,177.119212L188.941718,174.575053L191.050074,177.926382L190.951341,178.694992L191.230152,179.885248L196.234082,186.377273L197.934231,189.075081L194.553255,186.116567L191.781702,183.885089L190.479886,183.295167L188.237456,181.711341L191.098265,185.600617L193.125696,188.546921L189.661520,185.700519L191.020571,187.913716L190.376917,188.035946L189.686438,188.115146L191.141926,190.365665L190.734920,190.719834L191.650984,192.385883L191.093564,192.581484L190.810000,193.046950L189.539246,192.558579L189.224894,193.000185L188.834391,193.368677L187.189105,192.559499L184.781727,191.062926L182.072668,189.322394L177.180288,185.625861L176.754012,186.047381L173.877996,184.271348L172.123182,183.532394L175.902048,187.690548L180.601541,192.585477L180.548760,193.288368L180.513305,194.001112L178.229651,192.798956L175.695262,191.415503L179.167418,195.074851L176.613733,193.695856L178.736943,196.179561L175.773557,194.499172L175.472888,194.998079L179.966920,199.314633L179.369464,199.542319L180.642293,201.235862L177.476173,199.468072L176.579805,199.482685L172.049839,196.743216L170.676917,196.440663L172.349763,198.424618L174.768578,200.931433L178.151779,204.105730L179.526282,205.772130L181.488865,207.837646L179.442462,207.020123L181.363352,209.021705L181.393462,209.673744L180.671251,209.801420L178.337838,208.831891L176.864812,208.472627L175.335824,208.091256L176.026118,209.201360L174.700090,208.971228L173.274918,208.689777L176.089451,211.159288L175.210598,211.228796L177.376955,213.232568L180.362927,215.718812L174.407451,212.619232L171.310539,211.345491L170.563107,211.534461L168.756362,211.091928L170.902923,213.021826L173.051278,214.923084L165.251647,210.993069L157.263757,207.045336L153.343372,205.513358L155.028444,207.192768L163.686275,212.747944L169.955585,216.875445L173.379107,219.367940L170.392755,218.345758L168.134312,217.745468L169.399414,219.035775L172.070853,221.045701L168.824558,219.954040L169.958802,221.142755L168.461025,220.981231L166.667160,220.685497L166.685749,221.305753L162.091391,219.662212L156.442050,217.556191L154.145260,217.116021L157.018793,219.146158L157.136499,219.852285L159.277210,221.489809L159.331383,222.147807L158.350367,222.335241L159.894025,223.656891L160.916625,224.729703L161.866486,225.757372L162.543635,226.655202L159.918999,226.141653L158.498991,226.158761L157.176512,226.228980L156.011764,226.375321L160.920408,228.981565L158.586259,228.650371L155.478024,228.037262L149.547918,226.360277L148.608253,226.651625L152.618983,228.818516L157.225187,231.163494L163.390734,234.031442L162.860446,234.410698L162.962294,235.019078L161.408958,235.042342L159.511669,234.960295L156.233946,234.424000L155.833579,234.887473L157.903032,236.172111L160.307729,237.543720L162.296369,238.755794L162.369986,239.340093L161.113413,239.507507L161.328421,240.137119L162.328153,240.999850L162.728918,241.673413L164.446932,242.726103L161.277849,242.357748L161.225019,242.898200L163.048437,243.958000L156.923209,242.833310L153.993765,242.621770L148.312101,241.714060L141.659115,240.609257L137.541268,240.208719L136.573778,240.628499L135.347193,240.992977L138.155691,242.331024L148.033370,245.294752L150.228843,246.402299L150.308848,247.012920L152.742701,248.138747L152.278225,248.617290L155.246634,249.820889L156.306154,250.603046L159.346406,251.772001L156.806384,251.816845L158.871935,252.766315L160.281530,253.572978L159.203204,253.912486L159.812510,254.560632L156.236666,254.479093L160.463074,255.741831L157.741647,255.828540L157.732340,256.370546L159.873511,257.243537L157.296802,257.390125L158.191211,258.063082L157.510201,258.505913L156.686562,258.934966L154.766098,259.227042L152.753938,259.524505L154.263120,260.269422L150.486653,260.379231L150.375856,260.936683L151.273652,261.603770L145.496271,261.569850L143.464977,261.959527L143.763195,262.587526L141.713274,263.000906L149.005517,264.230959L152.068525,265.051958L151.297789,265.551878L149.210854,265.963864L147.920088,266.448012L151.966266,267.278469L154.280915,267.971088L158.272656,268.732484L159.433588,269.318279L161.007527,269.911762L162.086554,270.470937L161.416189,270.957906L159.241050,271.404030L157.559356,271.882776L151.656797,272.283645L144.376035,272.713637L136.700491,273.204212L124.516379,273.725903L123.229742,274.400669L126.385792,275.084509L134.766492,275.713264L140.799093,276.288875L143.618517,276.855406L147.557753,277.375660L148.675586,277.925751L151.310084,278.423874L157.824968,278.773356L152.746896,279.489827L148.723946,280.208901L150.704709,280.689770L155.681241,281.002238L167.004714,280.921845L171.765781,281.128664L171.282129,281.627709L169.752750,282.202983L160.141511,283.382239L146.760956,284.941346L143.788012,285.768348L142.368412,286.488288L143.906629,286.951954L157.314504,286.265836L152.071489,287.328414L146.660904,288.456919L146.725327,289.036306L136.778960,290.756891L140.925207,290.898112L139.470008,291.691875L139.302790,292.335140L143.587211,292.391518L144.088819,292.927256L151.398191,292.495501L158.111394,292.084246L161.167979,292.163080L164.170181,292.222837L162.312190,293.033304L159.482408,294.021765L159.050910,294.631232L161.164381,294.802812L161.613773,295.252786L161.996525,295.711636L163.221313,296.009520L160.905561,296.978875L161.709504,297.355261L160.442633,298.143404L157.352482,299.321371L154.485465,300.482307L148.281792,302.392676L149.412702,302.742653L151.684429,302.825679L153.047446,303.097694L158.732073,302.341674L154.789934,303.842413L153.888659,304.637916L152.828842,305.482890L144.866347,308.094805L149.396895,307.547441L147.637989,308.617950L150.019809,308.593923L157.554911,307.138128L152.431814,309.135945L156.043394,308.709910L157.546199,308.857999L156.346043,309.785294L162.572473,308.512203L157.097750,310.724841L154.671490,312.054324L153.180813,313.116724L151.396809,314.288857L156.106116,313.384177L157.500617,313.520967L158.437687,313.797801L159.796265,313.924572L157.736167,315.211759L157.597312,315.853041L157.754058,316.393238L150.766522,319.492359L155.480208,318.414406L153.194224,319.868665L154.098813,320.156777L161.547814,317.959582L156.376698,320.531446L160.140674,319.683079L161.572646,319.717014L157.410968,321.972570L156.645080,322.899635L156.715083,323.494331L156.065719,324.389328L161.018868,322.937306L163.882190,322.324974L160.820382,324.239551L162.585733,324.081713L162.031962,324.932331L163.858692,324.726293L169.891352,322.598236L165.341183,325.256980L162.348370,327.245681L159.559480,329.174133L158.680514,330.229188L162.019428,329.270662L162.805923,329.518020L160.866466,331.099211L158.508171,332.913226L156.403719,334.629133L157.606903,334.690098L162.737369,332.721188L169.362369,329.919658L170.432700,329.964692L169.662242,330.978476L167.899882,332.536994L160.058437,337.420376L161.409408,337.352844L161.713586,337.853521L161.289185,338.762504L163.457053,338.210920L165.375021,337.779980L166.681901,337.683064L165.904171,338.792756L168.596550,337.865167L162.547625,342.126165L158.815371,345.067885L161.400566,344.210579L162.966409,343.952491L166.331729,342.560026L168.201768,342.068248L169.776595,341.743981L167.803791,343.676410L165.675772,345.738366L168.212349,344.783479L167.394270,346.013839L171.506712,343.973029L171.314280,344.779775L171.054846,345.638718L173.312063,344.778374L171.921003,346.419991L172.703475,346.563978L174.277606,346.142619L170.713797,349.368245L173.554416,348.036133L177.398869,345.939957L174.715625,348.584898L174.560389,349.399170L170.683171,353.003450L166.079778,357.215448L167.990165,356.534904L172.155786,354.097831L175.854344,351.968585L181.718589,348.093819L183.547600,347.329821L184.584159,347.176352L183.502615,348.718916L180.682577,351.696251L182.642380,350.798281L180.316624,353.425550L180.936948,353.630907L181.758714,353.662251L179.138738,356.616695L182.885099,354.147590L182.904245,354.857167L182.392654,356.036577L183.539026,355.765901L178.265168,361.203960L178.369290,361.897544L183.247871,358.263120L178.891930,363.011033L180.994180,361.869957L180.059595,363.532093L179.714492,364.662081L185.951415,359.554967L189.153901,357.254747L191.499357,355.734100L189.940373,357.988183L186.642517,361.988298L185.245967,364.165250L185.673434,364.546007L185.817096,365.213434L190.002797,361.759824L192.662807,359.807690L195.488148,357.641320L197.030506,356.774456L192.764871,362.032125L192.807371,362.778137L192.087110,364.353003L192.212255,365.030451L195.403018,362.349262L195.639121,362.884378L196.660066,362.545663L196.502431,363.523348L198.251698,362.342355L198.885248,362.414622L199.001031,363.081976L199.327829,363.508494L200.325226,363.145009L200.218496,364.083864L199.331649,365.971739L199.803642,366.239540L200.091394,366.731623L200.510344,367.064415L200.850939,367.494877L202.194787,366.663998L201.604315,368.269491L197.223845,374.760157L192.733694,381.508294L185.756994,391.626157L181.138258,398.817113L185.816638,393.756264L191.652028,387.036378L200.747257,375.757869L207.512425,367.449433L207.842427,367.875526L207.908165,368.672939L205.990450,372.275749L205.777373,373.516174L207.143105,372.505942L208.865007,370.953332L210.829154,369.009688L211.228374,369.337275L208.555701,374.254430L207.008893,377.564350L206.442326,379.440469L206.722590,380.044893L209.761697,376.368487L211.829929,374.136095L213.134097,373.064126L214.037975,372.605727L214.495000,372.855120L214.771439,373.399058L214.755324,374.431417L215.561187,374.108859L216.424837,373.676722L216.461331,374.637983L218.064589,372.919242L217.974273,374.102164L219.255330,372.896285L219.802209,372.962437L218.657997,376.057905L218.763089,376.949558L217.822990,379.770171L218.288829,380.042309L217.741817,382.211278L219.389756,380.267310L221.078432,378.196823L221.267918,378.975886L222.727680,377.281411L223.166430,377.563692L222.954781,379.148589L220.480586,385.343574L221.588006,384.343283L221.396586,386.003906L221.856753,386.332593L225.235792,380.476728L225.768342,380.581341L226.080537,381.161341L225.799377,383.053087L226.875314,381.968832L228.234159,380.216263L227.278935,383.685634L227.759727,383.924750L229.377915,381.509152L228.443341,385.062128L229.113611,384.858137L228.973725,386.608094L228.573837,389.036736L229.248405,388.849826L230.599458,386.946880L232.477484,383.641368L232.336809,385.468549L233.150787,384.834751L233.667990,384.967900L233.830017,386.057659L234.725105,385.167614L234.786331,386.560404L235.427677,386.355540L236.203988,385.754239L234.703857,391.724194L233.739612,396.290886L233.524318,398.754621L232.401987,404.035193L234.666620,399.055143L236.406757,395.552348L237.754154,393.179477L240.074572,387.588529L241.472701,384.832389L241.430820,386.775430L238.965757,396.981016L238.278513,401.406425L238.492958,402.820898L239.998269,399.680635L244.011405,387.333019L245.665887,383.240645L245.844635,384.538757L247.259585,381.149680L246.978241,384.241269L246.778135,387.123540L247.459132,386.544416L247.414058,388.936273L247.919183,389.101314L248.934008,387.076542L250.065948,384.448118L250.562103,384.553084L251.283719,383.625158L251.596059,384.567418L251.866959,385.745902L252.444502,385.472113L252.578243,387.405483L252.879595,388.566694L253.104296,390.183492L251.880481,399.689122L252.082973,401.789732L252.135912,404.845471L252.037551,408.944208L254.114366,400.224014L255.361086,396.118404L256.384880,393.181160L257.724649,387.994214L258.365949,387.189808L258.643139,388.863517L258.839462,391.224905L259.007896,393.950502L259.305488,395.869375L260.034979,394.475660L260.770852,392.917921L261.329421,392.759409L261.728633,394.011855L261.771257,398.700730L261.564581,406.237999L262.333052,404.503508L263.053592,403.107734L263.412480,405.640351L264.482467,399.990667L264.771918,403.495610L265.246996,404.946302L266.229736,399.378676L266.866764,398.279425L267.348591,399.538531L267.657100,404.038558L267.990806,408.830577L268.429785,412.323735L268.899824,415.823897L269.532893,415.931787L270.132181,417.047411L270.785129,416.691710L271.512368,413.256626L272.132629,413.481316L272.748816,414.075984L273.357087,415.801774L273.978394,417.876019L274.618263,420.002972L275.271140,418.844095L275.894497,414.708328L276.531505,415.241045L277.080808,409.777200L277.639460,407.251656L278.190549,405.345325L278.583189,398.564750L279.084311,396.845340L279.519340,393.793025L280.146149,395.890379L280.816886,398.512891L281.404799,399.066404L282.019944,400.010909L282.520229,398.916978L283.178169,400.387589L284.207077,406.979785L284.756239,406.304710L285.995938,414.460339L287.155866,420.764899L287.891650,421.588689L289.232804,428.870292L289.753776,427.011659L289.918999,421.813061L289.894370,415.267640L289.975533,410.211823L290.405482,408.575795L290.761441,406.442317L291.582566,408.197049L291.700259,404.372423L292.766869,407.903723L294.331651,414.797375L296.400833,424.771152L298.108395,431.663866L298.437003,429.067153L299.202730,429.406028L299.282614,425.469304L300.212849,426.868336L301.106007,427.967806L301.814701,427.950531L302.710781,428.969047L303.825754,431.115275L305.063547,433.797900L305.903844,434.295643L305.886327,430.446074L306.491960,429.831557L306.837236,427.987299L307.214920,426.370635L308.246287,427.822611L309.154048,428.650314L310.350357,430.707968L311.311006,431.658018L311.612386,429.776220L312.157560,428.972504L312.848889,428.787342L312.478690,424.371990L314.194532,428.273753L314.602973,427.006669L314.818089,425.050622L315.004057,423.050275L315.484998,422.186466L316.354209,422.733345L316.653246,421.253128L317.782229,422.681394L317.643230,419.751612L318.410692,419.938024L318.704212,418.555311L321.458210,425.163230L323.691663,429.900438L323.431256,426.673435L325.770692,431.555616L324.613553,425.664535L325.442061,425.882700L327.331964,429.215454L327.730350,428.112877L329.611261,431.277750L330.136722,430.521799L329.931891,427.749458L330.908052,428.285714L331.079263,426.623760L331.434555,425.491267L332.306246,425.740922L332.602846,424.484519L334.464948,427.263136L336.460887,430.299749L336.578388,428.565502L336.941131,427.472527L336.740914,425.032339L337.095765,423.978644L338.267813,424.880295L338.876202,424.433735L341.104339,427.733490L340.976489,425.568427L342.562975,427.313479L343.642355,427.879734L342.959436,424.547052L343.551410,424.058218L343.687984,422.595045L345.031643,423.722199L345.934232,423.890109L346.580031,423.513996L347.323519,423.339455L346.859490,420.712923L347.215462,419.782220L346.471978,416.685485L347.775768,417.663692L348.428483,417.350851L350.071196,418.935743L351.903843,420.838889L349.939233,415.570418L350.653884,415.379596L350.447746,413.495299L353.098625,416.832381L354.893279,418.552922L356.107435,419.197629L356.907316,419.092382L357.439622,418.515812L358.668508,419.143534L359.467902,419.018255L360.681585,419.586832L359.893893,416.793149L360.546943,416.430274L361.194681,416.058230L360.647072,413.749360L359.014724,409.739292L359.571980,409.278072L360.037241,408.673811L361.253218,409.242293L361.249267,407.911990L359.989115,404.683305L360.853793,404.720644L359.952968,402.108138L362.892640,405.229205L365.071597,407.166152L364.069941,404.435980L365.826541,405.720172L366.999627,406.140241L366.703228,404.469732L367.224336,403.966258L367.699368,403.400607L369.149683,404.175838L370.383992,404.634925L372.909940,406.816260L374.237719,407.350573L373.997133,405.794445L375.157311,406.092355L373.994947,403.364748L372.367336,400.081679L373.243857,400.038208L373.294702,398.946212L373.402274,397.937000L372.996289,396.302456L371.024810,392.769735L367.175473,387.011687L367.427156,386.289032L368.782005,386.888082L372.874329,390.704713L376.167646,393.508055L378.213071,394.803805L379.547918,395.250348L381.139064,395.972395L382.703089,396.642111L383.479188,396.409126L383.695444,395.550605L382.576152,393.230875L383.776031,393.469980L385.676662,394.452272L386.620497,394.384593L386.103688,392.760913L383.391781,388.851686L381.437614,385.792514L383.848336,387.282139L382.468450,384.861258L385.767442,387.215070L384.270928,384.703284L383.218677,382.669649L385.835816,384.281613L386.426879,383.876045L388.255170,384.666753L388.067309,383.499425L385.796748,380.363301L385.268019,378.915926L387.572250,380.131282L387.919456,379.504511L392.101781,382.397123L392.602670,381.882384L391.712034,380.114101L392.598912,379.954558L388.641004,375.503609L388.676621,374.623533L390.215323,375.055388L390.941331,374.770675L396.539984,378.636511L398.407635,379.269881L394.196428,374.792347L390.127299,370.504322L391.119711,370.445310L392.262298,370.500106L398.417948,374.589394L405.385685,379.242822L407.182205,379.703818L404.246437,376.431492L400.024013,372.208323L393.276040,366.107320L386.255893,359.901686L389.265841,361.384624L388.956360,360.344373L389.964802,360.291683L391.797245,360.835833L389.652491,358.464566L391.098788,358.717629L393.679839,359.766515L398.221820,362.172660L400.951494,363.252705L404.054336,364.560318L403.860617,363.566079L404.463018,363.121635L404.891498,362.557253L405.184954,361.902307L407.945421,362.879394L401.138140,357.563262L402.214872,357.449527L403.876578,357.702142L405.378322,357.836694L411.942420,361.141335L413.656334,361.347675L410.965337,358.821814L408.601501,356.533888L408.350361,355.556108L405.577529,353.078082L408.599933,354.068176L413.710545,356.248911L412.073093,354.460278L413.267861,354.320511L410.153775,351.724634L408.096592,349.763791L411.066159,350.625270L408.279393,348.290267L411.398752,349.205065L413.263236,349.411901L413.065230,348.502903L417.442836,350.009542L418.846846,349.920812L415.532320,347.389288L417.660204,347.671785L416.235564,346.144299L416.304446,345.380479L420.119197,346.464127L419.564653,345.381379L416.114566,342.914832L413.736330,340.999996L412.030744,339.431091L412.869967,339.066760L415.761660,339.638901L418.366978,340.052657L419.465272,339.765611L418.817360,338.696432L413.026602,335.387342L408.205050,332.562352L410.189286,332.696441L411.783543,332.647763L419.636579,335.189437L420.940477,334.960022L413.910351,331.339565L406.441546,327.620138L403.707068,325.852027L408.485172,327.043926L415.237641,328.948057L423.631365,331.407555L420.534776,329.481484L418.775868,328.083735L416.473884,326.508780L414.322125,325.013689L420.457394,326.475524L423.737405,326.881399L424.940844,326.542580L423.321479,325.237846L423.170063,324.441535L423.185477,323.703818L424.726649,323.461992L426.302694,323.218081L425.259045,322.138809L424.705789,321.223423L426.403204,320.999379L427.964802,320.720038L429.310001,320.363744L425.103758,318.391466L419.205371,315.981401L416.227460,314.446464L416.135910,313.734422L413.605321,312.367415L418.706701,313.047178L419.206128,312.483107L421.692075,312.422634L419.178270,311.088407L423.033778,311.343603L425.849103,311.313039L424.991952,310.390612L436.867930,312.421608L434.913871,311.209613L434.226135,310.298460L433.849336,309.462797L432.044907,308.329190L429.193660,306.996816L427.668693,305.961649L425.391236,304.793071L425.616782,304.131256L430.198073,304.290623L433.092128,304.097814L436.363804,303.946940L438.754433,303.612829L437.106508,302.570792L437.276071,301.845906L438.455138,301.282896L434.655976,299.932635L435.505550,299.323049L435.532711,298.585797L432.981558,297.482357L432.894618,296.742702L428.799913,295.471304L422.444143,293.947843L418.803943,292.820052L423.862868,292.764502L422.522399,291.928965L426.500967,291.692453L432.905768,291.676481L427.987918,290.458593L429.957447,289.950743L430.968840,289.337472L423.609369,287.984202L419.661246,286.980999L420.379799,286.379485L422.424677,285.869698L429.480225,285.688467L436.275159,285.426773L437.017001,284.739962L432.640263,283.762312L432.066594,283.018848L429.518076,282.189028L423.883424,281.252964L424.720582,280.610682L419.687159,279.767612L420.617203,279.139803L428.996808,278.681861L432.946086,278.062416L438.663498,277.433692L439.991160,276.707956L439.289103,275.958452L435.145959,275.210801L433.260404,274.493366L430.684765,273.798273L429.310022,273.111708L432.058700,272.368399L430.471149,271.692394L425.557186,271.116407L422.585456,270.525809L423.769995,269.817106L424.797849,269.103644L432.361284,268.093808L437.963482,267.110174L436.880953,266.429397L436.025702,265.745015L432.708884,265.220646L431.998822,264.552492L432.635255,263.794640L435.047269,262.896268L436.581319,262.045869L432.936074,261.619775L434.074743,260.799237L435.688259,259.923192L435.100905,259.248353L437.310880,258.290241L437.153912,257.565747L433.607106,257.221930L430.282864,256.883861L428.496192,256.389062L423.665416,256.292921L424.348951,255.521138L422.101285,255.138044L420.621638,254.667567L423.645153,253.560366L423.842353,252.845078L428.747651,251.404497L429.874348,250.514948L427.222712,250.228789L422.976338,250.233097L423.762928,249.410045L426.188496,248.289037L429.923689,246.906824L435.803043,245.089742L439.003697,243.727222L440.107664,242.743037L440.077673,241.973993L437.602844,241.704450L434.752037,241.535547L434.653569,240.802561L432.600703,240.496917L435.237450,239.160327L436.967626,238.004259L427.744162,239.384244L430.263953,238.056362L431.804493,236.940514L428.851843,236.920385L428.760590,236.204964L426.372739,236.079234L420.760841,236.819321L416.589139,237.227719L422.792117,234.856882L420.533650,234.763489L423.296488,233.277576L428.059319,231.190437L420.148649,232.744315L415.892689,233.291961L413.116245,233.434323L411.338484,233.296715L412.174332,232.362429L418.808042,229.587053L418.362764,229.014409L415.875135,229.109434L421.071348,226.685758L417.920354,227.010611L419.362394,225.799603L423.724254,223.561957L426.434856,221.857309L429.926993,219.844483L425.469593,220.664211L421.150472,221.476316L415.392787,222.864420L412.924743,223.070735L414.073544,221.919644L416.859465,220.120850L418.326394,218.807664L421.523292,216.789260L423.956058,215.042238L424.972234,213.844487L427.158383,212.149850L426.374877,211.671460L427.188337,210.521757L424.994037,210.650649L425.471289,209.639458L424.289316,209.349618L423.155205,209.048020L422.405134,208.582433L418.623588,209.504163L418.598143,208.730525L420.471271,207.067281L420.109105,206.436217L421.575738,204.931501L421.200483,204.297725L418.765947,204.671940L419.711360,203.397474L422.265253,201.303802L423.691130,199.748396L425.766289,197.840660L425.897533,196.911255L422.691131,197.722682L423.065509,196.672746L423.307860,195.684998L421.507118,195.794814L420.406257,195.539009L417.148946,196.483040L418.149964,195.084010L418.782763,193.876591L420.400981,192.095404L420.064900,191.416388L418.757284,191.302513L420.621848,189.333758L418.858621,189.493890L418.180707,189.019122L415.776762,189.595042L414.253239,189.656327L412.928768,189.608523L415.197380,187.325462L416.842706,185.402620L416.376279,184.801172L418.426564,182.578755L417.877368,182.016505L417.923333,181.064749L416.737068,180.924778L415.279808,180.976352L408.817341,184.429095L405.104558,186.082362L402.275482,187.169691L403.042897,185.783534L406.656563,182.379324L408.371738,180.269107L409.382234,178.635080L407.790324,178.865306L405.662358,179.503258L402.172300,181.169707L400.261270,181.702848L398.395593,182.222814L401.115286,179.283111L403.477782,176.572174L405.995427,173.701010L407.126986,171.868792L403.196393,174.001522L403.079483,173.152526L402.513831,172.658626L402.104363,172.039743L397.868541,174.548281L394.852509,176.107358L390.191267,179.075488L384.937406,182.606358L388.101344,179.072166L389.349155,177.122210L391.820161,174.089184L391.634271,173.326084L389.581099,174.201311L387.530334,175.100011L382.976625,178.266867L380.695332,179.446399L381.674019,177.682252L384.052713,174.605774L386.196567,171.700180L387.159251,169.857914L388.190331,167.926544L387.579959,167.536097L388.032181,166.124288L386.787223,166.345649L383.320533,168.759335L376.929027,174.120662L377.920160,172.215225L381.495143,167.679651L385.557999,162.574025L389.306703,157.706756L390.318383,155.594161L391.389237,153.390696L387.873072,155.992908L387.731959,155.061131L382.308488,159.792814L379.711472,161.557736L379.542344,160.709317L376.389538,163.145645L376.583410,161.909221L378.300503,158.947275L379.576344,156.439774L380.663797,154.110403L380.659208,153.007803L375.691687,157.676376L371.180870,161.902446L371.274430,160.750589L368.603148,162.896761L370.167525,159.970906L372.926705,155.541192L372.571988,154.871093L376.001297,149.494646L373.786256,151.105307L369.837849,154.948649L371.501354,151.701834L374.902660,146.161056L378.006394,140.911791L383.244339,132.767877L383.155939,131.543862L380.984221,133.095294L379.840666,133.295670L378.194681,134.194451L373.770810,138.945812L370.424316,142.298646L367.927852,144.530876L365.359930,146.915593L364.314714,147.175145L365.100826,144.801248L363.265052,146.214535L360.312530,149.308586L357.729947,151.920587L356.447568,152.638080L356.865402,150.797559L356.386923,150.301140L356.018426,149.631969L355.900253,148.565511L355.507799,147.917916L355.055800,147.359528L356.902589,143.094926L355.692086,143.724811L355.300233,143.029619L357.720386,137.658803L356.519248,138.259152L356.064430,137.614767L356.319936,135.748225L355.933704,134.960650L356.546848,132.416791L355.455376,132.838822L354.207737,133.556460L349.863000,139.886797L347.277738,143.151156L344.270063,147.272211L343.135687,147.998159L343.533694,145.859243L341.106975,149.061285L339.928053,149.937569L336.682394,154.865231L332.905740,160.955746L333.687681,158.110597L335.449076,153.233682L337.746087,147.159853L341.364432,138.229085L340.635486,138.160839L338.834334,140.359463L338.983104,138.455547L339.515919,135.683897L340.652401,131.533618L341.139160,128.727132L340.400726,128.602119L338.240168,131.703693L336.397882,134.159058L336.124018,133.040021L335.698537,132.256309L335.017831,132.067468L333.036789,135.017105L333.778269,131.398417L333.224672,130.897423L333.809371,127.535888L335.539461,121.181778L334.559860,121.641381L331.512472,127.517144L329.166253,131.706065L326.775411,136.137455L324.264502,141.025933L323.592260,140.988159L323.070164,140.535583L322.813814,139.322113L323.508490,135.341418L324.373246,130.752549L325.206339,126.126900L325.013389,124.456464L324.111483,124.908410L324.100296,122.616922L323.115329,123.329933L322.121136,124.102119L321.559714,123.497885L320.080385,125.916342L319.694587,124.745489L319.424495,123.146555L317.794143,126.228799L317.679036,124.065711L317.214814,123.089732L316.911974,121.494689L317.461278,116.671302L316.486940,117.463244L315.136067,119.748281L314.029554,121.163865L313.061430,122.084968L312.843788,119.974718L312.275727,119.251048L310.169117,125.064039L308.212262,130.473069L307.348111,131.261658L306.466977,132.167609L306.590466,128.459417L306.654619,124.872750L305.624515,126.436806L305.490842,123.630197L305.439668,120.276704L305.128946,118.117531L304.618162,116.924956L303.620146,118.345088L302.808697,118.798529L301.731890,120.813663L300.994826,120.933007L299.426390,126.132587L298.270836,129.051680L297.583120,129.129869L296.892088,129.241238L296.345459,128.374013L295.370618,130.494014L294.589957,131.339499L293.987135,130.900533L293.796126,127.197779L293.775053,121.837757L293.784763,115.806872L293.196091,114.571453L292.166224,117.292375L290.912061,122.409553L289.896790,125.606279L288.920470,128.706664L288.091237,130.501856L287.438497,130.442212L286.732413,131.036731L286.193156,129.539793L286.084346,121.916492L285.605796,118.727657L284.866996,119.198046L284.272330,117.296467L283.553345,117.375179L282.910480,115.944742L282.146600,116.911785L281.367526,118.474761L280.664325,118.337661L279.903140,120.001664L279.255243,118.049649L278.572441,116.869093L277.859103,116.795765L277.150681,116.319438L276.398852,120.180595Z"
       id="path37" />
    <line
       x1="50"
       y1="575"
       x2="100"
       y2="575"
       fill="none"
       stroke="blue"
       stroke-width="1.0"
       stroke-linejoin="round"
       stroke-miterlimit="10"
       id="line37" />
    <text
       x="125"
       y="578"
       style="text-anchor:start;fill:black"
       id="text37">GC-skew</text>
  </g>
  <g
     style="fill:pink;stroke:black"
     id="g41">
    <a
       xlink:title="1111513..1111520;modified_base;41;158;CGGTGATC"
       id="a38">
      <path
         fill="blue"
         stroke="blue"
         d="M430.196859,483.599940L429.467764,484.140407L428.736787,484.678326L428.003936,485.213690L427.269222,485.746493L422.471922,476.871326Z"
         id="path38" />
    </a>
    <a
       xlink:title="1848900..1848907;modified_base;26;151;CGGTGATC"
       id="a39">
      <path
         fill="blue"
         stroke="blue"
         d="M48.369961,412.345642L47.891916,411.553718L47.416638,410.760131L46.944133,409.964890L46.474407,409.168004L55.777144,405.254902Z"
         id="path39" />
    </a>
    <a
       xlink:title="2568288..2568295;modified_base;35;197;CGGTGATC"
       id="a40">
      <path
         fill="blue"
         stroke="blue"
         d="M154.832893,50.089204L155.618710,49.671112L156.405982,49.255767L157.194699,48.843172L157.984851,48.433332L161.435238,57.910054Z"
         id="path40" />
    </a>
    <a
       xlink:title="563794..563801;modified_base;32;168;CAGTGATC"
       id="a41">
      <path
         fill="blue"
         stroke="blue"
         d="M522.919877,196.669071L523.191793,197.534950L523.460684,198.401773L523.726548,199.269529L523.989382,200.138208L514.032616,201.764706Z"
         id="path41" />
    </a>
  </g>
  <text
     x="275"
     y="265"
     style="text-anchor:middle"
     font-size="18"
     font-weight="bold"
     id="text41">4/180</text>
  <text
     x="275"
     y="295"
     style="text-anchor:middle"
     font-size="25"
     font-weight="bold"
     id="text43"><tspan
   fill="red"
   text-decoration="underline"
   id="tspan41">C</tspan>RGKG<tspan
   fill="red"
   text-decoration="underline"
   id="tspan42">A</tspan><tspan
   fill="blue"
   font-style="italic"
   id="tspan43">T</tspan>C</text>
  <line
     x1="50"
     y1="525"
     x2="100"
     y2="525"
     fill="none"
     stroke="green"
     stroke-width="1.0"
     stroke-linejoin="round"
     stroke-miterlimit="10"
     id="line43" />
  <text
     x="125"
     y="530"
     style="text-anchor:start;fill:black"
     id="text44">Contigs</text>
</svg>
